<!-- Generated by IcoMoon.io -->
<svg version="1.1" xmlns="http://www.w3.org/2000/svg" width="32" height="32" viewBox="0 0 32 32">
<title>air-sock</title>
<path d="M23 11.4l-2 0.214v-5.235l2 0.214v4.806zM24 11.293v-4.592l2 0.214v4.164l-2 0.214zM20 11.722l-3 0.321v-6.091l3 0.321v5.449zM16 12.15l-3 0.321v-6.948l3 0.321v6.305zM12 12.579l-3 0.321v-7.804l3 0.321v7.162zM6.5 4c-0.276 0-0.5 0.216-0.5 0.499v24.001c0 0.276 0.232 0.499 0.5 0.499 0.276 0 0.5-0.216 0.5-0.499v-24.001c0-0.276-0.232-0.499-0.5-0.499v0zM8 4v10l19-2v-6l-19-2z"></path>
</svg>
