<!-- Generated by IcoMoon.io -->
<svg version="1.1" xmlns="http://www.w3.org/2000/svg" width="32" height="32" viewBox="0 0 32 32">
<title>amused-face-closed-eyes</title>
<path d="M16.5 29v0c-6.904 0-12.5-5.596-12.5-12.5s5.596-12.5 12.5-12.5c6.904 0 12.5 5.596 12.5 12.5s-5.596 12.5-12.5 12.5zM16.5 28c6.351 0 11.5-5.149 11.5-11.5s-5.149-11.5-11.5-11.5c-6.351 0-11.5 5.149-11.5 11.5s5.149 11.5 11.5 11.5v0zM10.622 10.967l-0.559 0.829 3.316 2.237 0.559-0.829-3.316-2.237zM19.062 13.204l0.559 0.829 3.316-2.237-0.559-0.829-3.316 2.237zM16.497 21c-2.997 0-4.497-1-4.497-1s1 3 4.5 3c3.5 0 4.5-3 4.5-3s-1.506 1-4.503 1v0z"></path>
</svg>
