<!-- Generated by IcoMoon.io -->
<svg version="1.1" xmlns="http://www.w3.org/2000/svg" width="32" height="32" viewBox="0 0 32 32">
<title>angry-face-open-mouth-eyebrows1</title>
<path d="M16.5 29c-6.904 0-12.5-5.596-12.5-12.5s5.596-12.5 12.5-12.5c6.904 0 12.5 5.596 12.5 12.5s-5.596 12.5-12.5 12.5zM12 15c0.552 0 1-0.448 1-1s-0.448-1-1-1c-0.552 0-1 0.448-1 1s0.448 1 1 1zM21 15c0.552 0 1-0.448 1-1s-0.448-1-1-1c-0.552 0-1 0.448-1 1s0.448 1 1 1zM16.5 24c1.381 0 2.5-1.119 2.5-2.5s-1.119-2.5-2.5-2.5c-1.381 0-2.5 1.119-2.5 2.5s1.119 2.5 2.5 2.5zM21.378 9.967l-3.316 2.237 0.559 0.829 3.316-2.237-0.559-0.829zM14.938 12.204l-3.316-2.237-0.559 0.829 3.316 2.237 0.559-0.829z"></path>
</svg>
