<!-- Generated by IcoMoon.io -->
<svg version="1.1" xmlns="http://www.w3.org/2000/svg" width="20" height="20" viewBox="0 0 20 20">
<title>at-symbol</title>
<path d="M13.6 13.47c-0.91 0.953-2.191 1.545-3.61 1.545-2.756 0-4.99-2.234-4.99-4.99 0-0.009 0-0.018 0-0.026v0.001c0-2.761 2.239-5 5-5 1.131 0 2.175 0.376 3.013 1.009l-0.013-0.009v-1h2v6.5c0 0.828 0.672 1.5 1.5 1.5s1.5-0.672 1.5-1.5v0-1.5c-0.003-4.416-3.584-7.994-8-7.994-4.418 0-8 3.582-8 8s3.582 8 8 8c1.305 0 2.537-0.312 3.625-0.867l-0.045 0.021 0.9 1.79c-1.305 0.668-2.847 1.060-4.48 1.060-5.523 0-10-4.477-10-10s4.477-10 10-10c5.519 0 9.994 4.472 10 9.99v0.001h-0.010v1.5c0 0.003 0 0.007 0 0.010 0 1.933-1.567 3.5-3.5 3.5-1.202 0-2.262-0.606-2.892-1.528l-0.008-0.012zM10 13c1.657 0 3-1.343 3-3s-1.343-3-3-3v0c-1.657 0-3 1.343-3 3s1.343 3 3 3v0z"></path>
</svg>
