<!-- Generated by IcoMoon.io -->
<svg version="1.1" xmlns="http://www.w3.org/2000/svg" width="32" height="32" viewBox="0 0 32 32">
<title>award2</title>
<path d="M10 16.708v0 0c-1.841-1.648-3-4.043-3-6.708 0-4.971 4.029-9 9-9s9 4.029 9 9c0 2.665-1.159 5.060-3 6.708v14.292l-6-6-6 6v-14.292zM11 17.484v11.116l5-5 5 5v-11.116c-1.43 0.957-3.15 1.516-5 1.516s-3.57-0.558-5-1.516v0 0zM16 18c4.418 0 8-3.582 8-8s-3.582-8-8-8c-4.418 0-8 3.582-8 8s3.582 8 8 8v0zM16 12.692l-3.5 2.308 1.5-4-3-2h3.5l1.5-4 1.5 4h3.5l-3 2 1.5 4-3.5-2.308z"></path>
</svg>
