<!-- Generated by IcoMoon.io -->
<svg version="1.1" xmlns="http://www.w3.org/2000/svg" width="32" height="32" viewBox="0 0 32 32">
<title>barometer</title>
<path d="M17.892 21.423c0.668 0.449 1.108 1.212 1.108 2.077 0 1.381-1.119 2.5-2.5 2.5s-2.5-1.119-2.5-2.5c0-0.866 0.44-1.628 1.108-2.077l1.392-7.423 1.392 7.423zM29.276 23.872c0.469-1.371 0.724-2.842 0.724-4.372 0-7.456-6.044-13.5-13.5-13.5s-13.5 6.044-13.5 13.5c0 1.53 0.255 3.001 0.724 4.372l0.958-0.29c-0.442-1.279-0.681-2.652-0.681-4.081 0-6.904 5.596-12.5 12.5-12.5s12.5 5.596 12.5 12.5c0 1.429-0.24 2.802-0.681 4.081l0.958 0.29zM16.5 25c0.828 0 1.5-0.672 1.5-1.5s-0.672-1.5-1.5-1.5c-0.828 0-1.5 0.672-1.5 1.5s0.672 1.5 1.5 1.5v0 0zM16.5 8c-0.276 0-0.5 0.215-0.5 0.49v3.019c0 0.271 0.232 0.49 0.5 0.49 0.276 0 0.5-0.215 0.5-0.49v-3.019c0-0.271-0.232-0.49-0.5-0.49v0 0zM23.261 10.197c-0.223-0.162-0.531-0.12-0.693 0.103l-1.775 2.442c-0.159 0.219-0.101 0.533 0.116 0.691 0.223 0.162 0.531 0.12 0.693-0.103l1.775-2.442c0.159-0.219 0.101-0.533-0.116-0.691v0 0zM27.44 15.948c-0.085-0.263-0.359-0.409-0.621-0.324l-2.871 0.933c-0.258 0.084-0.395 0.372-0.312 0.627 0.085 0.263 0.359 0.409 0.621 0.324l2.871-0.933c0.258-0.084 0.395-0.372 0.312-0.627v0 0zM27.44 23.058c0.085-0.263-0.050-0.542-0.312-0.627l-2.871-0.933c-0.258-0.084-0.538 0.069-0.621 0.324-0.085 0.263 0.050 0.542 0.312 0.627l2.871 0.933c0.258 0.084 0.538-0.069 0.621-0.324v0 0zM5.56 23.058c0.085 0.263 0.359 0.409 0.621 0.324l2.871-0.933c0.258-0.084 0.395-0.372 0.312-0.627-0.085-0.263-0.359-0.409-0.621-0.324l-2.871 0.933c-0.258 0.084-0.395 0.372-0.312 0.627v0 0zM5.56 15.948c-0.085 0.263 0.050 0.542 0.312 0.627l2.871 0.933c0.258 0.084 0.538-0.069 0.621-0.324 0.085-0.263-0.050-0.542-0.312-0.627l-2.871-0.933c-0.258-0.084-0.538 0.069-0.621 0.324v0 0zM9.739 10.197c-0.223 0.162-0.278 0.468-0.116 0.691l1.775 2.442c0.159 0.219 0.476 0.26 0.693 0.103 0.223-0.162 0.278-0.468 0.116-0.691l-1.775-2.442c-0.159-0.219-0.476-0.26-0.693-0.103v0 0z"></path>
</svg>
