<!-- Generated by IcoMoon.io -->
<svg version="1.1" xmlns="http://www.w3.org/2000/svg" width="32" height="32" viewBox="0 0 32 32">
<title>baseball-set</title>
<path d="M19.887 25.489v0c-0.036-0.163-0.059-0.353-0.049-0.279 2.061-0.242 3.695-1.877 3.938-3.938 1.558 0.209 2.791 1.442 3 3-2.061 0.242-3.695 1.877-3.938 3.938-1.464-0.196-2.641-1.297-2.951-2.721zM22.765 21.282v0 0c-0.233 1.499-1.417 2.684-2.917 2.917 0.233-1.499 1.417-2.684 2.917-2.917zM26.765 25.282c-0.233 1.499-1.417 2.684-2.917 2.917 0.233-1.499 1.417-2.684 2.917-2.917v0 0zM13.806 16.568l-7.276 8.28 0.89 0.89 8.28-7.276-1.893-1.893zM14.467 15.816l1.984 1.984 11.023-9.687c0.979-0.861 1.023-2.308 0.109-3.222l-0.207-0.207c-0.919-0.919-2.358-0.875-3.222 0.109l-9.687 11.023zM5.868 25.601l-0.662 0.753-0.357-0.357c-0.193-0.193-0.514-0.186-0.704 0.003-0.195 0.195-0.201 0.506-0.003 0.704l1.421 1.421c0.193 0.193 0.514 0.186 0.704-0.003 0.195-0.195 0.201-0.506 0.003-0.704l-0.357-0.357 0.753-0.662-0.798-0.798zM5.092 24.975l18.45-20.91c1.204-1.364 3.207-1.423 4.486-0.144l0.319 0.319c1.278 1.278 1.214 3.287-0.144 4.486l-20.911 18.451c0.234 0.547 0.129 1.206-0.317 1.653-0.59 0.59-1.536 0.586-2.121-0l-1.414-1.414c-0.584-0.584-0.586-1.536-0-2.121 0.45-0.45 1.107-0.554 1.654-0.318v0 0zM23.307 20.241c-2.485 0-4.5 2.015-4.5 4.5s2.015 4.5 4.5 4.5c2.485 0 4.5-2.015 4.5-4.5s-2.015-4.5-4.5-4.5v0z"></path>
</svg>
