<!-- Generated by IcoMoon.io -->
<svg version="1.1" xmlns="http://www.w3.org/2000/svg" width="32" height="32" viewBox="0 0 32 32">
<title>baseball</title>
<path d="M8.706 24.956v0c0.274-0.298 0.534-0.61 0.778-0.933l0.736 0.535 0.588-0.809-0.753-0.547c0.496-0.78 0.909-1.619 1.224-2.504l0.93 0.302 0.309-0.951-0.942-0.306c0.236-0.879 0.377-1.797 0.415-2.742h1.010v-1h-1.010c-0.037-0.945-0.179-1.862-0.415-2.742l0.942-0.306-0.309-0.951-0.93 0.302c-0.315-0.885-0.728-1.724-1.224-2.504l0.753-0.547-0.588-0.809-0.736 0.534c-0.244-0.324-0.504-0.635-0.778-0.933 2.049-1.89 4.787-3.044 7.794-3.044s5.745 1.154 7.794 3.044c-0.274 0.298-0.534 0.61-0.778 0.933l-0.736-0.534-0.588 0.809 0.753 0.547c-0.496 0.78-0.909 1.619-1.224 2.504l-0.93-0.302-0.309 0.951 0.942 0.306c-0.235 0.879-0.377 1.797-0.415 2.742h-1.010v1h1.010c0.037 0.945 0.179 1.862 0.415 2.742l-0.942 0.306 0.309 0.951 0.93-0.302c0.315 0.885 0.728 1.724 1.224 2.504l-0.753 0.547 0.588 0.809 0.736-0.535c0.244 0.324 0.504 0.635 0.778 0.933v0c-2.049 1.89-4.787 3.044-7.794 3.044s-5.745-1.154-7.794-3.044zM8 24.246c-1.864-2.044-3-4.762-3-7.746s1.136-5.702 3-7.746c0.237 0.26 0.462 0.531 0.675 0.811l-0.882 0.641 0.588 0.809 0.863-0.627c0.437 0.695 0.801 1.44 1.083 2.224l-0.971 0.316 0.309 0.951 0.959-0.312c0.205 0.781 0.331 1.595 0.366 2.432h-0.989v1h0.989c-0.036 0.837-0.161 1.651-0.366 2.432v0l-0.959-0.311-0.309 0.951 0.971 0.316c-0.282 0.784-0.646 1.529-1.083 2.224l-0.863-0.627-0.588 0.809 0.882 0.641c-0.213 0.281-0.438 0.552-0.675 0.811v0zM25 24.246v0 0c-0.237-0.26-0.462-0.531-0.675-0.811l0.882-0.641-0.588-0.809-0.863 0.627c-0.437-0.695-0.801-1.44-1.083-2.224l0.971-0.316-0.309-0.951-0.959 0.311c-0.205-0.781-0.331-1.595-0.366-2.432h0.989v-1h-0.989c0.036-0.837 0.161-1.651 0.366-2.432l0.959 0.312 0.309-0.951-0.971-0.316c0.282-0.784 0.646-1.529 1.083-2.224l0.863 0.627 0.588-0.809-0.882-0.641c0.213-0.281 0.438-0.552 0.675-0.811 1.864 2.044 3 4.762 3 7.746s-1.136 5.702-3 7.746zM16.5 29c6.904 0 12.5-5.596 12.5-12.5s-5.596-12.5-12.5-12.5c-6.904 0-12.5 5.596-12.5 12.5s5.596 12.5 12.5 12.5v0z"></path>
</svg>
