<!-- Generated by IcoMoon.io -->
<svg version="1.1" xmlns="http://www.w3.org/2000/svg" width="32" height="32" viewBox="0 0 32 32">
<title>baseball-set1</title>
<path d="M27.782 24.266c-0.221-2.106-1.894-3.779-4-4v0c0.016 0.156 0.025 0.315 0.025 0.475 0 2.485-2.015 4.5-4.5 4.5-0.16 0-0.319-0.008-0.475-0.025 0.221 2.106 1.894 3.779 4 4-0.016-0.156-0.025-0.315-0.025-0.475 0-2.485 2.015-4.5 4.5-4.5 0.16 0 0.319 0.008 0.475 0.025v0zM27.776 25.272c-0.242 2.061-1.877 3.696-3.938 3.938-0.021-0.153-0.031-0.31-0.031-0.469 0-1.933 1.567-3.5 3.5-3.5 0.159 0 0.316 0.011 0.469 0.031v0zM22.775 20.272c-2.061 0.242-3.696 1.877-3.938 3.938 0.153 0.021 0.31 0.031 0.469 0.031 1.933 0 3.5-1.567 3.5-3.5 0-0.159-0.011-0.316-0.031-0.469v0zM13.117 15.88l-7.39 8.375 2.285 2.285 8.375-7.39-3.27-3.27zM13.78 15.128l9.762-11.064c1.204-1.364 3.207-1.423 4.486-0.144l0.319 0.319c1.278 1.278 1.214 3.287-0.144 4.486l-11.064 9.762-3.359-3.359zM7.328 27.269c0.185 0.527 0.068 1.138-0.354 1.559-0.59 0.59-1.536 0.586-2.121-0l-1.414-1.414c-0.584-0.584-0.586-1.536-0-2.121 0.424-0.424 1.031-0.541 1.557-0.356l2.332 2.332z"></path>
</svg>
