<!-- Generated by IcoMoon.io -->
<svg version="1.1" xmlns="http://www.w3.org/2000/svg" width="32" height="32" viewBox="0 0 32 32">
<title>basketball2</title>
<path d="M17.245 27.976v0c-0.161-0.8-0.245-1.628-0.245-2.476 0-3.402 1.359-6.487 3.564-8.741-1.32-1.848-2.971-3.442-4.867-4.697-1.939 3.896-5.852 6.638-10.43 6.915v0c1.133 5.161 5.732 9.023 11.233 9.023 0.25 0 0.499-0.008 0.745-0.024zM18.244 27.869c2.123-0.323 4.055-1.226 5.629-2.543v0c-0.329-2.814-1.291-5.435-2.738-7.718-1.944 2.059-3.136 4.837-3.136 7.892 0 0.812 0.084 1.604 0.244 2.369v0zM27.507 13.158c-1.394-4.596-5.587-7.975-10.595-8.151v0c0.058 0.489 0.088 0.988 0.088 1.493 0 1.639-0.315 3.203-0.888 4.637 2.017 1.311 3.777 2.985 5.187 4.929 1.721-1.497 3.855-2.532 6.209-2.909v0zM27.756 14.131v0c-2.24 0.341-4.268 1.328-5.888 2.766 1.463 2.253 2.473 4.828 2.901 7.595v0c2-2.069 3.231-4.887 3.231-7.992 0-0.812-0.084-1.604-0.244-2.369zM5.095 17.985v0 0c4.294-0.219 7.965-2.792 9.75-6.455-2.151-1.261-4.578-2.1-7.17-2.404-1.67 1.996-2.675 4.568-2.675 7.374 0 0.503 0.032 0.999 0.095 1.485zM15.905 5.015c-2.869 0.146-5.461 1.344-7.397 3.215 2.422 0.375 4.696 1.196 6.737 2.375 0.488-1.275 0.755-2.659 0.755-4.106 0-0.503-0.032-0.999-0.095-1.485v0 0zM4.159 18.498c-0.105-0.651-0.159-1.318-0.159-1.998 0-6.904 5.596-12.5 12.5-12.5s12.5 5.596 12.5 12.5c0 6.904-5.596 12.5-12.5 12.5-6.048 0-11.093-4.296-12.25-10.002-0.034-0.165-0.064-0.332-0.091-0.499v0z"></path>
</svg>
