<!-- Generated by IcoMoon.io -->
<svg version="1.1" xmlns="http://www.w3.org/2000/svg" width="32" height="32" viewBox="0 0 32 32">
<title>basketball</title>
<path d="M17 5.011c2.81 0.12 5.359 1.249 7.294 3.033v0c-1.94 2.111-3.164 4.892-3.284 7.956h-4.010v-10.989zM16 5.011v10.989h-4.010c-0.121-3.064-1.344-5.845-3.284-7.956v0c1.935-1.784 4.484-2.913 7.294-3.033zM17 27.989v-10.989h4.010c0.121 3.064 1.344 5.845 3.284 7.956v0c-1.935 1.784-4.484 2.913-7.294 3.033zM16 27.989c-2.81-0.12-5.359-1.249-7.294-3.033 1.94-2.111 3.164-4.892 3.284-7.956h4.010v10.989zM25 8.754c1.759 1.929 2.87 4.459 2.989 7.246v0h-5.979c0.119-2.787 1.23-5.317 2.989-7.246v0 0zM25 24.246v0 0c-1.759-1.929-2.87-4.459-2.989-7.246h5.979c-0.119 2.787-1.23 5.317-2.989 7.246zM5.011 16c0.119-2.787 1.23-5.317 2.989-7.246v0c1.759 1.929 2.87 4.459 2.989 7.246h-5.979zM5.011 17h5.979c-0.119 2.787-1.23 5.317-2.989 7.246-1.759-1.929-2.87-4.459-2.989-7.246zM16.5 29c6.904 0 12.5-5.596 12.5-12.5s-5.596-12.5-12.5-12.5c-6.904 0-12.5 5.596-12.5 12.5s5.596 12.5 12.5 12.5v0z"></path>
</svg>
