<!-- Generated by IcoMoon.io -->
<svg version="1.1" xmlns="http://www.w3.org/2000/svg" width="32" height="32" viewBox="0 0 32 32">
<title>basketball-hoop1</title>
<path d="M11.144 18.071v0c-0.012-0.024-0.023-0.047-0.034-0.071h-2.11v-9h15v9h-2.11c-0.010 0.022-0.021 0.045-0.032 0.067l-0.588 1.933h4.73v-13h-19v13h4.734l-0.59-1.929zM11.11 17v0 0c0.51-1.141 2.729-2 5.39-2s4.88 0.859 5.39 2h1.11v-7h-13v7h1.11zM13.015 24.185l-0.974-3.185h-6.040v-15h21v15h-6.034l-0.982 3.228h-0.007c-0.198 0.997-1.68 1.772-3.477 1.772-1.824 0-3.322-0.797-3.485-1.815v0 0zM16.5 19c2.485 0 4.5-0.672 4.5-1.5s-2.015-1.5-4.5-1.5c-2.485 0-4.5 0.672-4.5 1.5s2.015 1.5 4.5 1.5v0z"></path>
</svg>
