<!-- Generated by IcoMoon.io -->
<svg version="1.1" xmlns="http://www.w3.org/2000/svg" width="32" height="32" viewBox="0 0 32 32">
<title>basketball-hoop</title>
<path d="M12.774 20.341v0c0.378 0.186 0.878 0.342 1.462 0.455l-0.193-1.059c-0.633-0.144-1.196-0.342-1.661-0.58l0.391 1.184zM13.151 21.483l0.378 1.143c0.323 0.095 0.687 0.174 1.082 0.235l-0.19-1.047c-0.457-0.085-0.884-0.197-1.27-0.332v0zM16 20.991v-1.001c-0.317-0.013-0.626-0.038-0.924-0.074v0l0.187 1.027c0.238 0.023 0.485 0.039 0.738 0.048v0zM16 21.99v0c-0.187-0.008-0.372-0.020-0.554-0.036l0.185 1.018c0.121 0.008 0.244 0.014 0.369 0.019v-1.001zM17 21.99v1.001c0.125-0.005 0.247-0.011 0.369-0.019l0.185-1.018c-0.182 0.016-0.366 0.028-0.554 0.036v0zM17 20.991v0c0.253-0.009 0.499-0.026 0.738-0.048l0.187-1.027c-0.299 0.036-0.608 0.061-0.924 0.074v1.001zM19.845 21.485v0c-0.385 0.134-0.81 0.246-1.266 0.331l-0.19 1.047c0.393-0.061 0.755-0.14 1.077-0.234l0.379-1.143zM20.224 20.343l0.393-1.184c-0.464 0.238-1.027 0.435-1.659 0.579l-0.193 1.059c0.582-0.113 1.081-0.269 1.459-0.454v0zM14.961 24.788l-0.166-0.911c-0.318-0.047-0.623-0.107-0.912-0.178l0.111 0.336h0.007c0.027 0.306 0.397 0.576 0.96 0.752zM15.996 24.98c0.001 0 0.002 0 0.004 0v0-0.99c-0.062-0.003-0.124-0.006-0.185-0.009l0.182 0.999zM17 23.99v0.99c0.001-0 0.002-0 0.004-0v0l0.182-0.999c-0.061 0.003-0.123 0.006-0.185 0.009v0 0zM19.11 23.701v0 0c-0.288 0.071-0.591 0.13-0.906 0.177l-0.166 0.911c0.563-0.176 0.933-0.447 0.96-0.752h0.001l0.111-0.335zM11.144 18.071v0c-0.012-0.024-0.023-0.047-0.034-0.071h-2.11v-9h15v9h-2.11c-0.010 0.022-0.021 0.045-0.032 0.067l-0.588 1.933h4.73v-13h-19v13h4.734l-0.59-1.929zM11.11 17v0 0c0.51-1.141 2.729-2 5.39-2s4.88 0.859 5.39 2h1.11v-7h-13v7h1.11zM13.015 24.185l-0.974-3.185h-6.040v-15h21v15h-6.034l-0.982 3.228h-0.007c-0.198 0.997-1.68 1.772-3.477 1.772-1.824 0-3.322-0.797-3.485-1.815v0 0zM16.5 19c2.485 0 4.5-0.672 4.5-1.5s-2.015-1.5-4.5-1.5c-2.485 0-4.5 0.672-4.5 1.5s2.015 1.5 4.5 1.5v0z"></path>
</svg>
