<!-- Generated by IcoMoon.io -->
<svg version="1.1" xmlns="http://www.w3.org/2000/svg" width="20" height="20" viewBox="0 0 20 20">
<title>block</title>
<path d="M0 10c0-5.523 4.477-10 10-10s10 4.477 10 10v0c0 5.523-4.477 10-10 10s-10-4.477-10-10v0zM16.32 5.1l-11.23 11.21c1.34 1.049 3.050 1.683 4.908 1.683 4.418 0 8-3.582 8-8 0-1.855-0.632-3.563-1.692-4.92l0.013 0.018zM14.91 3.68c-1.344-1.059-3.061-1.698-4.928-1.698-4.418 0-8 3.582-8 8 0 1.867 0.639 3.584 1.711 4.945l-0.013-0.017 11.23-11.23z"></path>
</svg>
