<!-- Generated by IcoMoon.io -->
<svg version="1.1" xmlns="http://www.w3.org/2000/svg" width="32" height="32" viewBox="0 0 32 32">
<title>book-bookmark1</title>
<path d="M15 8h-4v21h15v-21h-0.505c-0.826 0-1.495-0.666-1.495-1.5 0-0.828 0.677-1.5 1.495-1.5h0.505v-1h-17.507c-1.377 0-2.493 1.11-2.493 2.5v19.501c0 1.657 1.343 2.999 2.994 2.999h1.006v-21h-1.507c-0.826 0-1.493-0.672-1.493-1.5 0-0.834 0.669-1.5 1.493-1.5h15.007c0 0-0.5 0.737-0.5 1.474s0.5 1.526 0.5 1.526h-2.5v12l-3-3-3 3v-12zM16 8v9.6l2-2 2 2v-9.6h-4z"></path>
</svg>
