<!-- Generated by IcoMoon.io -->
<svg version="1.1" xmlns="http://www.w3.org/2000/svg" width="32" height="32" viewBox="0 0 32 32">
<title>book1</title>
<path d="M17 9h-6v19h14v-19h-8zM26 29h-17.006c-1.651 0-2.994-1.343-2.994-2.999v-19.501c0-1.39 1.116-2.5 2.493-2.5h17.507v1h-0.505c-0.818 0-1.495 0.672-1.495 1.5 0 0.834 0.669 1.5 1.495 1.5h0.505v21zM10 28v-19h-1.507c-0.559 0-1.076-0.185-1.493-0.498v17.507c0 1.1 0.893 1.991 1.995 1.991h1.005zM8.493 5c-0.825 0-1.493 0.666-1.493 1.5 0 0.828 0.667 1.5 1.493 1.5h15.007c0 0-0.5-0.79-0.5-1.526s0.5-1.474 0.5-1.474h-15.007z"></path>
</svg>
