<!-- Generated by IcoMoon.io -->
<svg version="1.1" xmlns="http://www.w3.org/2000/svg" width="32" height="32" viewBox="0 0 32 32">
<title>bookmark-remove</title>
<path d="M20 18.978v0 0c2.803-0.253 5-2.609 5-5.478s-2.197-5.225-5-5.478v-1.031c0-1.652-1.342-2.991-2.997-2.991h-6.006c-1.655 0-2.997 1.342-2.997 2.991v21.009l6-6 6 6v-9.022zM19 18.978v6.622l-5-5-5 5v-18.606c0-1.096 0.895-1.994 2-1.994h6.001c1.112 0 2 0.893 2 1.994v1.028c-2.803 0.253-5 2.609-5 5.478s2.197 5.225 5 5.478v0 0zM19.5 18v0 0c-2.485 0-4.5-2.015-4.5-4.5s2.015-4.5 4.5-4.5c2.485 0 4.5 2.015 4.5 4.5s-2.015 4.5-4.5 4.5zM16 13v1h7v-1h-7z"></path>
</svg>
