<!-- Generated by IcoMoon.io -->
<svg version="1.1" xmlns="http://www.w3.org/2000/svg" width="18" height="18" viewBox="0 0 18 18">
<title>book6</title>
<path d="M15 1h-11c-1.105 0-2 0.895-2 2v12c0 1.105 0.896 2 2 2h11c0.552 0 1-0.448 1-1v-14c0-0.552-0.448-1-1-1zM14 14.5c0 0.276-0.224 0.5-0.5 0.5h-8.51c-0.547 0-0.99-0.443-0.99-0.99v-0.020c0-0.547 0.443-0.99 0.99-0.99h8.51c0.276 0 0.5 0.224 0.5 0.5v1zM14 10.531c0 0.276-0.224 0.5-0.5 0.5h-7c-0.276 0-0.5-0.224-0.5-0.5v-7.031c0-0.276 0.224-0.5 0.5-0.5h7c0.276 0 0.5 0.224 0.5 0.5v7.031z"></path>
<path d="M11.5 5h-3c-0.276 0-0.5 0.224-0.5 0.5v1c0 0.276 0.224 0.5 0.5 0.5h3c0.276 0 0.5-0.224 0.5-0.5v-1c0-0.276-0.224-0.5-0.5-0.5z"></path>
</svg>
