<!-- Generated by IcoMoon.io -->
<svg version="1.1" xmlns="http://www.w3.org/2000/svg" width="32" height="32" viewBox="0 0 32 32">
<title>bookmark-remove1</title>
<path d="M20 19.981v8.019l-6-6-6 6v-21.009c0-1.649 1.342-2.991 2.997-2.991h6.006c1.656 0 2.997 1.339 2.997 2.991v0.028c-0.165-0.013-0.332-0.019-0.5-0.019-3.59 0-6.5 2.91-6.5 6.5s2.91 6.5 6.5 6.5c0.168 0 0.335-0.006 0.5-0.019v0 0zM19.5 19v0c-3.038 0-5.5-2.462-5.5-5.5s2.462-5.5 5.5-5.5c3.038 0 5.5 2.462 5.5 5.5s-2.462 5.5-5.5 5.5zM16 13v1h7v-1h-7z"></path>
</svg>
