<!-- Generated by IcoMoon.io -->
<svg version="1.1" xmlns="http://www.w3.org/2000/svg" width="32" height="32" viewBox="0 0 32 32">
<title>book-bookmark</title>
<path d="M26 29v-21h-0.505c-0.826 0-1.495-0.666-1.495-1.5 0-0.828 0.677-1.5 1.495-1.5h0.505v-1h-17.507c-1.377 0-2.493 1.11-2.493 2.5v19.501c0 1.657 1.343 2.999 2.994 2.999h17.006zM25 9v19h-14v-19h4v11l3-3 3 3v-11h4zM10 28h-1.005c-1.102 0-1.995-0.891-1.995-1.991v-17.507c0.416 0.313 0.933 0.498 1.493 0.498h1.507v19zM8.493 5h15.007c0 0-0.5 0.737-0.5 1.474s0.5 1.526 0.5 1.526h-15.007c-0.826 0-1.493-0.672-1.493-1.5 0-0.834 0.669-1.5 1.493-1.5zM16 9h4v8.6l-2-2-2 2v-8.6z"></path>
</svg>
