<!-- Generated by IcoMoon.io -->
<svg version="1.1" xmlns="http://www.w3.org/2000/svg" width="32" height="32" viewBox="0 0 32 32">
<title>bowling-pin-ball</title>
<path d="M14.039 25.717v0 0c-0.654-0.905-1.039-2.016-1.039-3.217 0-1.582 0.668-3.008 1.738-4.012-0.334-1.572-0.917-2.78-1.324-3.488h-2.838c-0.598 1.046-1.576 3.183-1.576 5.976 0 3.524 1.6 6.024 1.6 6.024h2.8c0 0 0.299-0.467 0.639-1.283zM14.769 26.541c-0.412 0.922-0.769 1.459-0.769 1.459h-4c0 0-2-3-2-7.024s2-6.976 2-6.976v-2c0-2-1-3-1-4.5 0-1.112 1-2.5 3-2.5s3 1.395 3 2.5c0 1.5-1 2.5-1 4.5v2c0 0 1.018 1.504 1.601 3.825 0.842-0.523 1.835-0.825 2.899-0.825 3.038 0 5.5 2.462 5.5 5.5s-2.462 5.5-5.5 5.5c-1.44 0-2.75-0.553-3.731-1.459v0 0zM11.025 14h1.938l0.037-2h-2l0.025 2zM10.939 11h2.122c0.218-1.661 0.938-2.226 0.938-3.5 0-1.105-0.951-1.52-2-1.52s-2 0.408-2 1.52c0 1.275 0.723 1.828 0.939 3.5zM18.5 27c2.485 0 4.5-2.015 4.5-4.5s-2.015-4.5-4.5-4.5c-2.485 0-4.5 2.015-4.5 4.5s2.015 4.5 4.5 4.5v0zM18.5 20c0.276 0 0.5-0.224 0.5-0.5s-0.224-0.5-0.5-0.5c-0.276 0-0.5 0.224-0.5 0.5s0.224 0.5 0.5 0.5v0zM17.5 22c0.276 0 0.5-0.224 0.5-0.5s-0.224-0.5-0.5-0.5c-0.276 0-0.5 0.224-0.5 0.5s0.224 0.5 0.5 0.5v0zM19.5 22c0.276 0 0.5-0.224 0.5-0.5s-0.224-0.5-0.5-0.5c-0.276 0-0.5 0.224-0.5 0.5s0.224 0.5 0.5 0.5v0z"></path>
</svg>
