<!-- Generated by IcoMoon.io -->
<svg version="1.1" xmlns="http://www.w3.org/2000/svg" width="32" height="32" viewBox="0 0 32 32">
<title>bowling-pins1</title>
<path d="M20 14v-2h4v2h-4zM19.439 15c-0.592 1.193-1.439 3.357-1.439 5.976 0 4.024 2 7.024 2 7.024h4c0 0 2-3.003 2-7.024 0-2.617-0.847-4.783-1.439-5.976h-5.122zM19.913 11c-0.243-1.38-0.913-2.273-0.913-3.5 0-1.112 1-2.5 3-2.5s3 1.395 3 2.5c0 1.227-0.67 2.12-0.913 3.5h-4.174zM8 14v-2h4v2h-4zM7.439 15c-0.592 1.193-1.439 3.357-1.439 5.976 0 4.024 2 7.024 2 7.024h4c0 0 2-3.003 2-7.024 0-2.617-0.847-4.783-1.439-5.976h-5.122zM7.913 11c-0.243-1.38-0.913-2.273-0.913-3.5 0-1.112 1-2.5 3-2.5s3 1.395 3 2.5c0 1.227-0.67 2.12-0.913 3.5h-4.174z"></path>
</svg>
