<!-- Generated by IcoMoon.io -->
<svg version="1.1" xmlns="http://www.w3.org/2000/svg" width="32" height="32" viewBox="0 0 32 32">
<title>bowling-pins</title>
<path d="M21.025 14h1.938l0.037-2h-2l0.025 2zM20.576 15c-0.598 1.046-1.576 3.183-1.576 5.976 0 3.524 1.6 6.024 1.6 6.024h2.8c0 0 1.6-2.499 1.6-6.024 0-2.792-0.985-4.93-1.587-5.976h-2.838zM20.939 11h2.122c0.218-1.661 0.939-2.226 0.939-3.5 0-1.105-0.951-1.52-2-1.52s-2 0.408-2 1.52c0 1.275 0.723 1.828 0.939 3.5zM9.025 14h1.938l0.037-2h-2l0.025 2zM8.576 15c-0.598 1.046-1.576 3.183-1.576 5.976 0 3.524 1.6 6.024 1.6 6.024h2.8c0 0 1.6-2.499 1.6-6.024 0-2.792-0.985-4.93-1.587-5.976h-2.838zM8.939 11h2.122c0.218-1.661 0.938-2.226 0.938-3.5 0-1.105-0.951-1.52-2-1.52s-2 0.408-2 1.52c0 1.275 0.723 1.828 0.939 3.5zM14 20.976c0 4.021-2 7.024-2 7.024h-4c0 0-2-3-2-7.024s2-6.976 2-6.976v-2c0-2-1-3-1-4.5 0-1.112 1-2.5 3-2.5s3 1.395 3 2.5c0 1.5-1 2.5-1 4.5v2c0 0 2 2.955 2 6.976v0zM26 20.976c0 4.021-2 7.024-2 7.024h-4c0 0-2-3-2-7.024s2-6.976 2-6.976v-2c0-2-1-3-1-4.5 0-1.112 1-2.5 3-2.5s3 1.395 3 2.5c0 1.5-1 2.5-1 4.5v2c0 0 2 2.955 2 6.976v0z"></path>
</svg>
