<!-- Generated by IcoMoon.io -->
<svg version="1.1" xmlns="http://www.w3.org/2000/svg" width="32" height="32" viewBox="0 0 32 32">
<title>bowling-pin-ball1</title>
<path d="M14.311 27.47c-0.187 0.343-0.311 0.53-0.311 0.53h-4c0 0-2-3-2-7.024 0-2.619 0.847-4.783 1.439-5.976v0h5.122c0.233 0.471 0.507 1.092 0.752 1.834-1.977 1.115-3.313 3.235-3.313 5.666 0 1.994 0.898 3.778 2.311 4.97v0 0zM10 14v-2h4v2h-4zM9.913 11c-0.243-1.38-0.913-2.273-0.913-3.5 0-1.112 1-2.5 3-2.5s3 1.395 3 2.5c0 1.227-0.67 2.12-0.913 3.5h-4.174zM18.5 28v0c-3.038 0-5.5-2.462-5.5-5.5s2.462-5.5 5.5-5.5c3.038 0 5.5 2.462 5.5 5.5s-2.462 5.5-5.5 5.5zM18.5 20c0.276 0 0.5-0.224 0.5-0.5s-0.224-0.5-0.5-0.5c-0.276 0-0.5 0.224-0.5 0.5s0.224 0.5 0.5 0.5v0zM17.5 22c0.276 0 0.5-0.224 0.5-0.5s-0.224-0.5-0.5-0.5c-0.276 0-0.5 0.224-0.5 0.5s0.224 0.5 0.5 0.5v0zM19.5 22c0.276 0 0.5-0.224 0.5-0.5s-0.224-0.5-0.5-0.5c-0.276 0-0.5 0.224-0.5 0.5s0.224 0.5 0.5 0.5v0z"></path>
</svg>
