<!-- Generated by IcoMoon.io -->
<svg version="1.1" xmlns="http://www.w3.org/2000/svg" width="32" height="32" viewBox="0 0 32 32">
<title>box5</title>
<path d="M3 10.5v-0.5l5-8h15l5 8v20h-25v-19.5zM4.225 10h22.55l-4.375-7h-13.8l-4.375 7zM4 15v14h23v-14h-23zM12.997 20h5.005c1.102 0 1.997 0.895 1.997 2 0 1.112-0.894 2-1.997 2h-5.005c-1.102 0-1.997-0.895-1.997-2 0-1.112 0.894-2 1.997-2zM13.003 21c-0.554 0-1.003 0.444-1.003 1 0 0.552 0.438 1 1.003 1h4.994c0.554 0 1.003-0.444 1.003-1 0-0.552-0.438-1-1.003-1h-4.994zM4 11v3h23v-3h-23z"></path>
</svg>
