<!-- Generated by IcoMoon.io -->
<svg version="1.1" xmlns="http://www.w3.org/2000/svg" width="32" height="32" viewBox="0 0 32 32">
<title>boxing-glove</title>
<path d="M12.983 13.048v0c0.040 0.014 0.084 0.030 0.13 0.046 0.367 0.128 0.769 0.256 1.191 0.375 0.722 0.204 1.427 0.361 2.083 0.453 0.414 0.058 0.799 0.088 1.151 0.088 0.915 0 1.864-0.188 2.787-0.501 0.325-0.11 0.623-0.228 0.886-0.346 0.156-0.069 0.264-0.122 0.316-0.15l0.468 0.884c-0.072 0.038-0.2 0.101-0.377 0.18-0.291 0.13-0.617 0.259-0.972 0.379-1.020 0.346-2.072 0.554-3.109 0.554-0.401 0-0.832-0.034-1.289-0.097-0.706-0.098-1.455-0.265-2.218-0.481-0.443-0.125-0.863-0.259-1.248-0.393-0.052-0.018-0.101-0.035-0.147-0.052-0.966-0.014-3.637 0.117-3.637 2.014 0 3.13 3 2.965 3.9 6h11.1v-10.005c0-2.759-2.239-4.995-5.001-4.995h-0.998c-2.762 0-5.007 2.234-5.015 4.994l-0.003 1.054zM12 23c0-3.076-3.991-3-4-7-0.007-3 4-3 4-3v-1.003c0-3.311 2.689-5.997 6.005-5.997h0.989c3.312 0 6.005 2.683 6.005 5.994v13.006c0 1.112-0.897 2-2.003 2h-8.994c-1.109 0-2.003-0.895-2.003-2v-2zM13 23v2.001c0 0.552 0.445 0.999 0.996 0.999h9.009c0.55 0 0.996-0.443 0.996-0.999v-2.001h-11zM14 24v1h4v-1h-4z"></path>
</svg>
