<!-- Generated by IcoMoon.io -->
<svg version="1.1" xmlns="http://www.w3.org/2000/svg" width="32" height="32" viewBox="0 0 32 32">
<title>boxing-glove1</title>
<path d="M8 16c0.008 3.511 3.084 3.881 3.836 6h13.164v-10.006c0-3.31-2.694-5.994-6.005-5.994h-0.989c-3.317 0-6.005 2.686-6.005 5.997v0.584c0.483 0.241 0.849 0.419 0.885 0.432 1.545 0.561 3.268 0.996 4.653 0.996 0.915 0 1.864-0.188 2.787-0.501 0.325-0.11 0.623-0.228 0.886-0.346 0.156-0.069 0.264-0.122 0.316-0.15l0.468 0.884c-0.072 0.038-0.2 0.101-0.377 0.18-0.291 0.13-0.617 0.259-0.972 0.379-1.020 0.346-2.072 0.554-3.109 0.554-1.533 0-3.347-0.458-4.995-1.057-0.095-0.034-0.418-0.192-1.005-0.484-0.227-0.113-0.45-0.225-0.671-0.336-1.189 0.238-2.872 0.922-2.868 2.867v0zM12 23h13v2c0 1.112-0.897 2-2.003 2h-8.994c-1.109 0-2.003-0.895-2.003-2v-2zM14 24v1h4v-1h-4z"></path>
</svg>
