<!-- Generated by IcoMoon.io -->
<svg version="1.1" xmlns="http://www.w3.org/2000/svg" width="20" height="20" viewBox="0 0 20 20">
<title>buoy</title>
<path d="M17.16 6.42c-0.791-1.555-2.025-2.789-3.535-3.559l-0.045-0.021-1.34 2.69c0.968 0.494 1.736 1.262 2.217 2.202l0.013 0.028 2.69-1.34zM17.16 13.58l-2.69-1.34c-0.494 0.968-1.262 1.736-2.202 2.217l-0.028 0.013 1.34 2.69c1.555-0.791 2.789-2.025 3.559-3.535l0.021-0.045zM6.42 2.84c-1.555 0.791-2.789 2.025-3.559 3.535l-0.021 0.045 2.69 1.34c0.494-0.968 1.262-1.736 2.202-2.217l0.028-0.013-1.34-2.69zM2.84 13.58c0.791 1.555 2.025 2.789 3.535 3.559l0.045 0.021 1.34-2.69c-0.968-0.494-1.736-1.262-2.217-2.202l-0.013-0.028-2.69 1.34zM10 20c-5.523 0-10-4.477-10-10s4.477-10 10-10v0c5.523 0 10 4.477 10 10s-4.477 10-10 10v0zM10 13c1.657 0 3-1.343 3-3s-1.343-3-3-3v0c-1.657 0-3 1.343-3 3s1.343 3 3 3v0z"></path>
</svg>
