<!-- Generated by IcoMoon.io -->
<svg version="1.1" xmlns="http://www.w3.org/2000/svg" width="32" height="32" viewBox="0 0 32 32">
<title>certificate1</title>
<path d="M13 19.95v0 0c0.619-0.631 1-1.496 1-2.45 0-1.933-1.567-3.5-3.5-3.5s-3.5 1.567-3.5 3.5c0 0.954 0.381 1.818 1 2.45v3.050h-1.995c-1.108 0-2.005-0.895-2.005-2v-13c0-1.11 0.898-2 2.005-2h19.99c1.108 0 2.005 0.895 2.005 2v13c0 1.11-0.898 2-2.005 2h-12.995v-3.050zM9 20.663v4.937l1.5-1.5 1.5 1.5v-4.937c-0.455 0.216-0.963 0.337-1.5 0.337s-1.045-0.121-1.5-0.337v0 0zM7 11v1h18v-1h-18zM16 14v1h9v-1h-9zM19 17v1h6v-1h-6zM10.5 20c1.381 0 2.5-1.119 2.5-2.5s-1.119-2.5-2.5-2.5c-1.381 0-2.5 1.119-2.5 2.5s1.119 2.5 2.5 2.5v0z"></path>
</svg>
