<!-- Generated by IcoMoon.io -->
<svg version="1.1" xmlns="http://www.w3.org/2000/svg" width="20" height="20" viewBox="0 0 20 20">
<title>chart</title>
<path d="M4.13 12h-0.13c-1.101 0.005-1.991 0.899-1.991 2 0 1.105 0.895 2 2 2s2-0.895 2-2c0-0.324-0.077-0.631-0.214-0.901l0.005 0.011 2.060-3.11c0.033 0.002 0.072 0.003 0.11 0.003 0.192 0 0.378-0.027 0.554-0.076l-0.014 0.003 1.55 1.55c-0.044 0.157-0.070 0.337-0.070 0.523 0 1.105 0.895 2 2 2s2-0.895 2-2c0-0.325-0.078-0.633-0.216-0.904l0.005 0.011 2.090-3.11h0.13c1.101-0.005 1.991-0.899 1.991-2 0-1.105-0.895-2-2-2s-2 0.895-2 2c0 0.324 0.077 0.631 0.214 0.901l-0.005-0.011-2.060 3.11c-0.033-0.002-0.072-0.003-0.11-0.003-0.192 0-0.378 0.027-0.554 0.076l0.014-0.003-1.56-1.55c0.044-0.157 0.070-0.337 0.070-0.523 0-1.105-0.895-2-2-2s-2 0.895-2 2c0 0.325 0.078 0.633 0.216 0.904l-0.005-0.011-2.080 3.11zM0 4c0-1.1 0.9-2 2-2h16c1.105 0 2 0.895 2 2v0 12c0 1.105-0.895 2-2 2v0h-16c-1.105 0-2-0.895-2-2v0-12z"></path>
</svg>
