<!-- Generated by IcoMoon.io -->
<svg version="1.1" xmlns="http://www.w3.org/2000/svg" width="32" height="32" viewBox="0 0 32 32">
<title>checkered-flag</title>
<path d="M24.018 17.417c0 0-1.806 0.915-4.609 0.46-0.194-0.032-0.474-0.097-0.408-0.083v-3.995c-0.805-0.145-1.67-0.395-2.566-0.799-0.868-0.391-1.684-0.644-2.434-0.798v3.978c0.104 0.018-0.134-0.005-0.364-0.037-2.602-0.369-4.636 0.29-4.636 0.29v-4.020c0-0 2.228-0.727 5-0.232v-3.978c-3.039-0.626-5 0.368-5 0.368v-3.975c0 0 1.96-0.986 5-0.366v3.952c0.801 0.143 1.648 0.388 2.5 0.782 0.891 0.412 1.73 0.675 2.5 0.833v-3.98c2.898 0.52 5.018-0.319 5.018-0.319v4.040c-0.011-0.038-0.018-0.059-0.018-0.059s-2.112 0.843-5 0.324v3.995c0.71 0.145 1.361 0.201 1.944 0.201 1.899 0 3.056-0.591 3.056-0.591l0.018 4.013zM8 28.994h1v-11.455c1.377-0.495 4.081-1.034 7.5 0.455 5.023 2.187 8.5 0 8.5 0v-14c0 0-3.476 2.236-8.5 0s-8.5 0-8.5 0v25z"></path>
</svg>
