<!-- Generated by IcoMoon.io -->
<svg version="1.1" xmlns="http://www.w3.org/2000/svg" width="32" height="32" viewBox="0 0 32 32">
<title>checkered-flag1</title>
<path d="M19 5.813v3.98c3.024 0.618 5-0.39 5-0.39l0.018-0.014v4.086h-0.018c-0 0-2.112 0.843-5 0.324v4.004c-0.768-0.157-1.604-0.417-2.491-0.825-0.855-0.392-1.705-0.636-2.509-0.778v-3.999c-3.039-0.626-5 0.368-5 0.368v-4.157c0-0 2.228-0.727 5-0.232v-3.952c0.752 0.153 1.571 0.405 2.443 0.794 0.893 0.399 1.755 0.647 2.558 0.791zM8 11.994v17h1v-11.455c1.377-0.495 4.081-1.034 7.5 0.455 5.023 2.187 8.5 0 8.5 0v-14c0 0-3.476 2.236-8.5 0s-8.5 0-8.5 0v8zM14 8.201v0 0c0.75 0.154 1.566 0.408 2.434 0.798 0.896 0.404 1.761 0.654 2.566 0.799v3.995c-0.77-0.157-1.609-0.421-2.5-0.833-0.852-0.394-1.699-0.639-2.5-0.782v-3.978z"></path>
</svg>
