<!-- Generated by IcoMoon.io -->
<svg version="1.1" xmlns="http://www.w3.org/2000/svg" width="32" height="32" viewBox="0 0 32 32">
<title>clouds3</title>
<path d="M27.194 19.995c2.115-0.106 3.806-1.854 3.806-3.995 0-1.901-1.334-3.497-3.121-3.901 0.079-0.354 0.121-0.721 0.121-1.099 0-2.761-2.239-5-5-5-1.868 0-3.497 1.025-4.356 2.543-0.637-0.346-1.368-0.543-2.144-0.543-1.728 0-3.229 0.974-3.983 2.404 1.293 0.428 2.44 1.177 3.346 2.153 0.806-0.358 1.698-0.557 2.637-0.557 3.347 0 6.102 2.529 6.461 5.78 0.927 0.527 1.699 1.293 2.234 2.215v0 0zM27 23c0 2.756-2.238 5-4.999 5h-17.001c-2.767 0-4.999-2.239-4.999-5 0-2.051 1.24-3.818 3.012-4.588-0.008-0.136-0.012-0.273-0.012-0.412 0-3.866 3.134-7 7-7 2.298 0 4.337 1.107 5.614 2.817 0.839-0.518 1.828-0.817 2.886-0.817 3.009 0 5.454 2.416 5.499 5.415 1.768 0.771 3.001 2.534 3.001 4.585v0z"></path>
</svg>
