<!-- Generated by IcoMoon.io -->
<svg version="1.1" xmlns="http://www.w3.org/2000/svg" width="32" height="32" viewBox="0 0 32 32">
<title>clouds2</title>
<path d="M26.002 20v0 0c0.627 0.836 0.998 1.874 0.998 3 0 2.756-2.238 5-4.999 5h-17.001c-2.767 0-4.999-2.239-4.999-5 0-2.051 1.24-3.818 3.012-4.588-0.008-0.136-0.012-0.273-0.012-0.412 0-3.866 3.134-7 7-7 0.751 0 1.474 0.118 2.152 0.337 0.513-1.922 2.265-3.337 4.348-3.337 0.776 0 1.507 0.197 2.144 0.543 0.858-1.518 2.487-2.543 4.356-2.543 2.761 0 5 2.239 5 5 0 0.377-0.042 0.745-0.121 1.099 1.787 0.404 3.121 2.001 3.121 3.901 0 2.209-1.8 4-4.010 4h-0.988zM25.003 19h2.003c1.651 0 2.994-1.343 2.994-3 0-1.653-1.341-3-2.994-3h-0.541c0.34-0.588 0.535-1.271 0.535-2 0-2.209-1.791-4-4-4-1.916 0-3.518 1.348-3.909 3.147-0.64-0.705-1.564-1.147-2.591-1.147-1.664 0-3.056 1.161-3.412 2.716 1 0.492 1.865 1.216 2.525 2.101 0.839-0.518 1.828-0.817 2.886-0.817 3.009 0 5.454 2.416 5.499 5.415 0.359 0.156 0.695 0.353 1.004 0.585v0 0zM1 23c0 2.209 1.798 4 4.003 4h16.994c2.211 0 4.003-1.795 4.003-4 0-1.877-1.299-3.453-3.042-3.884 0.028-0.202 0.042-0.407 0.042-0.616 0-2.485-2.015-4.5-4.5-4.5-1.226 0-2.337 0.49-3.148 1.285-0.991-1.949-3.015-3.285-5.352-3.285-3.314 0-6 2.686-6 6 0 0.377 0.035 0.745 0.101 1.102-1.776 0.41-3.101 2.002-3.101 3.898v0z"></path>
</svg>
