<!-- Generated by IcoMoon.io -->
<svg version="1.1" xmlns="http://www.w3.org/2000/svg" width="32" height="32" viewBox="0 0 32 32">
<title>cloud2</title>
<path d="M6.101 16.102c-1.776 0.41-3.101 2.002-3.101 3.898 0 2.209 1.798 4 4.003 4h16.994c2.211 0 4.003-1.795 4.003-4 0-1.868-1.285-3.437-3.016-3.877v0c-0.191-2.309-2.126-4.123-4.484-4.123-1.076 0-2.064 0.378-2.839 1.008-0.821-2.335-3.046-4.008-5.661-4.008-3.314 0-6 2.686-6 6 0 0.377 0.035 0.745 0.101 1.102v0zM25.883 15.366c1.83 0.743 3.117 2.538 3.117 4.634 0 2.756-2.238 5-4.999 5h-17.001c-2.767 0-4.999-2.239-4.999-5 0-2.051 1.24-3.818 3.012-4.588v0c-0.008-0.136-0.012-0.273-0.012-0.412 0-3.866 3.134-7 7-7 2.613 0 4.891 1.431 6.094 3.553 0.727-0.354 1.543-0.553 2.406-0.553 2.649 0 4.86 1.872 5.383 4.366v0 0z"></path>
</svg>
