<!-- Generated by IcoMoon.io -->
<svg version="1.1" xmlns="http://www.w3.org/2000/svg" width="20" height="20" viewBox="0 0 20 20">
<title>dashboard</title>
<path d="M10 20c-5.523 0-10-4.477-10-10s4.477-10 10-10v0c5.523 0 10 4.477 10 10s-4.477 10-10 10v0zM4.4 15.71c1.568-1.080 3.509-1.725 5.6-1.725s4.032 0.645 5.634 1.747l-0.034-0.022c1.482-1.453 2.4-3.476 2.4-5.713 0-4.418-3.582-8-8-8s-8 3.582-8 8c0 2.237 0.918 4.26 2.399 5.712l0.001 0.001zM10.52 8.070l3.020-3.020 1.41 1.41-3.020 3.020c0.044 0.156 0.069 0.336 0.069 0.521 0 1.105-0.895 2-2 2s-2-0.895-2-2c0-1.105 0.895-2 2-2 0.185 0 0.365 0.025 0.535 0.072l-0.014-0.003z"></path>
</svg>
