<!-- Generated by IcoMoon.io -->
<svg version="1.1" xmlns="http://www.w3.org/2000/svg" width="32" height="32" viewBox="0 0 32 32">
<title>degree-celsius1</title>
<path d="M26 20c-0.552 0-1 0.444-1 1-0.005 1.668-1.347 3-3.002 3h-1.997c-1.663 0-3.002-1.347-3.002-3.009v-9.981c0-1.673 1.344-3.009 3.002-3.009h1.997c1.659 0 2.997 1.342 3.002 3 0 0.552 0.444 1 1 1 0.552 0 1-0.444 1-1 0-2.764-2.229-5-5.002-5h-1.996c-2.763 0-5.002 2.236-5.002 4.995v10.009c0 2.759 2.229 4.995 5.002 4.995h1.996c2.763 0 5.002-2.236 5.002-4.995 0-0.557-0.444-1.005-1-1.005v0zM9 14v0 0c-2.209 0-4-1.791-4-4s1.791-4 4-4c2.209 0 4 1.791 4 4s-1.791 4-4 4zM9 12c1.105 0 2-0.895 2-2s-0.895-2-2-2c-1.105 0-2 0.895-2 2s0.895 2 2 2v0 0z"></path>
</svg>
