<!-- Generated by IcoMoon.io -->
<svg version="1.1" xmlns="http://www.w3.org/2000/svg" width="32" height="32" viewBox="0 0 32 32">
<title>degree-fahrenheit</title>
<path d="M9 14v0c-2.209 0-4-1.791-4-4s1.791-4 4-4c2.209 0 4 1.791 4 4s-1.791 4-4 4zM9 13c1.657 0 3-1.343 3-3s-1.343-3-3-3c-1.657 0-3 1.343-3 3s1.343 3 3 3v0zM20.002 6c-2.763 0-5.002 2.236-5.002 4.995v14.51c0 0.273 0.232 0.494 0.5 0.494v0c0.276 0 0.5-0.228 0.5-0.51v-9.49h6.497c0.278 0 0.503-0.232 0.503-0.5v0c0-0.276-0.233-0.5-0.503-0.5h-6.497v-4c0-2.209 1.792-4 4.002-4h6.496c0.277 0 0.501-0.232 0.501-0.5v0c0-0.276-0.229-0.5-0.5-0.5h-6.497z"></path>
</svg>
