<!-- Generated by IcoMoon.io -->
<svg version="1.1" xmlns="http://www.w3.org/2000/svg" width="32" height="32" viewBox="0 0 32 32">
<title>degree-celsius</title>
<path d="M26 11.5c0 0.276 0.232 0.5 0.5 0.5 0.276 0 0.5-0.232 0.5-0.5v-0.505c0-2.759-2.229-4.995-5.002-4.995h-1.996c-2.763 0-5.002 2.236-5.002 4.995v10.010c0 2.759 2.229 4.995 5.002 4.995h1.996c2.763 0 5.002-2.236 5.002-4.995v-0.505c0-0.276-0.232-0.5-0.5-0.5-0.276 0-0.5 0.232-0.5 0.5v0.505c0 2.203-1.795 3.995-4.010 3.995h-1.98c-2.222 0-4.010-1.789-4.010-3.995v-10.010c0-2.203 1.795-3.995 4.010-3.995h1.98c2.222 0 4.010 1.789 4.010 3.995v0.505zM9 14v0c-2.209 0-4-1.791-4-4s1.791-4 4-4c2.209 0 4 1.791 4 4s-1.791 4-4 4zM9 13c1.657 0 3-1.343 3-3s-1.343-3-3-3c-1.657 0-3 1.343-3 3s1.343 3 3 3v0z"></path>
</svg>
