<!-- Generated by IcoMoon.io -->
<svg version="1.1" xmlns="http://www.w3.org/2000/svg" width="32" height="32" viewBox="0 0 32 32">
<title>degree-fahrenheit1</title>
<path d="M9 14v0c-2.209 0-4-1.791-4-4s1.791-4 4-4c2.209 0 4 1.791 4 4s-1.791 4-4 4zM9 12c1.105 0 2-0.895 2-2s-0.895-2-2-2c-1.105 0-2 0.895-2 2s0.895 2 2 2v0zM20.002 6c-2.763 0-5.002 2.236-5.002 4.995v14.013c0 0.548 0.444 0.992 1 0.992v0c0.552 0 1-0.446 1-0.998v-8.002h5.009c0.547 0 0.991-0.444 0.991-1v0c0-0.552-0.451-1-0.991-1h-5.009v-3.991c0-1.662 1.349-3.009 3-3.009h6.004c0.55 0 0.995-0.444 0.995-1v0c0-0.552-0.456-1-1.002-1h-5.995z"></path>
</svg>
