<!-- Generated by IcoMoon.io -->
<svg version="1.1" xmlns="http://www.w3.org/2000/svg" width="32" height="32" viewBox="0 0 32 32">
<title>diving-goggles1</title>
<path d="M16 21h2v-3h-7v3h2c0 3.866 0 0 0 0 0 4.418 3.591 8 8 8 4.418 0 8-3.582 8-7.996v-17.004h-3v17.008c0 2.757-2.244 4.992-5 4.992-2.761 0-5-2.246-5-5 0 0 0 1.975 0 0v0zM27 9v-4h1v4h-1zM4 11.5v0.499c0 2.762 2.234 5.001 4.994 5.001h1.003c0.554 0 1.255-0.36 1.581-0.826l1.776-2.537c0.633-0.904 1.661-0.899 2.288 0l1.769 2.537c0.318 0.456 1.015 0.826 1.581 0.826h1.005c2.763 0 5.003-2.239 5.003-5.001v-0.499c0-3.038-2.471-5.5-5.49-5.5h-10.020c-3.032 0-5.49 2.469-5.49 5.5v0zM19.51 7c2.471 0 4.49 2.019 4.49 4.5v0.499c0 2.21-1.792 4.001-4.003 4.001h-1.005c-0.234 0-0.627-0.206-0.76-0.398l-1.769-2.537c-1.026-1.471-2.897-1.474-3.927-0.001l-1.776 2.537c-0.136 0.195-0.529 0.399-0.762 0.399h-1.003c-2.207 0-3.994-1.79-3.994-4.001v-0.499c0-2.482 2.013-4.5 4.49-4.5h10.020zM19.51 8c1.919 0 3.49 1.565 3.49 3.485v0.497c0 1.65-1.345 2.988-3.003 2.988h-1.005c0.093 0 0.007-0.045 0.060 0.030l-1.769-2.526c-1.423-2.032-4.138-2.036-5.567-0.003l-1.776 2.526c0.051-0.072-0.036-0.027 0.058-0.027h-1.003c-1.654 0-2.994-1.336-2.994-2.988v-0.497c0-1.922 1.566-3.485 3.49-3.485h10.020z"></path>
</svg>
