<!-- Generated by IcoMoon.io -->
<svg version="1.1" xmlns="http://www.w3.org/2000/svg" width="32" height="32" viewBox="0 0 32 32">
<title>diving-goggles</title>
<path d="M16 21v0c0 1.975 0 0 0 0 0 2.754 2.239 5 5 5 2.756 0 5-2.235 5-4.992v-17.008h3v17.004c0 4.414-3.582 7.996-8 7.996-4.409 0-8-3.582-8-8 0 0 0 3.866 0 0h-2v-3h7v3h-2zM27 21.006c0 3.31-2.693 5.994-6 5.994-3.314 0-6-2.686-6-5.997v-1.003h2v-1h-5v1h2v0.997c0 3.868 3.131 7.003 7 7.003 0 0-2.879 0 0 0 3.866 0 7-3.135 7-6.998v-11.002h-1v11.006zM27 9h1v-4h-1v4zM4 11.5v0.499c0 2.762 2.234 5.001 4.994 5.001h1.003c0.554 0 1.255-0.36 1.581-0.826l1.776-2.537c0.633-0.904 1.661-0.899 2.288 0l1.769 2.537c0.318 0.456 1.015 0.826 1.581 0.826h1.005c2.763 0 5.003-2.239 5.003-5.001v-0.499c0-3.038-2.471-5.5-5.49-5.5h-10.020c-3.032 0-5.49 2.469-5.49 5.5v0zM19.51 7c2.471 0 4.49 2.019 4.49 4.5v0.499c0 2.21-1.792 4.001-4.003 4.001h-1.005c-0.234 0-0.627-0.206-0.76-0.398l-1.769-2.537c-1.026-1.471-2.897-1.474-3.927-0.001l-1.776 2.537c-0.136 0.195-0.529 0.399-0.762 0.399h-1.003c-2.207 0-3.994-1.79-3.994-4.001v-0.499c0-2.482 2.013-4.5 4.49-4.5h10.020z"></path>
</svg>
