<!-- Generated by IcoMoon.io -->
<svg version="1.1" xmlns="http://www.w3.org/2000/svg" width="32" height="32" viewBox="0 0 32 32">
<title>documents2</title>
<path d="M8.997 3c0.007-1.106 0.904-2 2.011-2h9.991v6.002c0 1.111 0.898 1.998 2.006 1.998h4.994v17.003c0 1.107-0.894 1.997-1.997 1.997-0.007 1.106-0.899 2-2 2-0.007 1.106-0.899 2-2 2h-15.005c-1.107 0-1.997-0.899-1.997-2.007v-22.985c0-1.109 0.894-2.007 1.997-2.007 0.003-1.102 0.897-2 2-2v0zM7 27.993l-0-21.993c-0.552 0-1 0.455-1 0.995v23.009c0 0.55 0.455 0.995 1 0.995h15c0.552 0 1-0.455 1-0.995l-14.003-0.005c-1.107 0-1.997-0.899-1.997-2.007zM8 4.995v23.009c0 0.55 0.455 0.995 1 0.995h15c0.552 0 1-0.455 1-0.995l-14.003-0.005c-1.107 0-1.997-0.899-1.997-2.007v-21.993c-0.552 0-1 0.455-1 0.995v0zM22 1v5.997c0 0.554 0.451 1.003 0.991 1.003h5.009l-6-7z"></path>
</svg>
