<!-- Generated by IcoMoon.io -->
<svg version="1.1" xmlns="http://www.w3.org/2000/svg" width="32" height="32" viewBox="0 0 32 32">
<title>document-error</title>
<path d="M24 25.923v-16.923l-6-7h-10.997c-1.106 0-2.003 0.898-2.003 2.007v22.985c0 1.109 0.891 2.007 1.997 2.007h8.184l-1.182 2h13l-3-5.077zM15.773 28h-8.773c-0.545 0-1-0.446-1-0.995v-23.009c0-0.54 0.446-0.995 0.996-0.995h10.004v4.994c0 1.119 0.895 2.006 1.998 2.006h4.002v14.231l-2.5-4.231-4.727 8zM18 3.5l4.7 5.5h-3.703c-0.546 0-0.997-0.452-0.997-1.009v-4.491zM20.5 22l4.75 8h-9.5l4.75-8zM20 24v3h1v-3h-1zM20 28v1h1v-1h-1z"></path>
</svg>
