<!-- Generated by IcoMoon.io -->
<svg version="1.1" xmlns="http://www.w3.org/2000/svg" width="32" height="32" viewBox="0 0 32 32">
<title>document-file-css1</title>
<path d="M21 26v2.003c0 1.107-0.894 1.997-1.997 1.997h-15.005c-1.107 0-1.997-0.899-1.997-2.007v-22.985c0-1.109 0.899-2.007 2.009-2.007h9.991v6.002c0 1.111 0.898 1.998 2.006 1.998h4.994v2h-8.993c-1.661 0-3.007 1.342-3.007 2.999v7.002c0 1.656 1.336 2.999 3.007 2.999h8.993zM15 3v5.997c0 0.554 0.451 1.003 0.991 1.003h5.009l-6-7zM11.995 14h17.011c1.092 0 1.995 0.892 1.995 1.992v7.016c0 1.092-0.893 1.992-1.995 1.992h-17.011c-1.092 0-1.995-0.892-1.995-1.992v-7.016c0-1.092 0.893-1.992 1.995-1.992zM17 21l-1 0c0 0.556-0.447 1-0.999 1h-1.002c-0.556 0-0.999-0.448-0.999-1v-3c0-0.556 0.447-1 0.999-1h1.002c0.556 0 0.999 0.448 0.999 1h1c-0.003-1.105-0.896-2-2.005-2h-0.99c-1.107 0-2.005 0.887-2.005 2.006v2.988c0 1.108 0.894 2.006 2.005 2.006h0.99c1.105 0 2.002-0.883 2.005-2zM20.005 16c-1.107 0-2.005 0.888-2.005 2 0 1.105 0.888 2 2 2h0.991c0.557 0 1.009 0.444 1.009 1 0 0.552-0.443 1-0.999 1h-1.002c-0.552 0-0.999-0.456-0.999-0.996v-0.011h-1v0.006c0 1.105 0.894 2.001 2.005 2.001h0.99c1.107 0 2.005-0.888 2.005-2 0-1.105-0.888-2-2-2h-0.991c-0.557 0-1.009-0.444-1.009-1 0-0.552 0.443-1 0.999-1h1.002c0.552 0 0.999 0.453 0.999 1h1c0-1.105-0.894-2-2.005-2h-0.99zM26.005 16c-1.107 0-2.005 0.888-2.005 2 0 1.105 0.888 2 2 2h0.991c0.557 0 1.009 0.444 1.009 1 0 0.552-0.443 1-0.999 1h-1.002c-0.552 0-0.999-0.456-0.999-0.996v-0.011h-1v0.006c0 1.105 0.894 2.001 2.005 2.001h0.99c1.107 0 2.005-0.888 2.005-2 0-1.105-0.888-2-2-2h-0.991c-0.557 0-1.009-0.444-1.009-1 0-0.552 0.443-1 0.999-1h1.002c0.552 0 0.999 0.453 0.999 1h1c0-1.105-0.894-2-2.005-2h-0.99z"></path>
</svg>
