<!-- Generated by IcoMoon.io -->
<svg version="1.1" xmlns="http://www.w3.org/2000/svg" width="32" height="32" viewBox="0 0 32 32">
<title>document-file-docx1</title>
<path d="M19 26v2.003c0 1.107-0.894 1.997-1.997 1.997h-15.005c-1.107 0-1.997-0.899-1.997-2.007v-22.985c0-1.109 0.899-2.007 2.009-2.007h9.991v6.002c0 1.111 0.898 1.998 2.006 1.998h4.994v2h-12.993c-1.661 0-3.007 1.342-3.007 2.999v7.002c0 1.656 1.336 2.999 3.007 2.999h12.993zM13 3v5.997c0 0.554 0.451 1.003 0.991 1.003h5.009l-6-7zM6.007 14h22.985c1.109 0 2.007 0.892 2.007 1.992v7.016c0 1.092-0.899 1.992-2.007 1.992h-22.985c-1.109 0-2.007-0.892-2.007-1.992v-7.016c0-1.092 0.899-1.992 2.007-1.992zM6 16v7h2.995c1.107 0 2.005-0.887 2.005-2.006v-2.988c0-1.108-0.894-2.006-2.005-2.006h-2.995zM7 17v5h2.001c0.552 0 0.999-0.444 0.999-1v-3c0-0.552-0.443-1-0.999-1h-2.001zM14.005 16c-1.107 0-2.005 0.887-2.005 2.006v2.988c0 1.108 0.894 2.006 2.005 2.006h0.99c1.107 0 2.005-0.887 2.005-2.006v-2.988c0-1.108-0.894-2.006-2.005-2.006h-0.99zM13.999 17c-0.552 0-0.999 0.444-0.999 1v3c0 0.552 0.443 1 0.999 1h1.002c0.552 0 0.999-0.444 0.999-1v-3c0-0.552-0.443-1-0.999-1h-1.002zM23 21l-1 0c0 0.556-0.447 1-0.999 1h-1.002c-0.556 0-0.999-0.448-0.999-1v-3c0-0.556 0.447-1 0.999-1h1.002c0.556 0 0.999 0.448 0.999 1h1c-0.003-1.105-0.896-2-2.005-2h-0.99c-1.107 0-2.005 0.887-2.005 2.006v2.988c0 1.108 0.894 2.006 2.005 2.006h0.99c1.105 0 2.002-0.883 2.005-2zM26 19.5l-2 3.5h1l1.5-2.625 1.5 2.625h1l-2-3.5 2-3.5h-1l-1.5 2.625-1.5-2.625h-1l2 3.5z"></path>
</svg>
