<!-- Generated by IcoMoon.io -->
<svg version="1.1" xmlns="http://www.w3.org/2000/svg" width="32" height="32" viewBox="0 0 32 32">
<title>document-locked1</title>
<path d="M24 10h-4.994c-1.108 0-2.006-0.887-2.006-1.998v-6.002h-9.991c-1.109 0-2.009 0.898-2.009 2.007v22.985c0 1.109 0.891 2.007 1.997 2.007h10.003v-4.498c0-0.654 0.417-1.208 1-1.415v-0.584c0-2.479 2.015-4.503 4.5-4.503 0.526 0 1.031 0.091 1.5 0.257v-8.257zM18 7.997c0 0.554 0.451 1.003 0.991 1.003h5.009l-6-7v5.997zM19 22.505l-0.002 1.495c-0.551 0-0.998 0.438-0.998 1.003v4.994c0 0.554 0.446 1.003 0.998 1.003h7.005c0.551 0 0.998-0.438 0.998-1.003v-4.994c0-0.554-0.446-1.003-1-1.003v-1.495c0-1.936-1.571-3.505-3.5-3.505-1.933 0-3.5 1.568-3.5 3.505zM20 22.509c0-1.397 1.119-2.509 2.5-2.509 1.39 0 2.5 1.123 2.5 2.509v1.491h-5v-1.491z"></path>
</svg>
