<!-- Generated by IcoMoon.io -->
<svg version="1.1" xmlns="http://www.w3.org/2000/svg" width="32" height="32" viewBox="0 0 32 32">
<title>document-time1</title>
<path d="M21.978 21h-4.978v-4.978c2.639 0.238 4.74 2.339 4.978 4.978zM21.978 22c-0.253 2.803-2.609 5-5.478 5-3.038 0-5.5-2.462-5.5-5.5 0-2.869 2.197-5.225 5-5.478v5.978h5.978zM19 3h-9.991c-1.109 0-2.009 0.898-2.009 2.007v22.985c0 1.109 0.891 2.007 1.997 2.007h15.005c1.103 0 1.997-0.891 1.997-1.997v-17.003h-4.994c-1.108 0-2.006-0.887-2.006-1.998v-6.002zM20 3v5.997c0 0.554 0.451 1.003 0.991 1.003h5.009l-6-7z"></path>
</svg>
