<!-- Generated by IcoMoon.io -->
<svg version="1.1" xmlns="http://www.w3.org/2000/svg" width="32" height="32" viewBox="0 0 32 32">
<title>document-certificate1</title>
<path d="M21 24.95v0 0c0.619-0.631 1-1.496 1-2.45 0-1.933-1.567-3.5-3.5-3.5s-3.5 1.567-3.5 3.5c0 0.954 0.381 1.818 1 2.45v2.050h-8.003c-1.107 0-1.997-0.899-1.997-2.007v-22.985c0-1.109 0.899-2.007 2.009-2.007h9.991v6.002c0 1.111 0.898 1.998 2.006 1.998h4.994v17.003c0 1.107-0.894 1.997-1.997 1.997h-2.003v-2.050zM17 25.663v4.937l1.5-1.5 1.5 1.5v-4.937c-0.455 0.216-0.963 0.337-1.5 0.337s-1.045-0.121-1.5-0.337v0 0zM19 0v5.997c0 0.554 0.451 1.003 0.991 1.003h5.009l-6-7zM9 7v1h7v-1h-7zM9 4v1h7v-1h-7zM9 10v1h13v-1h-13zM9 13v1h13v-1h-13zM9 16v1h13v-1h-13zM18.5 25c1.381 0 2.5-1.119 2.5-2.5s-1.119-2.5-2.5-2.5c-1.381 0-2.5 1.119-2.5 2.5s1.119 2.5 2.5 2.5v0z"></path>
</svg>
