<!-- Generated by IcoMoon.io -->
<svg version="1.1" xmlns="http://www.w3.org/2000/svg" width="32" height="32" viewBox="0 0 32 32">
<title>document-scan</title>
<path d="M22 29h-2v-1h2v1zM23 29h1.003c1.103 0 1.997-0.898 1.997-1.991v-1.009h-1v1.007c0 0.548-0.448 0.993-1 0.993h-1v1zM19 29h-2v-1h2v1zM16 29h-2v-1h2v1zM13 29h-2v-1h2v1zM10 29h-1.003c-1.107 0-1.997-0.899-1.997-2.007v-0.993h1v1.005c0 0.55 0.455 0.995 1 0.995h1v1zM26 25v-2h-1v2h1zM7 25v-2h1v2h-1zM26 22v-2h-1v2h1zM7 22v-2h1v2h-1zM27 18v-2h1v5h-1v-2h-21v2h-1v-5h1v2h21zM26 17h-1v-7h-4.002c-1.103 0-1.998-0.887-1.998-2.006v-4.994h-10.004c-0.55 0-0.996 0.455-0.996 0.995v13.005h-1v-12.993c0-1.109 0.897-2.007 2.003-2.007h10.997l6 7v8zM20 3.5v4.491c0 0.557 0.451 1.009 0.997 1.009h3.703l-4.7-5.5z"></path>
</svg>
