<!-- Generated by IcoMoon.io -->
<svg version="1.1" xmlns="http://www.w3.org/2000/svg" width="32" height="32" viewBox="0 0 32 32">
<title>document-graph1</title>
<path d="M19 3h-9.991c-1.109 0-2.009 0.898-2.009 2.007v22.985c0 1.109 0.891 2.007 1.997 2.007h15.005c1.103 0 1.997-0.891 1.997-1.997v-17.003h-4.994c-1.108 0-2.006-0.887-2.006-1.998v-6.002zM20 3v5.997c0 0.554 0.451 1.003 0.991 1.003h5.009l-6-7zM14.959 21.801l-2.959 3.174v0.025h10v1h-11v-8h1v5.509l2.91-3.121 2.194 2.046 3.202-3.434h-1.306v-1h3v3h-1v-1.277l-3.847 4.125-2.194-2.046z"></path>
</svg>
