<!-- Generated by IcoMoon.io -->
<svg version="1.1" xmlns="http://www.w3.org/2000/svg" width="32" height="32" viewBox="0 0 32 32">
<title>document-font</title>
<path d="M22 25.5c-0.418 0.314-0.937 0.5-1.5 0.5-1.381 0-2.5-1.119-2.5-2.5s1.119-2.5 2.5-2.5c0.563 0 1.082 0.186 1.5 0.5v-0.5h1v5h-1v-0.5zM14.929 23h-2.857l-1.071 3h-1l3-8h1l3 8h-1l-1.071-3zM14.571 22l-1.071-3-1.071 3h2.143zM19.5 3h0.5l6 7v18.009c0 1.093-0.894 1.991-1.997 1.991h-15.005c-1.107 0-1.997-0.899-1.997-2.007v-22.985c0-1.109 0.897-2.007 2.003-2.007h10.497zM19 4h-10.004c-0.55 0-0.996 0.455-0.996 0.995v23.009c0 0.55 0.455 0.995 1 0.995h15c0.552 0 1-0.445 1-0.993v-17.007h-4.002c-1.103 0-1.998-0.887-1.998-2.006v-4.994zM20 4.5v4.491c0 0.557 0.451 1.009 0.997 1.009h3.703l-4.7-5.5zM20.5 25c0.828 0 1.5-0.672 1.5-1.5s-0.672-1.5-1.5-1.5c-0.828 0-1.5 0.672-1.5 1.5s0.672 1.5 1.5 1.5v0z"></path>
</svg>
