<!-- Generated by IcoMoon.io -->
<svg version="1.1" xmlns="http://www.w3.org/2000/svg" width="32" height="32" viewBox="0 0 32 32">
<title>document-file-sql1</title>
<path d="M21 26v2.003c0 1.107-0.894 1.997-1.997 1.997h-15.005c-1.107 0-1.997-0.899-1.997-2.007v-22.985c0-1.109 0.899-2.007 2.009-2.007h9.991v6.002c0 1.111 0.898 1.998 2.006 1.998h4.994v2h-9.993c-1.661 0-3.007 1.342-3.007 2.999v7.002c0 1.656 1.336 2.999 3.007 2.999h9.993zM15 3v5.997c0 0.554 0.451 1.003 0.991 1.003h5.009l-6-7zM10.995 14c-1.102 0-1.995 0.9-1.995 1.992v7.016c0 1.1 0.902 1.992 1.995 1.992h17.011c1.102 0 1.995-0.9 1.995-1.992v-7.016c0-1.1-0.902-1.992-1.995-1.992h-17.011zM20.676 22.883c-0.212 0.076-0.442 0.117-0.681 0.117h-0.99c-1.111 0-2.005-0.898-2.005-2.006v-2.988c0-1.119 0.898-2.006 2.005-2.006h0.99c1.111 0 2.005 0.898 2.005 2.006v2.988c0 0.505-0.183 0.963-0.485 1.313l0.753 0.753-0.707 0.707-0.885-0.885zM19.793 22h-0.794c-0.556 0-0.999-0.448-0.999-1v-3c0-0.556 0.447-1 0.999-1h1.002c0.556 0 0.999 0.448 0.999 1v3c0 0.224-0.073 0.431-0.196 0.597l-1.365-1.365-0.707 0.707 1.061 1.061zM13.005 16h0.99c1.111 0 2.005 0.895 2.005 2h-1c0-0.547-0.447-1-0.999-1h-1.002c-0.556 0-0.999 0.448-0.999 1 0 0.556 0.452 1 1.009 1h0.991c1.112 0 2 0.895 2 2 0 1.112-0.898 2-2.005 2h-0.99c-1.111 0-2.005-0.896-2.005-2.001v-0.006h1v0.011c0 0.539 0.447 0.996 0.999 0.996h1.002c0.556 0 0.999-0.448 0.999-1 0-0.556-0.452-1-1.009-1h-0.991c-1.112 0-2-0.895-2-2 0-1.112 0.898-2 2.005-2zM28 22v1h-5v-7h1v6h4z"></path>
</svg>
