<!-- Generated by IcoMoon.io -->
<svg version="1.1" xmlns="http://www.w3.org/2000/svg" width="32" height="32" viewBox="0 0 32 32">
<title>document-file-dxf</title>
<path d="M21 13v-3l-6-7h-10.997c-1.106 0-2.003 0.898-2.003 2.007v22.985c0 1.109 0.891 2.007 1.997 2.007h15.005c1.103 0 1.997-0.898 1.997-1.991v-2.009h7.993c1.661 0 3.007-1.342 3.007-2.999v-7.002c0-1.656-1.336-2.999-3.007-2.999h-7.993zM20 26v2.007c0 0.548-0.448 0.993-1 0.993h-15c-0.545 0-1-0.446-1-0.995v-23.009c0-0.54 0.446-0.995 0.996-0.995h10.004v4.994c0 1.119 0.895 2.006 1.998 2.006h4.002v2h-7.993c-1.661 0-3.007 1.342-3.007 2.999v7.002c0 1.656 1.336 2.999 3.007 2.999h7.993zM15 4.5l4.7 5.5h-3.703c-0.546 0-0.997-0.452-0.997-1.009v-4.491zM11.995 14h17.011c1.092 0 1.995 0.892 1.995 1.992v7.016c0 1.092-0.893 1.992-1.995 1.992h-17.011c-1.092 0-1.995-0.892-1.995-1.992v-7.016c0-1.092 0.893-1.992 1.995-1.992zM20 19.5l-2-3.5h1l1.5 2.625 1.5-2.625h1l-2 3.5 2 3.5h-1l-1.5-2.625-1.5 2.625h-1l2-3.5zM12 16h2.995c1.111 0 2.005 0.898 2.005 2.006v2.988c0 1.119-0.898 2.006-2.005 2.006h-2.995v-7zM13 17v5h2.001c0.552 0 0.999-0.444 0.999-1v-3c0-0.552-0.443-1-0.999-1h-2.001zM25 19v-2h4v-1h-5v7h1v-3h3v-1h-3z"></path>
</svg>
