<!-- Generated by IcoMoon.io -->
<svg version="1.1" xmlns="http://www.w3.org/2000/svg" width="32" height="32" viewBox="0 0 32 32">
<title>documents3</title>
<path d="M23 12.5v13.5h4c0.552 0 1-0.445 1-0.993v-17.007h-4.002c-1.103 0-1.998-0.887-1.998-2.006v-4.994h-10.004c-0.55 0-0.996 0.455-0.996 0.995v3.005h6l6 7v0.5zM10 5v-2.993c0-1.109 0.897-2.007 2.003-2.007h10.997l6 7v18.009c0 1.093-0.894 1.991-1.997 1.991h-4.003v3.009c0 1.093-0.894 1.991-1.997 1.991h-15.005c-1.107 0-1.997-0.899-1.997-2.007v-22.985c0-1.109 0.897-2.007 2.003-2.007h3.997zM23 1.5v4.491c0 0.557 0.451 1.009 0.997 1.009h3.703l-4.7-5.5zM16 6h-10.004c-0.55 0-0.996 0.455-0.996 0.995v23.009c0 0.55 0.455 0.995 1 0.995h15c0.552 0 1-0.445 1-0.993v-17.007h-4.002c-1.103 0-1.998-0.887-1.998-2.006v-4.994zM17 6.5v4.491c0 0.557 0.451 1.009 0.997 1.009h3.703l-4.7-5.5z"></path>
</svg>
