<!-- Generated by IcoMoon.io -->
<svg version="1.1" xmlns="http://www.w3.org/2000/svg" width="32" height="32" viewBox="0 0 32 32">
<title>document-search1</title>
<path d="M17.309 22.016c-0.77 0.616-1.746 0.984-2.809 0.984-2.485 0-4.5-2.015-4.5-4.5s2.015-4.5 4.5-4.5c2.485 0 4.5 2.015 4.5 4.5 0 1.063-0.368 2.039-0.984 2.809l5.348 5.348-0.707 0.707-5.348-5.348zM19 3h-9.991c-1.109 0-2.009 0.898-2.009 2.007v22.985c0 1.109 0.891 2.007 1.997 2.007h15.005c1.103 0 1.997-0.891 1.997-1.997v-17.003h-4.994c-1.108 0-2.006-0.887-2.006-1.998v-6.002zM20 3v5.997c0 0.554 0.451 1.003 0.991 1.003h5.009l-6-7zM14.5 22c1.933 0 3.5-1.567 3.5-3.5s-1.567-3.5-3.5-3.5c-1.933 0-3.5 1.567-3.5 3.5s1.567 3.5 3.5 3.5v0z"></path>
</svg>
