<!-- Generated by IcoMoon.io -->
<svg version="1.1" xmlns="http://www.w3.org/2000/svg" width="32" height="32" viewBox="0 0 32 32">
<title>document-unlocked1</title>
<path d="M24 10h-4.994c-1.108 0-2.006-0.887-2.006-1.998v-6.002h-9.991c-1.109 0-2.009 0.898-2.009 2.007v22.985c0 1.109 0.891 2.007 1.997 2.007h10.003v-4.002c0-0.745 0.402-1.389 1-1.733v-1.773c0-2.475 2.015-4.492 4.5-4.492 0.526 0 1.031 0.090 1.5 0.256v-7.256zM18 7.997c0 0.554 0.451 1.003 0.991 1.003h5.009l-6-7v5.997zM25.501 24h0.501c0.551 0 0.998 0.449 0.998 1.003v4.994c0 0.565-0.447 1.003-0.998 1.003h-7.005c-0.551 0-0.998-0.449-0.998-1.003v-4.994c0-0.565 0.447-1.003 1-1.003v-2.503c0-1.935 1.567-3.497 3.5-3.497 1.929 0 3.5 1.566 3.5 3.497v0.503h-1v-0.491c0-1.386-1.11-2.509-2.5-2.509-1.381 0-2.5 1.112-2.5 2.509v2.491h5.501z"></path>
</svg>
