<!-- Generated by IcoMoon.io -->
<svg version="1.1" xmlns="http://www.w3.org/2000/svg" width="32" height="32" viewBox="0 0 32 32">
<title>document-font1</title>
<path d="M22 25.5c-0.418 0.314-0.937 0.5-1.5 0.5-1.381 0-2.5-1.119-2.5-2.5s1.119-2.5 2.5-2.5c0.563 0 1.082 0.186 1.5 0.5v-0.5h1v5h-1v-0.5zM14.929 23h-2.857l-1.071 3h-1l3-8h1l3 8h-1l-1.071-3zM14.571 22l-1.071-3-1.071 3h2.143zM19 3h-9.991c-1.109 0-2.009 0.898-2.009 2.007v22.985c0 1.109 0.891 2.007 1.997 2.007h15.005c1.103 0 1.997-0.891 1.997-1.997v-17.003h-4.994c-1.108 0-2.006-0.887-2.006-1.998v-6.002zM20 3v5.997c0 0.554 0.451 1.003 0.991 1.003h5.009l-6-7zM20.5 25c0.828 0 1.5-0.672 1.5-1.5s-0.672-1.5-1.5-1.5c-0.828 0-1.5 0.672-1.5 1.5s0.672 1.5 1.5 1.5v0z"></path>
</svg>
