<!-- Generated by IcoMoon.io -->
<svg version="1.1" xmlns="http://www.w3.org/2000/svg" width="32" height="32" viewBox="0 0 32 32">
<title>document-file-dxf1</title>
<path d="M21 26v2.003c0 1.107-0.894 1.997-1.997 1.997h-15.005c-1.107 0-1.997-0.899-1.997-2.007v-22.985c0-1.109 0.899-2.007 2.009-2.007h9.991v6.002c0 1.111 0.898 1.998 2.006 1.998h4.994v2h-8.993c-1.661 0-3.007 1.342-3.007 2.999v7.002c0 1.656 1.336 2.999 3.007 2.999h8.993zM15 3v5.997c0 0.554 0.451 1.003 0.991 1.003h5.009l-6-7zM11.995 14h17.011c1.092 0 1.995 0.892 1.995 1.992v7.016c0 1.092-0.893 1.992-1.995 1.992h-17.011c-1.092 0-1.995-0.892-1.995-1.992v-7.016c0-1.092 0.893-1.992 1.995-1.992zM20 19.5l-2 3.5h1l1.5-2.625 1.5 2.625h1l-2-3.5 2-3.5h-1l-1.5 2.625-1.5-2.625h-1l2 3.5zM12 16v7h2.995c1.107 0 2.005-0.887 2.005-2.006v-2.988c0-1.108-0.894-2.006-2.005-2.006h-2.995zM13 17v5h2.001c0.552 0 0.999-0.444 0.999-1v-3c0-0.552-0.443-1-0.999-1h-2.001zM25 19v-2h4v-1h-5v7h1v-3h3v-1h-3z"></path>
</svg>
