<!-- Generated by IcoMoon.io -->
<svg version="1.1" xmlns="http://www.w3.org/2000/svg" width="32" height="32" viewBox="0 0 32 32">
<title>document-cloud1</title>
<path d="M23.248 18.009c0.083-0.006 0.167-0.009 0.252-0.009 1.429 0 2.658 0.856 3.201 2.083v0c1.325 0.317 2.299 1.503 2.299 2.917 0 1.653-1.347 3-3.009 3h-9.981c-1.673 0-3.009-1.343-3.009-3 0-1.306 0.84-2.42 2.012-2.831 0.169-2.331 2.114-4.169 4.488-4.169 1.564 0 2.942 0.798 3.748 2.009v0zM23 27v1.003c0 1.107-0.894 1.997-1.997 1.997h-15.005c-1.107 0-1.997-0.899-1.997-2.007v-22.985c0-1.109 0.899-2.007 2.009-2.007h9.991v6.002c0 1.111 0.898 1.998 2.006 1.998h4.994v5.257c-0.951-0.785-2.17-1.257-3.5-1.257-2.69 0-4.929 1.931-5.406 4.482-1.247 0.678-2.094 2.001-2.094 3.518 0 2.209 1.789 4 3.996 4h7.004zM17 3v5.997c0 0.554 0.451 1.003 0.991 1.003h5.009l-6-7z"></path>
</svg>
