<!-- Generated by IcoMoon.io -->
<svg version="1.1" xmlns="http://www.w3.org/2000/svg" width="32" height="32" viewBox="0 0 32 32">
<title>document-file-html1</title>
<path d="M19 26v2.003c0 1.107-0.894 1.997-1.997 1.997h-15.005c-1.107 0-1.997-0.899-1.997-2.007v-22.985c0-1.109 0.899-2.007 2.009-2.007h9.991v6.002c0 1.111 0.898 1.998 2.006 1.998h4.994v2h-12.993c-1.661 0-3.007 1.342-3.007 2.999v7.002c0 1.656 1.336 2.999 3.007 2.999h12.993zM13 3v5.997c0 0.554 0.451 1.003 0.991 1.003h5.009l-6-7zM6.007 14h22.985c1.109 0 2.007 0.892 2.007 1.992v7.016c0 1.092-0.899 1.992-2.007 1.992h-22.985c-1.109 0-2.007-0.892-2.007-1.992v-7.016c0-1.092 0.899-1.992 2.007-1.992zM29 22h-4v-6h-1v7h5v-1zM14 17v6h1v-6h2v-1h-5v1h2zM10 19h-3v-3h-1v7h1v-3h3v3h1v-7h-1v3zM20.5 19l-1.5-3h-1v7h1v-5l1 2h1l1-2v5h1v-7h-1l-1.5 3z"></path>
</svg>
