<!-- Generated by IcoMoon.io -->
<svg version="1.1" xmlns="http://www.w3.org/2000/svg" width="32" height="32" viewBox="0 0 32 32">
<title>document-forbidden</title>
<path d="M25.016 22.691c0.616 0.77 0.984 1.746 0.984 2.809 0 2.485-2.015 4.5-4.5 4.5-1.063 0-2.039-0.368-2.809-0.984l6.325-6.325zM24.309 21.984l-6.325 6.325c-0.616-0.77-0.984-1.746-0.984-2.809 0-2.485 2.015-4.5 4.5-4.5 1.063 0 2.039 0.368 2.809 0.984zM17.257 29v0 0c1.009 1.221 2.535 2 4.243 2 3.038 0 5.5-2.462 5.5-5.5 0-2.137-1.219-3.99-3-4.9v-11.6l-6-7h-10.997c-1.106 0-2.003 0.898-2.003 2.007v22.985c0 1.109 0.891 2.007 1.997 2.007h10.26zM16.6 28h-9.6c-0.545 0-1-0.446-1-0.995v-23.009c0-0.54 0.446-0.995 0.996-0.995h10.004v4.994c0 1.119 0.895 2.006 1.998 2.006h4.002v10.207c-0.477-0.135-0.98-0.207-1.5-0.207-3.038 0-5.5 2.462-5.5 5.5 0 0.9 0.216 1.75 0.6 2.5v0 0zM18 3.5l4.7 5.5h-3.703c-0.546 0-0.997-0.452-0.997-1.009v-4.491z"></path>
</svg>
