<!-- Generated by IcoMoon.io -->
<svg version="1.1" xmlns="http://www.w3.org/2000/svg" width="32" height="32" viewBox="0 0 32 32">
<title>document-scan1</title>
<path d="M19 29h-2v-1h2v1zM20 29h2v-1h-2v1zM13 29h-2v-1h2v1zM14 29h2v-1h-2v1zM10 29h-1.003c-1.107 0-1.997-0.899-1.997-2.007v-0.993h1v1.002c0 0.551 0.455 0.998 1 0.998h1v1zM26 22v-2h-1v2h1zM26 23v2h-1v-2h1zM7 22v-2h1v2h-1zM7 23v2h1v-2h-1zM27 18v-2h1v5h-1v-2h-21v2h-1v-5h1v2h21zM26 17v-7h-4.994c-1.108 0-2.006-0.887-2.006-1.998v-6.002h-9.991c-1.109 0-2.009 0.898-2.009 2.007v12.993h19zM26 26v1.003c0 1.107-0.894 1.997-1.997 1.997h-1.003v-1h1c0.552 0 1-0.446 1-0.998v-1.002h1zM20 2v5.997c0 0.554 0.451 1.003 0.991 1.003h5.009l-6-7z"></path>
</svg>
