<!-- Generated by IcoMoon.io -->
<svg version="1.1" xmlns="http://www.w3.org/2000/svg" width="32" height="32" viewBox="0 0 32 32">
<title>document-forbidden1</title>
<path d="M25.768 22.031c0.77 0.946 1.232 2.154 1.232 3.469 0 3.038-2.462 5.5-5.5 5.5-1.315 0-2.523-0.462-3.469-1.232l7.737-7.737zM25.070 21.316c-0.961-0.82-2.207-1.316-3.57-1.316-3.038 0-5.5 2.462-5.5 5.5 0 1.362 0.495 2.609 1.316 3.57l7.754-7.754zM16.022 29h-9.024c-1.107 0-1.997-0.899-1.997-2.007v-22.985c0-1.109 0.899-2.007 2.009-2.007h9.991v6.002c0 1.111 0.898 1.998 2.006 1.998h4.994v9.498c-0.77-0.321-1.614-0.498-2.5-0.498-3.59 0-6.5 2.91-6.5 6.5 0 1.289 0.375 2.49 1.022 3.5v0 0zM18 2v5.997c0 0.554 0.451 1.003 0.991 1.003h5.009l-6-7z"></path>
</svg>
