<!-- Generated by IcoMoon.io -->
<svg version="1.1" xmlns="http://www.w3.org/2000/svg" width="32" height="32" viewBox="0 0 32 32">
<title>document-file-tiff1</title>
<path d="M19 26v2.003c0 1.107-0.894 1.997-1.997 1.997h-15.005c-1.107 0-1.997-0.899-1.997-2.007v-22.985c0-1.109 0.899-2.007 2.009-2.007h9.991v6.002c0 1.111 0.898 1.998 2.006 1.998h4.994v2h-10.993c-1.661 0-3.007 1.342-3.007 2.999v7.002c0 1.656 1.336 2.999 3.007 2.999h10.993zM13 3v5.997c0 0.554 0.451 1.003 0.991 1.003h5.009l-6-7zM8.004 14h20.993c1.114 0 2.004 0.892 2.004 1.992v7.016c0 1.092-0.897 1.992-2.004 1.992h-20.993c-1.114 0-2.004-0.892-2.004-1.992v-7.016c0-1.092 0.897-1.992 2.004-1.992zM10 17v6h1v-6h2v-1h-5v1h2zM15 17v5h-1v1h3v-1h-1v-5h1v-1h-3v1h1zM19 19v-2h4v-1h-5v7h1v-3h3v-1h-3zM25 19v-2h4v-1h-5v7h1v-3h3v-1h-3z"></path>
</svg>
