<!-- Generated by IcoMoon.io -->
<svg version="1.1" xmlns="http://www.w3.org/2000/svg" width="32" height="32" viewBox="0 0 32 32">
<title>document-recording</title>
<path d="M19.5 3h0.5l6 7v18.009c0 1.093-0.894 1.991-1.997 1.991h-15.005c-1.107 0-1.997-0.899-1.997-2.007v-22.985c0-1.109 0.897-2.007 2.003-2.007h10.497zM19 4h-10.004c-0.55 0-0.996 0.455-0.996 0.995v23.009c0 0.55 0.455 0.995 1 0.995h15c0.552 0 1-0.445 1-0.993v-17.007h-4.002c-1.103 0-1.998-0.887-1.998-2.006v-4.994zM20 4.5v4.491c0 0.557 0.451 1.009 0.997 1.009h3.703l-4.7-5.5zM13 20.495v-1.495h1v1.493c0 1.385 1.11 2.507 2.5 2.507 1.381 0 2.5-1.125 2.5-2.507v-1.493h1v1.495c0 1.768-1.304 3.227-3 3.47v2.035h2v1h-5v-1h2v-2.036c-1.693-0.243-3-1.704-3-3.47v0zM15 16.502v0c0-0.831 0.672-1.502 1.5-1.502 0.834 0 1.5 0.672 1.5 1.502v3.997c0 0.831-0.672 1.502-1.5 1.502-0.834 0-1.5-0.672-1.5-1.502v-3.997zM16.5 16c-0.276 0-0.5 0.215-0.5 0.498v4.005c0 0.275 0.232 0.498 0.5 0.498 0.276 0 0.5-0.215 0.5-0.498v-4.005c0-0.275-0.232-0.498-0.5-0.498v0z"></path>
</svg>
