<!-- Generated by IcoMoon.io -->
<svg version="1.1" xmlns="http://www.w3.org/2000/svg" width="32" height="32" viewBox="0 0 32 32">
<title>document-file-rb1</title>
<path d="M21 26v2.003c0 1.107-0.894 1.997-1.997 1.997h-15.005c-1.107 0-1.997-0.899-1.997-2.007v-22.985c0-1.109 0.899-2.007 2.009-2.007h9.991v6.002c0 1.111 0.898 1.998 2.006 1.998h4.994v2h-9.993c-1.661 0-3.007 1.342-3.007 2.999v7.002c0 1.656 1.336 2.999 3.007 2.999h9.993zM15 3v5.997c0 0.554 0.451 1.003 0.991 1.003h5.009l-6-7zM10.995 14c-1.102 0-1.995 0.9-1.995 1.992v7.016c0 1.1 0.902 1.992 1.995 1.992h17.011c1.102 0 1.995-0.9 1.995-1.992v-7.016c0-1.1-0.902-1.992-1.995-1.992h-17.011zM15.8 20h-0.8v3h-1v-7h2.995c1.111 0 2.005 0.895 2.005 2 0 1.111-0.895 1.997-2 2l2 3h-1.2l-2-3zM15 17v2h2.001c0.552 0 0.999-0.444 0.999-1 0-0.552-0.443-1-0.999-1h-2.001zM20 19.75v-3.75h2.995c1.111 0 2.005 0.895 2.005 2 0 0.6-0.261 1.135-0.676 1.5 0.415 0.366 0.676 0.902 0.676 1.5 0 1.112-0.898 2-2.005 2h-2.995v-3.25zM21 17v2h2.001c0.552 0 0.999-0.444 0.999-1 0-0.552-0.443-1-0.999-1h-2.001zM21 20v2h2.001c0.552 0 0.999-0.444 0.999-1 0-0.552-0.443-1-0.999-1h-2.001z"></path>
</svg>
