<!-- Generated by IcoMoon.io -->
<svg version="1.1" xmlns="http://www.w3.org/2000/svg" width="32" height="32" viewBox="0 0 32 32">
<title>document-shred1</title>
<path d="M27 20h-21v2h-1v-5h1v2h21v-2h1v5h-1v-2zM7 18v-12.993c0-1.109 0.899-2.007 2.009-2.007h9.991v6.002c0 1.111 0.898 1.998 2.006 1.998h4.994v7h-19zM20 3v5.997c0 0.554 0.451 1.003 0.991 1.003h5.009l-6-7zM25 21v9h1v-9h-1zM23 21v8h1v-8h-1zM21 21v7h1v-7h-1zM19 21v9h1v-9h-1zM17 21v8h1v-8h-1zM15 21v9h1v-9h-1zM13 21v7h1v-7h-1zM11 21v9h1v-9h-1zM9 21v8h1v-8h-1zM7 21v9h1v-9h-1z"></path>
</svg>
