<!-- Generated by IcoMoon.io -->
<svg version="1.1" xmlns="http://www.w3.org/2000/svg" width="32" height="32" viewBox="0 0 32 32">
<title>document-cloud</title>
<path d="M16.035 21h-0.030c-1.108 0-2.006 0.888-2.006 2 0 1.105 0.897 2 2.006 2h9.988c1.108 0 2.006-0.888 2.006-2 0-1.105-0.897-2-2.006-2h-0.044c-0.232-1.141-1.241-2-2.45-2-0.273 0-0.535 0.044-0.781 0.124-0.534-1.249-1.775-2.124-3.219-2.124-1.933 0-3.5 1.567-3.5 3.5 0 0.17 0.012 0.337 0.035 0.5v0zM23 17.671v0 0c0.088 0.108 0.171 0.221 0.248 0.338 0.083-0.006 0.167-0.009 0.252-0.009 1.429 0 2.658 0.856 3.201 2.083 1.325 0.317 2.299 1.503 2.299 2.917 0 1.653-1.347 3-3.009 3h-2.991v2.009c0 1.093-0.894 1.991-1.997 1.991h-15.005c-1.107 0-1.997-0.899-1.997-2.007v-22.985c0-1.109 0.897-2.007 2.003-2.007h10.997l6 7v7.671zM22 16.758v-5.758h-4.002c-1.103 0-1.998-0.887-1.998-2.006v-4.994h-10.004c-0.55 0-0.996 0.455-0.996 0.995v23.009c0 0.55 0.455 0.995 1 0.995h15c0.552 0 1-0.445 1-0.993v-2.007h-5.991c-1.673 0-3.009-1.343-3.009-3 0-1.306 0.84-2.42 2.012-2.831 0.169-2.331 2.114-4.169 4.488-4.169 0.925 0 1.785 0.279 2.5 0.758v0 0zM17 4.5v4.491c0 0.557 0.451 1.009 0.997 1.009h3.703l-4.7-5.5z"></path>
</svg>
