<!-- Generated by IcoMoon.io -->
<svg version="1.1" xmlns="http://www.w3.org/2000/svg" width="32" height="32" viewBox="0 0 32 32">
<title>document-zip</title>
<path d="M13 18.050v-1.050h-1v-1h1v-1h-1v-1h1v-1h-1v-1h1v-1h-1v-1h1v-1h-1v-1h1v-1h-1v-1h1v-1h-1v-1h-3.004c-0.55 0-0.996 0.455-0.996 0.995v23.009c0 0.55 0.455 0.995 1 0.995h15c0.552 0 1-0.445 1-0.993v-17.007h-4.002c-1.103 0-1.998-0.887-1.998-2.006v-4.994h-5v1h1v1h-1v1h1v1h-1v1h1v1h-1v1h1v1h-1v1h1v1h-1v1h1v1h-1v2.049c1.147 0.231 2 1.24 2 2.451 0 1.39-1.119 2.5-2.5 2.5-1.39 0-2.5-1.119-2.5-2.5 0-1.218 0.859-2.22 2-2.45v0 0zM26 10v18.009c0 1.093-0.894 1.991-1.997 1.991h-15.005c-1.107 0-1.997-0.899-1.997-2.007v-22.985c0-1.109 0.897-2.007 2.003-2.007h10.997l6 7zM20 4.5v4.491c0 0.557 0.451 1.009 0.997 1.009h3.703l-4.7-5.5zM13.5 19c-0.828 0-1.5 0.666-1.5 1.5 0 0.828 0.666 1.5 1.5 1.5 0.828 0 1.5-0.666 1.5-1.5 0-0.828-0.666-1.5-1.5-1.5v0z"></path>
</svg>
