<!-- Generated by IcoMoon.io -->
<svg version="1.1" xmlns="http://www.w3.org/2000/svg" width="32" height="32" viewBox="0 0 32 32">
<title>document-recording1</title>
<path d="M19 3h-9.991c-1.109 0-2.009 0.898-2.009 2.007v22.985c0 1.109 0.891 2.007 1.997 2.007h15.005c1.103 0 1.997-0.891 1.997-1.997v-17.003h-4.994c-1.108 0-2.006-0.887-2.006-1.998v-6.002zM13 20.495v-1.495h1v1.493c0 1.385 1.11 2.507 2.5 2.507 1.381 0 2.5-1.125 2.5-2.507v-1.493h1v1.495c0 1.768-1.304 3.227-3 3.47v2.035h2v1h-5v-1h2v-2.036c-1.693-0.243-3-1.704-3-3.47v0zM20 3v5.997c0 0.554 0.451 1.003 0.991 1.003h5.009l-6-7zM15 16.502v0c0-0.831 0.672-1.502 1.5-1.502 0.834 0 1.5 0.672 1.5 1.502v3.997c0 0.831-0.672 1.502-1.5 1.502-0.834 0-1.5-0.672-1.5-1.502v-3.997zM16.5 16c-0.276 0-0.5 0.215-0.5 0.498v4.005c0 0.275 0.232 0.498 0.5 0.498 0.276 0 0.5-0.215 0.5-0.498v-4.005c0-0.275-0.232-0.498-0.5-0.498v0z"></path>
</svg>
