<!-- Generated by IcoMoon.io -->
<svg version="1.1" xmlns="http://www.w3.org/2000/svg" width="32" height="32" viewBox="0 0 32 32">
<title>document-unlocked</title>
<path d="M24 18.338v-9.338l-6-7h-10.997c-1.106 0-2.003 0.898-2.003 2.007v22.985c0 1.109 0.891 2.007 1.997 2.007h11.003v0.997c0 0.554 0.446 1.003 0.998 1.003h7.005c0.551 0 0.998-0.443 0.998-0.999v-5.004c0-0.551-0.447-0.998-1.002-0.998h-5.998v-2.502c0-1.37 1.119-2.498 2.5-2.498 1.39 0 2.5 1.118 2.5 2.498v0.502h1v-0.497c0-1.397-0.819-2.603-2-3.165v0 0zM18 28h-11c-0.545 0-1-0.446-1-0.995v-23.009c0-0.54 0.446-0.995 0.996-0.995h10.004v4.994c0 1.119 0.895 2.006 1.998 2.006h4.002v8.036c-0.163-0.023-0.33-0.036-0.5-0.036-1.933 0-3.5 1.569-3.5 3.503v2.497c-0.552 0-1 0.438-1 1.003v2.997zM18 3.5l4.7 5.5h-3.703c-0.546 0-0.997-0.452-0.997-1.009v-4.491zM19.503 25h5.993c0.271 0 0.503 0.223 0.503 0.498v4.005c0 0.283-0.225 0.498-0.503 0.498h-5.993c-0.271 0-0.503-0.223-0.503-0.498v-4.005c0-0.283 0.225-0.498 0.503-0.498z"></path>
</svg>
