<!-- Generated by IcoMoon.io -->
<svg version="1.1" xmlns="http://www.w3.org/2000/svg" width="32" height="32" viewBox="0 0 32 32">
<title>document-file-numbers1</title>
<path d="M21 26v2.003c0 1.107-0.894 1.997-1.997 1.997h-15.005c-1.107 0-1.997-0.899-1.997-2.007v-22.985c0-1.109 0.899-2.007 2.009-2.007h9.991v6.002c0 1.111 0.898 1.998 2.006 1.998h4.994v2h-8.993c-1.661 0-3.007 1.342-3.007 2.999v7.002c0 1.656 1.336 2.999 3.007 2.999h8.993zM15 3v5.997c0 0.554 0.451 1.003 0.991 1.003h5.009l-6-7zM11.995 14c-1.102 0-1.995 0.9-1.995 1.992v7.016c0 1.1 0.902 1.992 1.995 1.992h17.011c1.102 0 1.995-0.9 1.995-1.992v-7.016c0-1.1-0.902-1.992-1.995-1.992h-17.011zM13 18v5h-1v-7h1l3 5v-5h1v7h-1l-3-5zM22 16h1v4.994c0 1.119-0.898 2.006-2.005 2.006h-0.99c-1.111 0-2.005-0.898-2.005-2.006v-4.994h1v4.997c0 0.554 0.443 1.003 0.999 1.003h1.002c0.552 0 0.999-0.438 0.999-1.003v-4.997zM26.5 19l1.5-3h1v7h-1v-5l-1 2h-1l-1-2v5h-1v-7h1l1.5 3z"></path>
</svg>
