<!-- Generated by IcoMoon.io -->
<svg version="1.1" xmlns="http://www.w3.org/2000/svg" width="32" height="32" viewBox="0 0 32 32">
<title>document-table1</title>
<path d="M16 21h-4v2h4v-2zM17 21h4v2h-4v-2zM16 26h-4v-2h4v2zM17 26h4v-2h-4v2zM16 18h-4v2h4v-2zM17 18h4v2h-4v-2zM16 15h-4v2h4v-2zM17 15h4v2h-4v-2zM19 3v6.002c0 1.111 0.898 1.998 2.006 1.998h4.994v17.003c0 1.107-0.894 1.997-1.997 1.997h-15.005c-1.107 0-1.997-0.899-1.997-2.007v-22.985c0-1.109 0.899-2.007 2.009-2.007h9.991zM20 3v5.997c0 0.554 0.451 1.003 0.991 1.003h5.009l-6-7zM11 13v14h11v-14h-11z"></path>
</svg>
