<!-- Generated by IcoMoon.io -->
<svg version="1.1" xmlns="http://www.w3.org/2000/svg" width="32" height="32" viewBox="0 0 32 32">
<title>documents4</title>
<path d="M23 27h4.003c1.103 0 1.997-0.891 1.997-1.997v-17.003h-4.994c-1.108 0-2.006-0.887-2.006-1.998v-6.002h-9.991c-1.109 0-2.009 0.898-2.009 2.007v1.993h7.5l6.5 7.6v15.4h-1v-14h-4.994c-1.108 0-2.006-0.887-2.006-1.998v-6.002h-9.991c-1.109 0-2.009 0.898-2.009 2.007v22.985c0 1.109 0.891 2.007 1.997 2.007h15.005c1.103 0 1.997-0.891 1.997-1.997v-3.003zM23 0v5.997c0 0.554 0.451 1.003 0.991 1.003h5.009l-6-7zM17 5v5.997c0 0.554 0.451 1.003 0.991 1.003h5.009l-6-7z"></path>
</svg>
