<!-- Generated by IcoMoon.io -->
<svg version="1.1" xmlns="http://www.w3.org/2000/svg" width="32" height="32" viewBox="0 0 32 32">
<title>document-shred</title>
<path d="M27 20h-21v2h-1v-5h1v2h21v-2h1v5h-1v-2zM26 18h-1v-7h-4.002c-1.103 0-1.998-0.887-1.998-2.006v-4.994h-10.004c-0.55 0-0.996 0.455-0.996 0.995v13.005h-1v-12.993c0-1.109 0.897-2.007 2.003-2.007h10.997l6 7v8zM20 4.5v4.491c0 0.557 0.451 1.009 0.997 1.009h3.703l-4.7-5.5zM25 21v9h1v-9h-1zM23 21v8h1v-8h-1zM21 21v7h1v-7h-1zM19 21v9h1v-9h-1zM17 21v8h1v-8h-1zM15 21v9h1v-9h-1zM13 21v7h1v-7h-1zM11 21v9h1v-9h-1zM9 21v8h1v-8h-1zM7 21v9h1v-9h-1z"></path>
</svg>
