<!-- Generated by IcoMoon.io -->
<svg version="1.1" xmlns="http://www.w3.org/2000/svg" width="32" height="32" viewBox="0 0 32 32">
<title>eye-hidden1</title>
<path d="M8.109 20.891c-3.492-2.061-5.109-4.891-5.109-4.891s4-7 13-7c1.305 0 2.504 0.147 3.601 0.399l-2.703 2.703c-0.289-0.066-0.59-0.101-0.899-0.101-2.209 0-4 1.791-4 4 0 0.309 0.035 0.61 0.101 0.899l-3.993 3.993zM12.399 22.601c1.097 0.252 2.297 0.399 3.601 0.399 9 0 13-7 13-7s-1.617-2.83-5.109-4.891l-3.993 3.993c0.066 0.289 0.101 0.59 0.101 0.899 0 2.209-1.791 4-4 4-0.309 0-0.61-0.035-0.899-0.101l-2.703 2.703zM19 16c0 0.768-0.293 1.536-0.879 2.121s-1.354 0.879-2.121 0.879l3-3zM16 13c-0.768 0-1.536 0.293-2.121 0.879s-0.879 1.354-0.879 2.121l3-3zM24 7l-17 17 1 1 17-17-1-1z"></path>
</svg>
