<!-- Generated by IcoMoon.io -->
<svg version="1.1" xmlns="http://www.w3.org/2000/svg" width="32" height="32" viewBox="0 0 32 32">
<title>face-moustache</title>
<path d="M16.5 20.758c0.434 0.777 1.369 2.024 3.305 2.115 2.695 0.127 5.159-2.373 5.159-3.313-1.038 1.135-2.773 1.237-3.738 0.771-1.421-0.686-1.174-2.044-2.21-2.933-0.589-0.505-1.425-0.535-2.14 0-0.129 0.096-0.258 0.22-0.376 0.369-0.118-0.149-0.247-0.272-0.376-0.369-0.716-0.535-1.552-0.505-2.14 0-1.036 0.889-0.789 2.247-2.21 2.933-0.965 0.466-2.7 0.364-3.738-0.771 0 0.94 2.464 3.44 5.159 3.313 1.936-0.091 2.871-1.338 3.305-2.115v0zM16.5 29v0c-6.904 0-12.5-5.596-12.5-12.5s5.596-12.5 12.5-12.5c6.904 0 12.5 5.596 12.5 12.5s-5.596 12.5-12.5 12.5zM16.5 28c6.351 0 11.5-5.149 11.5-11.5s-5.149-11.5-11.5-11.5c-6.351 0-11.5 5.149-11.5 11.5s5.149 11.5 11.5 11.5v0zM12 16v0c-1.657 0-3-1.343-3-3s1.343-3 3-3c1.657 0 3 1.343 3 3s-1.343 3-3 3zM12 15c1.105 0 2-0.895 2-2s-0.895-2-2-2c-1.105 0-2 0.895-2 2s0.895 2 2 2v0zM12 14c0.552 0 1-0.448 1-1s-0.448-1-1-1c-0.552 0-1 0.448-1 1s0.448 1 1 1v0zM21 14c0.552 0 1-0.448 1-1s-0.448-1-1-1c-0.552 0-1 0.448-1 1s0.448 1 1 1v0z"></path>
</svg>
