<!-- Generated by IcoMoon.io -->
<svg version="1.1" xmlns="http://www.w3.org/2000/svg" width="32" height="32" viewBox="0 0 32 32">
<title>face-glasses</title>
<path d="M26.11 10.181v0 0c-2.442-0.275-6.483-0.245-9.42 0.491-0.064 0.013-0.127 0.025-0.19 0.035-0.063-0.010-0.126-0.021-0.19-0.035-2.937-0.736-6.978-0.765-9.42-0.491v0c2.056-3.121 5.593-5.181 9.61-5.181s7.554 2.060 9.61 5.181zM26.856 11.494c0.733 1.513 1.144 3.212 1.144 5.006 0 6.351-5.149 11.5-11.5 11.5s-11.5-5.149-11.5-11.5c0-1.794 0.411-3.493 1.144-5.006 0.015 0.014 0.031 0.023 0.049 0.026 0.459 0.169 0.655 0.59 0.655 0.59s0.137 0.374 0.535 1.894c0.398 1.52 1.347 1.702 1.347 1.702s1.162 0.261 2.502 0.261c1.34 0 2.142-0.055 3-0.446s1.233-1.477 1.233-1.477c0 0 0.432-0.937 0.73-1.82 0.045-0.134 0.163-0.225 0.304-0.284 0.14 0.058 0.259 0.15 0.304 0.284 0.298 0.884 0.73 1.82 0.73 1.82s0.375 1.087 1.233 1.477c0.858 0.39 1.66 0.446 3 0.446s2.502-0.261 2.502-0.261c0 0 0.949-0.182 1.347-1.702s0.535-1.894 0.535-1.894c0 0 0.196-0.421 0.655-0.59 0.018-0.003 0.034-0.012 0.049-0.026v0 0zM16.5 29c6.904 0 12.5-5.596 12.5-12.5s-5.596-12.5-12.5-12.5c-6.904 0-12.5 5.596-12.5 12.5s5.596 12.5 12.5 12.5v0zM16.481 22c-3.481 0-5.481-2-5.481-2v1c0 0 2 2 5.481 2s5.519-2 5.519-2v-1c0 0-2.037 2-5.519 2v0zM8.44 11.317v0c0.494-0.32 2.314-0.328 2.954-0.313s1.813 0.109 2.952 0.454c1.139 0.345 0.464 1.518 0.375 1.771-0.128 0.366-0.531 1.018-0.952 1.287s-1.348 0.484-2.511 0.484c-0.676 0-1.224-0.029-1.765-0.139s-0.809-0.208-1.126-0.83c-0.137-0.269-0.254-0.71-0.302-1.030s-0.236-1.288 0.375-1.684zM24.56 11.317c0.611 0.395 0.423 1.363 0.375 1.684s-0.164 0.761-0.302 1.030c-0.318 0.622-0.586 0.72-1.126 0.83s-1.089 0.139-1.765 0.139c-1.164 0-2.090-0.215-2.511-0.484s-0.824-0.921-0.952-1.287c-0.088-0.252-0.764-1.426 0.375-1.771s2.312-0.438 2.952-0.454c0.64-0.016 2.459-0.007 2.954 0.313v0zM12 14c0.552 0 1-0.448 1-1s-0.448-1-1-1c-0.552 0-1 0.448-1 1s0.448 1 1 1v0zM21 14c0.552 0 1-0.448 1-1s-0.448-1-1-1c-0.552 0-1 0.448-1 1s0.448 1 1 1v0z"></path>
</svg>
