<!-- Generated by IcoMoon.io -->
<svg version="1.1" xmlns="http://www.w3.org/2000/svg" width="32" height="32" viewBox="0 0 32 32">
<title>face-glasses1</title>
<path d="M16.5 10.707v0c0.063-0.010 0.126-0.021 0.19-0.035 3.203-0.802 7.718-0.765 10.041-0.409 0.28 0.043 0.325 1.215 0.075 1.256-0.459 0.169-0.655 0.59-0.655 0.59s-0.137 0.374-0.535 1.894c-0.398 1.52-1.347 1.702-1.347 1.702s-1.162 0.261-2.502 0.261c-1.34 0-2.142-0.055-3-0.446s-1.233-1.477-1.233-1.477c0 0-0.432-0.937-0.73-1.82-0.045-0.134-0.163-0.225-0.304-0.284-0.14 0.058-0.259 0.15-0.304 0.284-0.298 0.884-0.73 1.82-0.73 1.82s-0.375 1.087-1.233 1.477c-0.858 0.39-1.66 0.446-3 0.446s-2.502-0.261-2.502-0.261c0 0-0.949-0.182-1.347-1.702s-0.535-1.894-0.535-1.894c0 0-0.196-0.421-0.655-0.59-0.249-0.041-0.205-1.213 0.075-1.256 2.323-0.356 6.839-0.393 10.041 0.409 0.064 0.013 0.127 0.025 0.19 0.035zM16.5 29c6.904 0 12.5-5.596 12.5-12.5s-5.596-12.5-12.5-12.5c-6.904 0-12.5 5.596-12.5 12.5s5.596 12.5 12.5 12.5zM16.481 22c3.481 0 5.519-2 5.519-2v1c0 0-2.037 2-5.519 2s-5.481-2-5.481-2v-1c0 0 2 2 5.481 2zM8.44 11.317c0.494-0.32 2.314-0.328 2.954-0.313s1.813 0.109 2.952 0.454c1.139 0.345 0.464 1.518 0.375 1.771-0.128 0.366-0.531 1.018-0.952 1.287s-1.348 0.484-2.511 0.484c-0.676 0-1.224-0.029-1.765-0.139s-0.809-0.208-1.126-0.83c-0.137-0.269-0.254-0.71-0.302-1.030s-0.236-1.288 0.375-1.684zM24.56 11.317c0.611 0.395 0.423 1.363 0.375 1.684s-0.164 0.761-0.302 1.030c-0.318 0.622-0.586 0.72-1.126 0.83s-1.089 0.139-1.765 0.139c-1.164 0-2.090-0.215-2.511-0.484s-0.824-0.921-0.952-1.287c-0.088-0.252-0.764-1.426 0.375-1.771s2.312-0.438 2.952-0.454c0.64-0.016 2.459-0.007 2.954 0.313zM12 14c0.552 0 1-0.448 1-1s-0.448-1-1-1c-0.552 0-1 0.448-1 1s0.448 1 1 1zM21 14c0.552 0 1-0.448 1-1s-0.448-1-1-1c-0.552 0-1 0.448-1 1s0.448 1 1 1z"></path>
</svg>
