<!-- Generated by IcoMoon.io -->
<svg version="1.1" xmlns="http://www.w3.org/2000/svg" width="32" height="32" viewBox="0 0 32 32">
<title>face-closed-meyes1</title>
<path d="M16.5 29c6.904 0 12.5-5.596 12.5-12.5s-5.596-12.5-12.5-12.5c-6.904 0-12.5 5.596-12.5 12.5s5.596 12.5 12.5 12.5zM10.622 10.967l3.316 2.237-0.559 0.829-3.316-2.237 0.559-0.829zM19.062 13.204l3.316-2.237 0.559 0.829-3.316 2.237-0.559-0.829zM16.481 21c-3.481 0-5.481 2-5.481 2v-1c0 0 2-2 5.481-2s5.519 2 5.519 2v1c0 0-2.037-2-5.519-2z"></path>
</svg>
