<!-- Generated by IcoMoon.io -->
<svg version="1.1" xmlns="http://www.w3.org/2000/svg" width="32" height="32" viewBox="0 0 32 32">
<title>face-open-mouth2</title>
<path d="M16.5 29v0c-6.904 0-12.5-5.596-12.5-12.5s5.596-12.5 12.5-12.5c6.904 0 12.5 5.596 12.5 12.5s-5.596 12.5-12.5 12.5zM16.5 28c6.351 0 11.5-5.149 11.5-11.5s-5.149-11.5-11.5-11.5c-6.351 0-11.5 5.149-11.5 11.5s5.149 11.5 11.5 11.5v0zM12 14c0.552 0 1-0.448 1-1s-0.448-1-1-1c-0.552 0-1 0.448-1 1s0.448 1 1 1v0zM21 14c0.552 0 1-0.448 1-1s-0.448-1-1-1c-0.552 0-1 0.448-1 1s0.448 1 1 1v0zM16.5 24v0c-2.485 0-4.5-1.119-4.5-2.5s2.015-2.5 4.5-2.5c2.485 0 4.5 1.119 4.5 2.5s-2.015 2.5-4.5 2.5zM16.5 23c1.933 0 3.5-0.672 3.5-1.5s-1.567-1.5-3.5-1.5c-1.933 0-3.5 0.672-3.5 1.5s1.567 1.5 3.5 1.5v0z"></path>
</svg>
