<!-- Generated by IcoMoon.io -->
<svg version="1.1" xmlns="http://www.w3.org/2000/svg" width="32" height="32" viewBox="0 0 32 32">
<title>face-stuck-out-tongue3</title>
<path d="M13 20h-2v-1h11v1h-2v2.5c0 1.929-1.567 3.5-3.5 3.5-1.929 0-3.5-1.567-3.5-3.5v-2.5zM16.5 29c6.904 0 12.5-5.596 12.5-12.5s-5.596-12.5-12.5-12.5c-6.904 0-12.5 5.596-12.5 12.5s5.596 12.5 12.5 12.5zM21 14c-0.552 0-1-0.448-1-1s0.448-1 1-1c0.552 0 1 0.448 1 1s-0.448 1-1 1zM14 20v2.5c0 1.381 1.11 2.5 2.5 2.5 1.381 0 2.5-1.11 2.5-2.5v-2.5h-5zM11 13h4v1h-4v-1z"></path>
</svg>
