<!-- Generated by IcoMoon.io -->
<svg version="1.1" xmlns="http://www.w3.org/2000/svg" width="32" height="32" viewBox="0 0 32 32">
<title>face-closed-eyes-open-mouth</title>
<path d="M16.5 29v0c-6.904 0-12.5-5.596-12.5-12.5s5.596-12.5 12.5-12.5c6.904 0 12.5 5.596 12.5 12.5s-5.596 12.5-12.5 12.5zM16.5 28c6.351 0 11.5-5.149 11.5-11.5s-5.149-11.5-11.5-11.5c-6.351 0-11.5 5.149-11.5 11.5s5.149 11.5 11.5 11.5v0zM10 13v1h4v-1h-4zM19 13v1h4v-1h-4zM16.5 24v0c-1.381 0-2.5-1.119-2.5-2.5s1.119-2.5 2.5-2.5c1.381 0 2.5 1.119 2.5 2.5s-1.119 2.5-2.5 2.5zM16.5 23c0.828 0 1.5-0.672 1.5-1.5s-0.672-1.5-1.5-1.5c-0.828 0-1.5 0.672-1.5 1.5s0.672 1.5 1.5 1.5v0z"></path>
</svg>
