<!-- Generated by IcoMoon.io -->
<svg version="1.1" xmlns="http://www.w3.org/2000/svg" width="32" height="32" viewBox="0 0 32 32">
<title>face-closed-eyes-open-mouth3</title>
<path d="M16.5 29c-6.904 0-12.5-5.596-12.5-12.5s5.596-12.5 12.5-12.5c6.904 0 12.5 5.596 12.5 12.5s-5.596 12.5-12.5 12.5zM16.5 24c1.381 0 2.5-1.119 2.5-2.5s-1.119-2.5-2.5-2.5c-1.381 0-2.5 1.119-2.5 2.5s1.119 2.5 2.5 2.5zM19.622 10.967l-0.559 0.829 3.316 2.237 0.559-0.829-3.316-2.237zM10.062 13.204l0.559 0.829 3.316-2.237-0.559-0.829-3.316 2.237z"></path>
</svg>
