<!-- Generated by IcoMoon.io -->
<svg version="1.1" xmlns="http://www.w3.org/2000/svg" width="32" height="32" viewBox="0 0 32 32">
<title>file-aiff1</title>
<path d="M5.993 10h21.015c1.654 0 2.993 1.343 2.993 2.999v7.002c0 1.657-1.34 2.999-2.993 2.999h-21.015c-1.654 0-2.993-1.343-2.993-2.999v-7.002c0-1.657 1.34-2.999 2.993-2.999zM10 17v3h1v-5c0-1.105-0.894-2-2.005-2h-0.99c-1.107 0-2.005 0.888-2.005 2v5h1v-3h3zM7.999 14c-0.552 0-0.999 0.444-0.999 1v1h3v-1c0-0.552-0.443-1-0.999-1h-1.002zM13 14v5h-1v1h3v-1h-1v-5h1v-1h-3v1h1zM17 16v-2h4v-1h-5v7h1v-3h3v-1h-3zM23 16v-2h4v-1h-5v7h1v-3h3v-1h-3z"></path>
</svg>
