<!-- Generated by IcoMoon.io -->
<svg version="1.1" xmlns="http://www.w3.org/2000/svg" width="32" height="32" viewBox="0 0 32 32">
<title>file-doc1</title>
<path d="M8.007 10h16.986c1.671 0 3.007 1.343 3.007 2.999v7.002c0 1.657-1.346 2.999-3.007 2.999h-16.986c-1.671 0-3.007-1.343-3.007-2.999v-7.002c0-1.657 1.346-2.999 3.007-2.999zM8 13v7h2.995c1.107 0 2.005-0.887 2.005-2.006v-2.988c0-1.108-0.894-2.006-2.005-2.006h-2.995zM9 14v5h2.001c0.552 0 0.999-0.444 0.999-1v-3c0-0.552-0.443-1-0.999-1h-2.001zM16.005 13c-1.107 0-2.005 0.887-2.005 2.006v2.988c0 1.108 0.894 2.006 2.005 2.006h0.99c1.107 0 2.005-0.887 2.005-2.006v-2.988c0-1.108-0.894-2.006-2.005-2.006h-0.99zM15.999 14c-0.552 0-0.999 0.444-0.999 1v3c0 0.552 0.443 1 0.999 1h1.002c0.552 0 0.999-0.444 0.999-1v-3c0-0.552-0.443-1-0.999-1h-1.002zM25 18l-1 0c0 0.556-0.447 1-0.999 1h-1.002c-0.556 0-0.999-0.448-0.999-1v-3c0-0.556 0.447-1 0.999-1h1.002c0.556 0 0.999 0.448 0.999 1h1c-0.003-1.105-0.896-2-2.005-2h-0.99c-1.107 0-2.005 0.887-2.005 2.006v2.988c0 1.108 0.894 2.006 2.005 2.006h0.99c1.105 0 2.002-0.883 2.005-2z"></path>
</svg>
