<!-- Generated by IcoMoon.io -->
<svg version="1.1" xmlns="http://www.w3.org/2000/svg" width="32" height="32" viewBox="0 0 32 32">
<title>file-html</title>
<path d="M4.994 10h23.011c1.654 0 2.994 1.343 2.994 2.999v7.002c0 1.657-1.341 2.999-2.994 2.999h-23.011c-1.654 0-2.994-1.343-2.994-2.999v-7.002c0-1.657 1.341-2.999 2.994-2.999zM5.007 11c-1.109 0-2.007 0.9-2.007 1.992v7.016c0 1.1 0.898 1.992 2.007 1.992h22.985c1.109 0 2.007-0.9 2.007-1.992v-7.016c0-1.1-0.898-1.992-2.007-1.992h-22.985zM28 19v1h-5v-7h1v6h4zM13 14v6h1v-6h2v-1h-5v1h2zM9 16v-3h1v7h-1v-3h-3v3h-1v-7h1v3h3zM19.5 16l-1.5-3h-1v7h1v-5l1 2h1l1-2v5h1v-7h-1l-1.5 3z"></path>
</svg>
