<!-- Generated by IcoMoon.io -->
<svg version="1.1" xmlns="http://www.w3.org/2000/svg" width="32" height="32" viewBox="0 0 32 32">
<title>file-pdf</title>
<path d="M8.007 10h16.986c1.671 0 3.007 1.343 3.007 2.999v7.002c0 1.657-1.346 2.999-3.007 2.999h-16.986c-1.671 0-3.007-1.343-3.007-2.999v-7.002c0-1.657 1.346-2.999 3.007-2.999zM7.995 11c-1.102 0-1.995 0.9-1.995 1.992v7.016c0 1.1 0.902 1.992 1.995 1.992h17.011c1.102 0 1.995-0.9 1.995-1.992v-7.016c0-1.1-0.902-1.992-1.995-1.992h-17.011zM21 16v-2h4v-1h-5v7h1v-3h3v-1h-3zM8 15v-2h2.995c1.111 0 2.005 0.895 2.005 2 0 1.112-0.898 2-2.005 2h-1.995v3h-1v-5zM9 14v2h2.001c0.552 0 0.999-0.444 0.999-1 0-0.552-0.443-1-0.999-1h-2.001zM14 13h2.995c1.111 0 2.005 0.898 2.005 2.006v2.988c0 1.119-0.898 2.006-2.005 2.006h-2.995v-7zM15 14v5h2.001c0.552 0 0.999-0.444 0.999-1v-3c0-0.552-0.443-1-0.999-1h-2.001z"></path>
</svg>
