<!-- Generated by IcoMoon.io -->
<svg version="1.1" xmlns="http://www.w3.org/2000/svg" width="32" height="32" viewBox="0 0 32 32">
<title>file-key1</title>
<path d="M8.007 10c-1.661 0-3.007 1.342-3.007 2.999v7.002c0 1.656 1.336 2.999 3.007 2.999h16.986c1.661 0 3.007-1.342 3.007-2.999v-7.002c0-1.656-1.336-2.999-3.007-2.999h-16.986zM15 17v2h4v1h-5v-7h5v1h-4v2h3v1h-3zM9 17.3v2.7h-1v-7h1v2.7l2.7-2.7h1.3l-3.5 3.5 3.5 3.5h-1.3l-2.7-2.7zM23 17v3h-1v-3l-2-3v-1h1v1l1.5 2.25 1.5-2.25v-1h1v1l-2 3z"></path>
</svg>
