<!-- Generated by IcoMoon.io -->
<svg version="1.1" xmlns="http://www.w3.org/2000/svg" width="32" height="32" viewBox="0 0 32 32">
<title>file-c1</title>
<path d="M8.007 10c-1.661 0-3.007 1.342-3.007 2.999v7.002c0 1.656 1.336 2.999 3.007 2.999h16.986c1.661 0 3.007-1.342 3.007-2.999v-7.002c0-1.656-1.336-2.999-3.007-2.999h-16.986zM19 18c-0.003 1.117-0.9 2-2.005 2h-0.99c-1.111 0-2.005-0.898-2.005-2.006v-2.988c0-1.119 0.898-2.006 2.005-2.006h0.99c1.109 0 2.002 0.895 2.005 2h-1c0-0.552-0.443-1-0.999-1h-1.002c-0.552 0-0.999 0.444-0.999 1v3c0 0.552 0.443 1 0.999 1h1.002c0.552 0 0.999-0.444 0.999-1l1-0z"></path>
</svg>
