<!-- Generated by IcoMoon.io -->
<svg version="1.1" xmlns="http://www.w3.org/2000/svg" width="32" height="32" viewBox="0 0 32 32">
<title>file-mp41</title>
<path d="M8.007 10h16.986c1.671 0 3.007 1.343 3.007 2.999v7.002c0 1.657-1.346 2.999-3.007 2.999h-16.986c-1.671 0-3.007-1.343-3.007-2.999v-7.002c0-1.657 1.346-2.999 3.007-2.999zM23 17v-2.5l-1.8 2.5h1.8zM23 18v2h1v-2h1v-1h-1v-4h-1l-3 4v1h3zM10.5 16l-1.5-3h-1v7h1v-5l1 2h1l1-2v5h1v-7h-1l-1.5 3zM14 15v5h1v-3h1.995c1.107 0 2.005-0.888 2.005-2 0-1.105-0.894-2-2.005-2h-2.995v2zM15 14v2h2.001c0.552 0 0.999-0.444 0.999-1 0-0.552-0.443-1-0.999-1h-2.001z"></path>
</svg>
