<!-- Generated by IcoMoon.io -->
<svg version="1.1" xmlns="http://www.w3.org/2000/svg" width="32" height="32" viewBox="0 0 32 32">
<title>file-m4v1</title>
<path d="M8.007 10h16.986c1.671 0 3.007 1.343 3.007 2.999v7.002c0 1.657-1.346 2.999-3.007 2.999h-16.986c-1.671 0-3.007-1.343-3.007-2.999v-7.002c0-1.657 1.346-2.999 3.007-2.999zM10.5 16l-1.5-3h-1v7h1v-5l1 2h1l1-2v5h1v-7h-1l-1.5 3zM17 17v-2.5l-1.8 2.5h1.8zM17 18v2h1v-2h1v-1h-1v-4h-1l-3 4v1h3zM22.5 18.25l-1.5-5.25h-1l2 7h1l2-7h-1l-1.5 5.25z"></path>
</svg>
