<!-- Generated by IcoMoon.io -->
<svg version="1.1" xmlns="http://www.w3.org/2000/svg" width="32" height="32" viewBox="0 0 32 32">
<title>file-pdf1</title>
<path d="M8.007 10h16.986c1.671 0 3.007 1.343 3.007 2.999v7.002c0 1.657-1.346 2.999-3.007 2.999h-16.986c-1.671 0-3.007-1.343-3.007-2.999v-7.002c0-1.657 1.346-2.999 3.007-2.999zM21 16v-2h4v-1h-5v7h1v-3h3v-1h-3zM8 15v5h1v-3h1.995c1.107 0 2.005-0.888 2.005-2 0-1.105-0.894-2-2.005-2h-2.995v2zM9 14v2h2.001c0.552 0 0.999-0.444 0.999-1 0-0.552-0.443-1-0.999-1h-2.001zM14 13v7h2.995c1.107 0 2.005-0.887 2.005-2.006v-2.988c0-1.108-0.894-2.006-2.005-2.006h-2.995zM15 14v5h2.001c0.552 0 0.999-0.444 0.999-1v-3c0-0.552-0.443-1-0.999-1h-2.001z"></path>
</svg>
