<!-- Generated by IcoMoon.io -->
<svg version="1.1" xmlns="http://www.w3.org/2000/svg" width="32" height="32" viewBox="0 0 32 32">
<title>file-aiff</title>
<path d="M5.993 10h21.015c1.654 0 2.993 1.343 2.993 2.999v7.002c0 1.657-1.34 2.999-2.993 2.999h-21.015c-1.654 0-2.993-1.343-2.993-2.999v-7.002c0-1.657 1.34-2.999 2.993-2.999zM6.004 11c-1.107 0-2.004 0.9-2.004 1.992v7.016c0 1.1 0.89 1.992 2.004 1.992h20.993c1.107 0 2.004-0.9 2.004-1.992v-7.016c0-1.1-0.89-1.992-2.004-1.992h-20.993zM10 17h-3v3h-1v-5c0-1.112 0.898-2 2.005-2h0.99c1.111 0 2.005 0.895 2.005 2v5h-1v-3zM7.999 14c-0.552 0-0.999 0.444-0.999 1v1h3v-1c0-0.552-0.443-1-0.999-1h-1.002zM13 14v5h-1v1h3v-1h-1v-5h1v-1h-3v1h1zM17 16v-2h4v-1h-5v7h1v-3h3v-1h-3zM23 16v-2h4v-1h-5v7h1v-3h3v-1h-3z"></path>
</svg>
