<!-- Generated by IcoMoon.io -->
<svg version="1.1" xmlns="http://www.w3.org/2000/svg" width="32" height="32" viewBox="0 0 32 32">
<title>file-bmp1</title>
<path d="M8.007 10h16.986c1.671 0 3.007 1.343 3.007 2.999v7.002c0 1.657-1.346 2.999-3.007 2.999h-16.986c-1.671 0-3.007-1.343-3.007-2.999v-7.002c0-1.657 1.346-2.999 3.007-2.999zM8 16.75v3.25h2.995c1.107 0 2.005-0.888 2.005-2 0-0.597-0.261-1.133-0.676-1.5 0.415-0.365 0.676-0.9 0.676-1.5 0-1.105-0.894-2-2.005-2h-2.995v3.75zM9 14v2h2.001c0.552 0 0.999-0.444 0.999-1 0-0.552-0.443-1-0.999-1h-2.001zM9 17v2h2.001c0.552 0 0.999-0.444 0.999-1 0-0.552-0.443-1-0.999-1h-2.001zM16.5 16l-1.5-3h-1v7h1v-5l1 2h1l1-2v5h1v-7h-1l-1.5 3zM20 15v5h1v-3h1.995c1.107 0 2.005-0.888 2.005-2 0-1.105-0.894-2-2.005-2h-2.995v2zM21 14v2h2.001c0.552 0 0.999-0.444 0.999-1 0-0.552-0.443-1-0.999-1h-2.001z"></path>
</svg>
