<!-- Generated by IcoMoon.io -->
<svg version="1.1" xmlns="http://www.w3.org/2000/svg" width="32" height="32" viewBox="0 0 32 32">
<title>file-numbers1</title>
<path d="M9 15v5h-1v-7h1l3 5v-5h1v7h-1l-3-5zM18 13h1v4.994c0 1.119-0.898 2.006-2.005 2.006h-0.99c-1.111 0-2.005-0.898-2.005-2.006v-4.994h1v4.997c0 0.554 0.443 1.003 0.999 1.003h1.002c0.552 0 0.999-0.438 0.999-1.003v-4.997zM22.5 16l1.5-3h1v7h-1v-5l-1 2h-1l-1-2v5h-1v-7h1l1.5 3zM8.007 10c-1.661 0-3.007 1.342-3.007 2.999v7.002c0 1.656 1.336 2.999 3.007 2.999h16.986c1.661 0 3.007-1.342 3.007-2.999v-7.002c0-1.656-1.336-2.999-3.007-2.999h-16.986z"></path>
</svg>
