<!-- Generated by IcoMoon.io -->
<svg version="1.1" xmlns="http://www.w3.org/2000/svg" width="32" height="32" viewBox="0 0 32 32">
<title>file-pages</title>
<path d="M18 17v2h-2c-0.556 0-1-0.448-1-1v-3c0-0.556 0.448-1 1-1h3v-1h-2.995c-1.107 0-2.005 0.887-2.005 2.006v2.988c0 1.108 0.894 2.006 2.005 2.006h2.995v-4h-3v1h2zM8 15v5h1v-3h1.995c1.107 0 2.005-0.888 2.005-2 0-1.105-0.894-2-2.005-2h-2.995v2zM8.007 10h16.986c1.671 0 3.007 1.343 3.007 2.999v7.002c0 1.657-1.346 2.999-3.007 2.999h-16.986c-1.671 0-3.007-1.343-3.007-2.999v-7.002c0-1.657 1.346-2.999 3.007-2.999zM7.995 11c-1.102 0-1.995 0.9-1.995 1.992v7.016c0 1.1 0.902 1.992 1.995 1.992h17.011c1.102 0 1.995-0.9 1.995-1.992v-7.016c0-1.1-0.902-1.992-1.995-1.992h-17.011zM9 14h2.001c0.556 0 0.999 0.448 0.999 1 0 0.556-0.447 1-0.999 1h-2.001v-2zM22.005 13c-1.107 0-2.005 0.888-2.005 2 0 1.105 0.888 2 2 2h0.991c0.557 0 1.009 0.444 1.009 1 0 0.552-0.443 1-0.999 1h-1.002c-0.552 0-0.999-0.456-0.999-0.996v-0.011h-1v0.006c0 1.105 0.894 2.001 2.005 2.001h0.99c1.107 0 2.005-0.888 2.005-2 0-1.105-0.888-2-2-2h-0.991c-0.557 0-1.009-0.444-1.009-1 0-0.552 0.443-1 0.999-1h1.002c0.552 0 0.999 0.453 0.999 1h1c0-1.105-0.894-2-2.005-2h-0.99z"></path>
</svg>
