<!-- Generated by IcoMoon.io -->
<svg version="1.1" xmlns="http://www.w3.org/2000/svg" width="32" height="32" viewBox="0 0 32 32">
<title>file-java</title>
<path d="M4.994 10h23.011c1.654 0 2.994 1.343 2.994 2.999v7.002c0 1.657-1.341 2.999-2.994 2.999h-23.011c-1.654 0-2.994-1.343-2.994-2.999v-7.002c0-1.657 1.341-2.999 2.994-2.999zM5.007 11c-1.109 0-2.007 0.9-2.007 1.992v7.016c0 1.1 0.898 1.992 2.007 1.992h22.985c1.109 0 2.007-0.9 2.007-1.992v-7.016c0-1.1-0.898-1.992-2.007-1.992h-22.985zM19.5 18.25l1.5-5.25h1l-2 7h-1l-2-7h1l1.5 5.25zM5 17v0.994c0 1.108 0.894 2.006 2.005 2.006h0.99c1.107 0 2.005-0.887 2.005-2.006v-4.994h-1v5.009c0 0.54-0.447 0.991-0.999 0.991h-1.002c-0.556 0-0.999-0.448-0.999-1v-1h-1zM15 17h-3v3h-1v-5c0-1.112 0.898-2 2.005-2h0.99c1.111 0 2.005 0.895 2.005 2v5h-1v-3zM12.999 14c-0.552 0-0.999 0.444-0.999 1v1h3v-1c0-0.552-0.443-1-0.999-1h-1.002zM27 17h-3v3h-1v-5c0-1.112 0.898-2 2.005-2h0.99c1.111 0 2.005 0.895 2.005 2v5h-1v-3zM24.999 14c-0.552 0-0.999 0.444-0.999 1v1h3v-1c0-0.552-0.443-1-0.999-1h-1.002z"></path>
</svg>
