<!-- Generated by IcoMoon.io -->
<svg version="1.1" xmlns="http://www.w3.org/2000/svg" width="32" height="32" viewBox="0 0 32 32">
<title>file-quicktime</title>
<path d="M14.676 19.883l0.885 0.885 0.707-0.707-0.753-0.753c0.303-0.35 0.485-0.808 0.485-1.313v-2.988c0-1.108-0.894-2.006-2.005-2.006h-0.99c-1.107 0-2.005 0.887-2.005 2.006v2.988c0 1.108 0.894 2.006 2.005 2.006h0.99c0.239 0 0.468-0.041 0.681-0.117zM13.793 19h-0.794c-0.556 0-0.999-0.448-0.999-1v-3c0-0.556 0.447-1 0.999-1h1.002c0.556 0 0.999 0.448 0.999 1v3c0 0.224-0.073 0.431-0.196 0.597l-1.365-1.365-0.707 0.707 1.061 1.061zM8.007 10h16.986c1.671 0 3.007 1.343 3.007 2.999v7.002c0 1.657-1.346 2.999-3.007 2.999h-16.986c-1.671 0-3.007-1.343-3.007-2.999v-7.002c0-1.657 1.346-2.999 3.007-2.999zM7.995 11c-1.102 0-1.995 0.9-1.995 1.992v7.016c0 1.1 0.902 1.992 1.995 1.992h17.011c1.102 0 1.995-0.9 1.995-1.992v-7.016c0-1.1-0.902-1.992-1.995-1.992h-17.011zM19 14v6h1v-6h2v-1h-5v1h2z"></path>
</svg>
