<!-- Generated by IcoMoon.io -->
<svg version="1.1" xmlns="http://www.w3.org/2000/svg" width="32" height="32" viewBox="0 0 32 32">
<title>file-wav</title>
<path d="M8.007 10h16.986c1.671 0 3.007 1.343 3.007 2.999v7.002c0 1.657-1.346 2.999-3.007 2.999h-16.986c-1.671 0-3.007-1.343-3.007-2.999v-7.002c0-1.657 1.346-2.999 3.007-2.999zM7.995 11c-1.102 0-1.995 0.9-1.995 1.992v7.016c0 1.1 0.902 1.992 1.995 1.992h17.011c1.102 0 1.995-0.9 1.995-1.992v-7.016c0-1.1-0.902-1.992-1.995-1.992h-17.011zM12.5 20h-0.5l-1.5-3-1.5 3h-1v-7h1v5l1-2h1l1 2v-5h1v7h-0.5zM18 17h-3v3h-1v-5c0-1.112 0.898-2 2.005-2h0.99c1.111 0 2.005 0.895 2.005 2v5h-1v-3zM15.999 14c-0.552 0-0.999 0.444-0.999 1v1h3v-1c0-0.552-0.443-1-0.999-1h-1.002zM22.5 18.25l1.5-5.25h1l-2 7h-1l-2-7h1l1.5 5.25z"></path>
</svg>
