<!-- Generated by IcoMoon.io -->
<svg version="1.1" xmlns="http://www.w3.org/2000/svg" width="32" height="32" viewBox="0 0 32 32">
<title>file-xls1</title>
<path d="M8.007 10c-1.661 0-3.007 1.342-3.007 2.999v7.002c0 1.656 1.336 2.999 3.007 2.999h16.986c1.661 0 3.007-1.342 3.007-2.999v-7.002c0-1.656-1.336-2.999-3.007-2.999h-16.986zM10 16.5l-2-3.5h1l1.5 2.625 1.5-2.625h1l-2 3.5 2 3.5h-1l-1.5-2.625-1.5 2.625h-1l2-3.5zM19 19v1h-5v-7h1v6h4zM22.005 13h0.99c1.111 0 2.005 0.895 2.005 2h-1c0-0.547-0.447-1-0.999-1h-1.002c-0.556 0-0.999 0.448-0.999 1 0 0.556 0.452 1 1.009 1h0.991c1.112 0 2 0.895 2 2 0 1.112-0.898 2-2.005 2h-0.99c-1.111 0-2.005-0.896-2.005-2.001v-0.006h1v0.011c0 0.539 0.447 0.996 0.999 0.996h1.002c0.556 0 0.999-0.448 0.999-1 0-0.556-0.452-1-1.009-1h-0.991c-1.112 0-2-0.895-2-2 0-1.112 0.898-2 2.005-2z"></path>
</svg>
