<!-- Generated by IcoMoon.io -->
<svg version="1.1" xmlns="http://www.w3.org/2000/svg" width="32" height="32" viewBox="0 0 32 32">
<title>file-mp3</title>
<path d="M8.007 10h16.986c1.671 0 3.007 1.343 3.007 2.999v7.002c0 1.657-1.346 2.999-3.007 2.999h-16.986c-1.671 0-3.007-1.343-3.007-2.999v-7.002c0-1.657 1.346-2.999 3.007-2.999zM7.995 11c-1.102 0-1.995 0.9-1.995 1.992v7.016c0 1.1 0.902 1.992 1.995 1.992h17.011c1.102 0 1.995-0.9 1.995-1.992v-7.016c0-1.1-0.902-1.992-1.995-1.992h-17.011zM10.5 16l-1.5-3h-1v7h1v-5l1 2h1l1-2v5h1v-7h-1l-1.5 3zM20 15c0-1.112 0.898-2 2.005-2h0.99c1.111 0 2.005 0.895 2.005 2 0 0.6-0.262 1.135-0.677 1.501 0.415 0.366 0.677 0.902 0.677 1.499 0 1.112-0.898 2-2.005 2h-0.99c-1.111 0-2.005-0.895-2.005-2h1c0 0.552 0.443 1 0.999 1h1.002c0.552 0 0.999-0.444 0.999-1 0-0.552-0.443-1-0.999-1h-1.001v-1h1.001c0.552 0 0.999-0.444 0.999-1 0-0.552-0.443-1-0.999-1h-1.002c-0.552 0-0.999 0.444-0.999 1h-1zM14 15v-2h2.995c1.111 0 2.005 0.895 2.005 2 0 1.112-0.898 2-2.005 2h-1.995v3h-1v-5zM15 14v2h2.001c0.552 0 0.999-0.444 0.999-1 0-0.552-0.443-1-0.999-1h-2.001z"></path>
</svg>
