<!-- Generated by IcoMoon.io -->
<svg version="1.1" xmlns="http://www.w3.org/2000/svg" width="32" height="32" viewBox="0 0 32 32">
<title>file-gif</title>
<path d="M8.007 10h16.986c1.671 0 3.007 1.343 3.007 2.999v7.002c0 1.657-1.346 2.999-3.007 2.999h-16.986c-1.671 0-3.007-1.343-3.007-2.999v-7.002c0-1.657 1.346-2.999 3.007-2.999zM7.995 11c-1.102 0-1.995 0.9-1.995 1.992v7.016c0 1.1 0.902 1.992 1.995 1.992h17.011c1.102 0 1.995-0.9 1.995-1.992v-7.016c0-1.1-0.902-1.992-1.995-1.992h-17.011zM13 17v2h-2c-0.556 0-1-0.448-1-1v-3c0-0.556 0.448-1 1-1h3v-1h-2.995c-1.107 0-2.005 0.887-2.005 2.006v2.988c0 1.108 0.894 2.006 2.005 2.006h2.995v-4h-3v1h2zM16 14v5h-1v1h3v-1h-1v-5h1v-1h-3v1h1zM20 16v-2h4v-1h-5v7h1v-3h3v-1h-3z"></path>
</svg>
