<!-- Generated by IcoMoon.io -->
<svg version="1.1" xmlns="http://www.w3.org/2000/svg" width="32" height="32" viewBox="0 0 32 32">
<title>file-3gp1</title>
<path d="M8.007 10h16.986c1.671 0 3.007 1.343 3.007 2.999v7.002c0 1.657-1.346 2.999-3.007 2.999h-16.986c-1.671 0-3.007-1.343-3.007-2.999v-7.002c0-1.657 1.346-2.999 3.007-2.999zM8 15h1c0-0.556 0.447-1 0.999-1h1.002c0.556 0 0.999 0.448 0.999 1 0 0.556-0.447 1-0.999 1h-1.001v1h1.001c0.556 0 0.999 0.448 0.999 1 0 0.556-0.447 1-0.999 1h-1.002c-0.556 0-0.999-0.448-0.999-1h-1c0 1.105 0.894 2 2.005 2h0.99c1.107 0 2.005-0.888 2.005-2 0-0.597-0.261-1.133-0.677-1.499 0.415-0.365 0.677-0.9 0.677-1.501 0-1.105-0.894-2-2.005-2h-0.99c-1.107 0-2.005 0.888-2.005 2zM18 17v2h-2c-0.556 0-1-0.448-1-1v-3c0-0.556 0.448-1 1-1h3v-1h-2.995c-1.107 0-2.005 0.887-2.005 2.006v2.988c0 1.108 0.894 2.006 2.005 2.006h2.995v-4h-3v1h2zM20 15v5h1v-3h1.995c1.107 0 2.005-0.888 2.005-2 0-1.105-0.894-2-2.005-2h-2.995v2zM21 14v2h2.001c0.552 0 0.999-0.444 0.999-1 0-0.552-0.443-1-0.999-1h-2.001z"></path>
</svg>
