<!-- Generated by IcoMoon.io -->
<svg version="1.1" xmlns="http://www.w3.org/2000/svg" width="18" height="18" viewBox="0 0 18 18">
<title>flag12</title>
<path d="M2 1c-0.552 0-1 0.448-1 1v14c0 0.552 0.448 1 1 1s1-0.448 1-1v-14c0-0.552-0.448-1-1-1z"></path>
<path d="M16 1h-10c-0.552 0-1 0.448-1 1v8c0 0.552 0.448 1 1 1h10c0.552 0 1-0.448 1-1v-8c0-0.552-0.448-1-1-1zM15 8.5c0 0.276-0.224 0.5-0.5 0.5h-7c-0.276 0-0.5-0.224-0.5-0.5v-5c0-0.276 0.224-0.5 0.5-0.5h7c0.276 0 0.5 0.224 0.5 0.5v5z"></path>
</svg>
