<!-- Generated by IcoMoon.io -->
<svg version="1.1" xmlns="http://www.w3.org/2000/svg" width="32" height="32" viewBox="0 0 32 32">
<title>flashed-face-glasses</title>
<path d="M9.297 11.696l-2.44-1.466c2.052-3.149 5.604-5.23 9.642-5.23s7.591 2.082 9.642 5.23l-2.44 1.466c-0.485-1.004-1.513-1.696-2.703-1.696-1.306 0-2.417 0.835-2.829 2h-3.341c-0.412-1.165-1.523-2-2.829-2-1.19 0-2.217 0.692-2.703 1.696zM9.015 12.693c-0.010 0.101-0.015 0.203-0.015 0.307 0 1.657 1.343 3 3 3s3-1.343 3-3v0h3c0 1.657 1.343 3 3 3s3-1.343 3-3c0-0.103-0.005-0.206-0.015-0.307l2.667-1.602c0.861 1.612 1.349 3.454 1.349 5.409 0 6.351-5.149 11.5-11.5 11.5s-11.5-5.149-11.5-11.5c0-1.955 0.488-3.797 1.349-5.409l2.667 1.602zM16.5 29c6.904 0 12.5-5.596 12.5-12.5s-5.596-12.5-12.5-12.5c-6.904 0-12.5 5.596-12.5 12.5s5.596 12.5 12.5 12.5v0zM12 15v0c-1.105 0-2-0.895-2-2s0.895-2 2-2c1.105 0 2 0.895 2 2s-0.895 2-2 2zM21 15v0c-1.105 0-2-0.895-2-2s0.895-2 2-2c1.105 0 2 0.895 2 2s-0.895 2-2 2zM12 14c0.552 0 1-0.448 1-1s-0.448-1-1-1c-0.552 0-1 0.448-1 1s0.448 1 1 1v0zM21 14c0.552 0 1-0.448 1-1s-0.448-1-1-1c-0.552 0-1 0.448-1 1s0.448 1 1 1v0zM16.5 24v0c-1.381 0-2.5-1.119-2.5-2.5s1.119-2.5 2.5-2.5c1.381 0 2.5 1.119 2.5 2.5s-1.119 2.5-2.5 2.5zM16.5 23c0.828 0 1.5-0.672 1.5-1.5s-0.672-1.5-1.5-1.5c-0.828 0-1.5 0.672-1.5 1.5s0.672 1.5 1.5 1.5v0z"></path>
</svg>
