<!-- Generated by IcoMoon.io -->
<svg version="1.1" xmlns="http://www.w3.org/2000/svg" width="32" height="32" viewBox="0 0 32 32">
<title>flashed-face-glasses1</title>
<path d="M9.195 11.935c0.43-1.131 1.524-1.935 2.805-1.935 1.306 0 2.417 0.835 2.829 2h3.341c0.412-1.165 1.523-2 2.829-2 1.282 0 2.376 0.804 2.805 1.935v0l3.332-2.002c-2.203-3.561-6.143-5.933-10.638-5.933s-8.435 2.372-10.638 5.933l3.332 2.002zM9 12.985c-0 0.005-0 0.010-0 0.015 0 1.657 1.343 3 3 3s3-1.343 3-3v0h3c0 1.657 1.343 3 3 3s3-1.343 3-3c0-0.005 0-0.010-0-0.015l3.63-2.181c0.876 1.708 1.37 3.645 1.37 5.696 0 6.904-5.596 12.5-12.5 12.5s-12.5-5.596-12.5-12.5c0-2.052 0.494-3.988 1.37-5.696l3.63 2.181zM12 15c-1.105 0-2-0.895-2-2s0.895-2 2-2c1.105 0 2 0.895 2 2s-0.895 2-2 2zM21 15c-1.105 0-2-0.895-2-2s0.895-2 2-2c1.105 0 2 0.895 2 2s-0.895 2-2 2zM12 14c0.552 0 1-0.448 1-1s-0.448-1-1-1c-0.552 0-1 0.448-1 1s0.448 1 1 1zM21 14c0.552 0 1-0.448 1-1s-0.448-1-1-1c-0.552 0-1 0.448-1 1s0.448 1 1 1zM16.5 24c1.381 0 2.5-1.119 2.5-2.5s-1.119-2.5-2.5-2.5c-1.381 0-2.5 1.119-2.5 2.5s1.119 2.5 2.5 2.5z"></path>
</svg>
