<!-- Generated by IcoMoon.io -->
<svg version="1.1" xmlns="http://www.w3.org/2000/svg" width="32" height="32" viewBox="0 0 32 32">
<title>folder2</title>
<path d="M16 9h11.994c1.109 0 2.006 0.893 2.006 1.995v14.010c0 1.102-0.892 1.995-1.993 1.995h-25.013c-1.094 0-1.993-0.891-1.993-1.991v-18.018c0-1.101 0.897-1.991 2.003-1.991h10.997l2 4zM15.36 10l-1.96-4h-10.408c-0.548 0-0.992 0.455-0.992 0.992v18.016c0 0.548 0.446 0.992 0.993 0.992h25.014c0.548 0 0.993-0.445 0.993-1.001v-13.998c0-0.553-0.454-1.001-1.003-1.001h-12.637z"></path>
</svg>
