<!-- Generated by IcoMoon.io -->
<svg version="1.1" xmlns="http://www.w3.org/2000/svg" width="32" height="32" viewBox="0 0 32 32">
<title>folder4</title>
<path d="M2 13v-6.008c0-0.537 0.444-0.992 0.992-0.992h10.408l1.96 4h12.637c0.549 0 1.003 0.448 1.003 1.001v1.999h-27zM2 14h27v10.999c0 0.556-0.445 1.001-0.993 1.001h-25.014c-0.547 0-0.993-0.444-0.993-0.992v-11.008zM16 9l-2-4h-10.997c-1.106 0-2.003 0.89-2.003 1.991v18.018c0 1.1 0.9 1.991 1.993 1.991h25.013c1.101 0 1.993-0.893 1.993-1.995v-14.010c0-1.102-0.897-1.995-2.006-1.995h-11.994z"></path>
</svg>
