<!-- Generated by IcoMoon.io -->
<svg version="1.1" xmlns="http://www.w3.org/2000/svg" width="32" height="32" viewBox="0 0 32 32">
<title>folder-error</title>
<path d="M20.773 26l4.727-8 2.5 4.231v-8.231h-27v11.008c0 0.548 0.446 0.992 0.993 0.992h18.78zM20.182 27h-18.189c-1.094 0-1.993-0.891-1.993-1.991v-18.018c0-1.101 0.897-1.991 2.003-1.991h10.997l2 4h11.994c1.109 0 2.006 0.893 2.006 1.995v12.928l3 5.077h-13l1.182-2zM1 13h27v-1.999c0-0.553-0.454-1.001-1.003-1.001h-12.637l-1.96-4h-10.408c-0.548 0-0.992 0.455-0.992 0.992v6.008zM25.5 20l-4.75 8h9.5l-4.75-8zM25 22v3h1v-3h-1zM25 26v1h1v-1h-1z"></path>
</svg>
