<!-- Generated by IcoMoon.io -->
<svg version="1.1" xmlns="http://www.w3.org/2000/svg" width="32" height="32" viewBox="0 0 32 32">
<title>folder-locked1</title>
<path d="M0 12v-6.009c0-1.101 0.897-1.991 2.003-1.991h10.997l2 4h11.994c1.109 0 2.006 0.894 2.006 1.997v2.003h-29zM0 13v11.009c0 1.1 0.89 1.991 1.991 1.991h20.009v-4.003c0-0.738 0.402-1.384 1-1.73v-1.762c0-2.488 2.015-4.506 4.5-4.506 0.526 0 1.031 0.091 1.5 0.257v-1.257h-29zM24 18.505l-0.002 2.495c-0.551 0-0.998 0.438-0.998 1.003v4.994c0 0.554 0.446 1.003 0.998 1.003h7.005c0.551 0 0.998-0.438 0.998-1.003v-4.994c0-0.554-0.446-1.003-1-1.003v-2.495c0-1.936-1.571-3.505-3.5-3.505-1.933 0-3.5 1.568-3.5 3.505zM25 18.509c0-1.397 1.119-2.509 2.5-2.509 1.39 0 2.5 1.123 2.5 2.509v2.491h-5v-2.491z"></path>
</svg>
