<!-- Generated by IcoMoon.io -->
<svg version="1.1" xmlns="http://www.w3.org/2000/svg" width="32" height="32" viewBox="0 0 32 32">
<title>folder-unlocked</title>
<path d="M23 25h-21.007c-0.547 0-0.993-0.444-0.993-0.992v-11.008h27v2.036c-0.163-0.023-0.33-0.036-0.5-0.036-1.933 0-3.5 1.563-3.5 3.498v2.503c-0.552 0-1 0.438-1 1.003v2.997zM29 15.337v-5.342c0-1.102-0.897-1.995-2.006-1.995h-11.994l-2-4h-10.997c-1.106 0-2.003 0.89-2.003 1.991v18.018c0 1.1 0.9 1.991 1.993 1.991h21.007v0.997c0 0.554 0.446 1.003 0.998 1.003h7.005c0.551 0 0.998-0.438 0.998-1.003v-4.994c0-0.554-0.443-1.003-0.999-1.003h-6.001v-2.491c0-1.397 1.119-2.509 2.5-2.509 1.39 0 2.5 1.123 2.5 2.509v0.491h1v-0.503c0-1.395-0.819-2.598-2-3.16v0 0zM1 12v-6.008c0-0.537 0.444-0.992 0.992-0.992h10.408l1.96 4h12.637c0.549 0 1.003 0.448 1.003 1.001v1.999h-27zM24.503 22h5.993c0.271 0 0.503 0.223 0.503 0.498v4.005c0 0.283-0.225 0.498-0.503 0.498h-5.993c-0.271 0-0.503-0.223-0.503-0.498v-4.005c0-0.283 0.225-0.498 0.503-0.498z"></path>
</svg>
