<!-- Generated by IcoMoon.io -->
<svg version="1.1" xmlns="http://www.w3.org/2000/svg" width="32" height="32" viewBox="0 0 32 32">
<title>folder-search1</title>
<path d="M16.309 20.016c-0.77 0.616-1.746 0.984-2.809 0.984-2.485 0-4.5-2.015-4.5-4.5s2.015-4.5 4.5-4.5c2.485 0 4.5 2.015 4.5 4.5 0 1.063-0.368 2.039-0.984 2.809l5.348 5.348-0.707 0.707-5.348-5.348zM16 9l-2-4h-10.997c-1.106 0-2.003 0.89-2.003 1.991v18.018c0 1.1 0.9 1.991 1.993 1.991h25.013c1.101 0 1.993-0.893 1.993-1.995v-14.010c0-1.102-0.897-1.995-2.006-1.995h-11.994zM13.5 20c1.933 0 3.5-1.567 3.5-3.5s-1.567-3.5-3.5-3.5c-1.933 0-3.5 1.567-3.5 3.5s1.567 3.5 3.5 3.5v0z"></path>
</svg>
