<!-- Generated by IcoMoon.io -->
<svg version="1.1" xmlns="http://www.w3.org/2000/svg" width="32" height="32" viewBox="0 0 32 32">
<title>folder-unlocked1</title>
<path d="M0 12v-6.009c0-1.101 0.897-1.991 2.003-1.991h10.997l2 4h11.994c1.109 0 2.006 0.894 2.006 1.997v2.003h-29zM0 13v11.009c0 1.1 0.89 1.991 1.991 1.991h20.009v-4.003c0-0.738 0.402-1.384 1-1.73v-1.762c0-2.488 2.015-4.506 4.5-4.506 0.526 0 1.031 0.091 1.5 0.257v-1.257h-29zM30 21h1.002c0.551 0 0.998 0.449 0.998 1.003v4.994c0 0.565-0.447 1.003-0.998 1.003h-7.005c-0.551 0-0.998-0.449-0.998-1.003v-4.994c0-0.565 0.447-1.003 1-1.003v-2.503c0-1.935 1.567-3.498 3.5-3.498 1.929 0 3.5 1.566 3.5 3.498v0.503h-1v-0.491c0-1.386-1.11-2.509-2.5-2.509-1.381 0-2.5 1.112-2.5 2.509v2.491h5z"></path>
</svg>
