<!-- Generated by IcoMoon.io -->
<svg version="1.1" xmlns="http://www.w3.org/2000/svg" width="32" height="32" viewBox="0 0 32 32">
<title>folder-search</title>
<path d="M16.309 20.016c-0.77 0.616-1.746 0.984-2.809 0.984-2.485 0-4.5-2.015-4.5-4.5s2.015-4.5 4.5-4.5c2.485 0 4.5 2.015 4.5 4.5 0 1.063-0.368 2.039-0.984 2.809l5.348 5.348-0.707 0.707-5.348-5.348zM16 9h11.994c1.109 0 2.006 0.893 2.006 1.995v14.010c0 1.102-0.892 1.995-1.993 1.995h-25.013c-1.094 0-1.993-0.891-1.993-1.991v-18.018c0-1.101 0.897-1.991 2.003-1.991h10.997l2 4zM15.36 10l-1.96-4h-10.408c-0.548 0-0.992 0.455-0.992 0.992v18.016c0 0.548 0.446 0.992 0.993 0.992h25.014c0.548 0 0.993-0.445 0.993-1.001v-13.998c0-0.553-0.454-1.001-1.003-1.001h-12.637zM13.5 20c1.933 0 3.5-1.567 3.5-3.5s-1.567-3.5-3.5-3.5c-1.933 0-3.5 1.567-3.5 3.5s1.567 3.5 3.5 3.5v0z"></path>
</svg>
