<!-- Generated by IcoMoon.io -->
<svg version="1.1" xmlns="http://www.w3.org/2000/svg" width="32" height="32" viewBox="0 0 32 32">
<title>folder-forbidden1</title>
<path d="M30.768 20.031c0.77 0.946 1.232 2.154 1.232 3.469 0 3.038-2.462 5.5-5.5 5.5-1.315 0-2.523-0.462-3.469-1.232l7.737-7.737zM30.070 19.316c-0.961-0.82-2.207-1.316-3.57-1.316-3.038 0-5.5 2.462-5.5 5.5 0 1.362 0.495 2.609 1.316 3.57l7.754-7.754zM21.022 27h-19.029c-1.094 0-1.993-0.891-1.993-1.991v-11.009h29v3.498c-0.77-0.321-1.614-0.498-2.5-0.498-3.59 0-6.5 2.91-6.5 6.5 0 1.289 0.375 2.49 1.022 3.5v0 0zM0 13v-6.009c0-1.101 0.897-1.991 2.003-1.991h10.997l2 4h11.994c1.109 0 2.006 0.893 2.006 1.995v2.005h-29z"></path>
</svg>
