<!-- Generated by IcoMoon.io -->
<svg version="1.1" xmlns="http://www.w3.org/2000/svg" width="32" height="32" viewBox="0 0 32 32">
<title>folder-locked</title>
<path d="M23 25v-2.997c0-0.565 0.447-1.003 0.998-1.003h0.002v-1.495c0-1.938 1.567-3.505 3.5-3.505 0.17 0 0.337 0.012 0.5 0.036v-3.036h-27v11.008c0 0.548 0.446 0.992 0.993 0.992h21.007zM23 26h-21.007c-1.094 0-1.993-0.891-1.993-1.991v-18.018c0-1.101 0.897-1.991 2.003-1.991h10.997l2 4h11.994c1.109 0 2.006 0.893 2.006 1.995v6.343c1.181 0.563 2 1.77 2 3.167v1.495h0.002c0.551 0 0.998 0.449 0.998 1.003v4.994c0 0.565-0.447 1.003-0.998 1.003h-7.005c-0.551 0-0.998-0.449-0.998-1.003v-0.997zM25 21h5v-1.491c0-1.386-1.11-2.509-2.5-2.509-1.381 0-2.5 1.112-2.5 2.509v1.491zM1 12h27v-1.999c0-0.553-0.454-1.001-1.003-1.001h-12.637l-1.96-4h-10.408c-0.548 0-0.992 0.455-0.992 0.992v6.008zM24.503 22c-0.278 0-0.503 0.215-0.503 0.498v4.005c0 0.275 0.233 0.498 0.503 0.498h5.993c0.278 0 0.503-0.215 0.503-0.498v-4.005c0-0.275-0.233-0.498-0.503-0.498h-5.993z"></path>
</svg>
