<!-- Generated by IcoMoon.io -->
<svg version="1.1" xmlns="http://www.w3.org/2000/svg" width="32" height="32" viewBox="0 0 32 32">
<title>folder-forbidden</title>
<path d="M30.016 20.691l-6.325 6.325c0.77 0.616 1.746 0.984 2.809 0.984 2.485 0 4.5-2.015 4.5-4.5 0-1.063-0.368-2.039-0.984-2.809zM29.309 19.984c-0.77-0.616-1.746-0.984-2.809-0.984-2.485 0-4.5 2.015-4.5 4.5 0 1.063 0.368 2.039 0.984 2.809l6.325-6.325zM21.6 26v0c-0.383-0.75-0.6-1.6-0.6-2.5 0-3.038 2.462-5.5 5.5-5.5 0.52 0 1.023 0.072 1.5 0.207v-4.207h-27v11.008c0 0.548 0.446 0.992 0.993 0.992h19.607zM22.257 27h-20.264c-1.094 0-1.993-0.891-1.993-1.991v-18.018c0-1.101 0.897-1.991 2.003-1.991h10.997l2 4h11.994c1.109 0 2.006 0.893 2.006 1.995v7.605c1.781 0.91 3 2.763 3 4.9 0 3.038-2.462 5.5-5.5 5.5-1.708 0-3.234-0.779-4.243-2v0 0zM1 13h27v-1.999c0-0.553-0.454-1.001-1.003-1.001h-12.637l-1.96-4h-10.408c-0.548 0-0.992 0.455-0.992 0.992v6.008z"></path>
</svg>
