<!-- Generated by IcoMoon.io -->
<svg version="1.1" xmlns="http://www.w3.org/2000/svg" width="32" height="32" viewBox="0 0 32 32">
<title>folder-information1</title>
<path d="M21.022 26h-19.029c-1.094 0-1.993-0.891-1.993-1.991v-18.018c0-1.101 0.897-1.991 2.003-1.991h10.997l2 4h11.994c1.109 0 2.006 0.893 2.006 1.995v6.503c-0.77-0.321-1.614-0.498-2.5-0.498-3.59 0-6.5 2.91-6.5 6.5 0 1.289 0.375 2.49 1.022 3.5v0 0zM0 12v1h29v-1h-29zM26.5 28v0c-3.038 0-5.5-2.462-5.5-5.5s2.462-5.5 5.5-5.5c3.038 0 5.5 2.462 5.5 5.5s-2.462 5.5-5.5 5.5zM25 22v1h1v1h-1v1h3v-1h-1v-2h-2zM26 20v1h1v-1h-1z"></path>
</svg>
