<!-- Generated by IcoMoon.io -->
<svg version="1.1" xmlns="http://www.w3.org/2000/svg" width="32" height="32" viewBox="0 0 32 32">
<title>football</title>
<path d="M20 17h-1v2h-1v-2h-1v2h-1v-2h-1v2h-1v-2h-1v2h-1v-2h-2v-1h2v-2h1v2h1v-2h1v2h1v-2h1v2h1v-2h1v2h1v-2h1v2h2v1h-2v2h-1v-2zM16.5 23v0c-3.135 0-5.63-0.884-7.531-2v-9c1.901-1.116 4.397-2 7.531-2s5.63 0.884 7.531 2v9c-1.901 1.116-4.397 2-7.531 2zM8 20.379c-2.587-1.805-3.8-3.879-3.8-3.879s1.213-2.074 3.8-3.879v7.758zM25 20.379v-7.758c2.587 1.805 3.8 3.879 3.8 3.879s-1.213 2.074-3.8 3.879zM3 16.5c0 0 4 7.5 13.5 7.5s13.5-7.5 13.5-7.5c0 0-4-7.5-13.5-7.5s-13.5 7.5-13.5 7.5v0z"></path>
</svg>
