<!-- Generated by IcoMoon.io -->
<svg version="1.1" xmlns="http://www.w3.org/2000/svg" width="32" height="32" viewBox="0 0 32 32">
<title>football1</title>
<path d="M20 17h-1v2h-1v-2h-1v2h-1v-2h-1v2h-1v-2h-1v2h-1v-2h-2v-1h2v-2h1v2h1v-2h1v2h1v-2h1v2h1v-2h1v2h1v-2h1v2h2v1h-2v2h-1v-2zM9 22.177c1.966 1.050 4.449 1.823 7.5 1.823s5.534-0.773 7.5-1.823v0-11.353c-1.966-1.050-4.449-1.823-7.5-1.823s-5.534 0.773-7.5 1.823v11.353zM8 21.593c-3.454-2.193-5-5.093-5-5.093s1.546-2.9 5-5.093v10.186zM25 21.593c3.454-2.193 5-5.093 5-5.093s-1.546-2.9-5-5.093v10.186z"></path>
</svg>
