<!-- Generated by IcoMoon.io -->
<svg version="1.1" xmlns="http://www.w3.org/2000/svg" width="20" height="20" viewBox="0 0 20 20">
<title>gift</title>
<path d="M14.83 4h5.17v6h-1v10h-18v-10h-1v-6h5.17c-0.11-0.3-0.174-0.646-0.174-1.008 0-1.657 1.343-3 3-3 0.772 0 1.475 0.291 2.007 0.77l-0.003-0.002c0.529-0.476 1.233-0.768 2.004-0.768 1.657 0 3 1.343 3 3 0 0.361-0.064 0.708-0.181 1.029l0.007-0.021zM8 10h-5v8h5v-8zM12 10v8h5v-8h-5zM8 6h-6v2h6v-2zM12 6v2h6v-2h-6zM8 4c0.552 0 1-0.448 1-1s-0.448-1-1-1v0c-0.552 0-1 0.448-1 1s0.448 1 1 1v0zM12 4c0.552 0 1-0.448 1-1s-0.448-1-1-1v0c-0.552 0-1 0.448-1 1s0.448 1 1 1v0z"></path>
</svg>
