<!-- Generated by IcoMoon.io -->
<svg version="1.1" xmlns="http://www.w3.org/2000/svg" width="20" height="20" viewBox="0 0 20 20">
<title>globe</title>
<path d="M10 20c-5.523 0-10-4.477-10-10s4.477-10 10-10v0c5.523 0 10 4.477 10 10s-4.477 10-10 10v0zM12 17.75c1.602-0.424 2.964-1.287 3.993-2.451l0.007-0.009v-6.29c-1.105 0-2-0.895-2-2v0-3.93c-0.864-0.506-1.879-0.86-2.961-0.996l-0.039-0.004v0.93c0 1.105-0.895 2-2 2v0 1c0 1.105-0.895 2-2 2v0 2h3c1.105 0 2 0.895 2 2v0 5.75zM8 17.75v-2.75c-1.105 0-2-0.895-2-2v0-1h-0.5c-0.828 0-1.5-0.672-1.5-1.5v0-2.5h-1.75c-0.16 0.599-0.253 1.287-0.253 1.996 0 3.71 2.523 6.832 5.947 7.742l0.056 0.013z"></path>
</svg>
