<!-- Generated by IcoMoon.io -->
<svg version="1.1" xmlns="http://www.w3.org/2000/svg" width="32" height="32" viewBox="0 0 32 32">
<title>golf</title>
<path d="M12 8.5v12.858c-4.115 0.685-7 2.282-7 4.142 0 2.485 5.149 4.5 11.5 4.5s11.5-2.015 11.5-4.5c0-2.485-5.149-4.5-11.5-4.5-1.22 0-2.396 0.074-3.5 0.212v0-7.641l13-5.571-14-6v6.5zM13 22.199c1.095-0.129 2.273-0.199 3.5-0.199 5.799 0 10.5 1.567 10.5 3.5s-4.701 3.5-10.5 3.5c-5.799 0-10.5-1.567-10.5-3.5 0-1.396 2.453-2.601 6-3.163v1.693c-1.141 0.139-2 0.744-2 1.47 0 0.828 1.119 1.5 2.5 1.5s2.5-0.672 2.5-1.5c0-0.726-0.859-1.331-2-1.47v-1.831zM13 3.5l10.5 4.5-10.5 4.5v-9zM20.5 26c0.828 0 1.5-0.448 1.5-1s-0.672-1-1.5-1c-0.828 0-1.5 0.448-1.5 1s0.672 1 1.5 1v0z"></path>
</svg>
