<!-- Generated by IcoMoon.io -->
<svg version="1.1" xmlns="http://www.w3.org/2000/svg" width="32" height="32" viewBox="0 0 32 32">
<title>golf1</title>
<path d="M12 8.5v17.5h1v-12.429l13-5.571-14-6v6.5zM14 21.107c0.805-0.070 1.641-0.107 2.5-0.107 6.351 0 11.5 2.015 11.5 4.5s-5.149 4.5-11.5 4.5c-6.351 0-11.5-2.015-11.5-4.5 0-1.706 2.425-3.19 6-3.953v2.753c-0.607 0.274-1 0.709-1 1.2 0 0.828 1.119 1.5 2.5 1.5s2.5-0.672 2.5-1.5c0-0.491-0.393-0.926-1-1.2v-3.193zM20.5 26c0.828 0 1.5-0.448 1.5-1s-0.672-1-1.5-1c-0.828 0-1.5 0.448-1.5 1s0.672 1 1.5 1v0z"></path>
</svg>
