<!-- Generated by IcoMoon.io -->
<svg version="1.1" xmlns="http://www.w3.org/2000/svg" width="32" height="32" viewBox="0 0 32 32">
<title>grinning-face-teeth1</title>
<path d="M19 20v1h-2v-1h2zM20 20h0.494c0.658 0 1.215 0.417 1.421 1h-1.915v-1zM19 23h-2v-1h2v1zM20 23v-1h1.915c-0.206 0.585-0.765 1-1.422 1h-0.494zM16 20v1h-2v-1h2zM16 23h-2v-1h2v1zM13 20v1h-1.915c0.206-0.585 0.765-1 1.422-1h0.494zM13 23h-0.494c-0.658 0-1.215-0.417-1.421-1v0h1.915v1zM16.5 29c6.904 0 12.5-5.596 12.5-12.5s-5.596-12.5-12.5-12.5c-6.904 0-12.5 5.596-12.5 12.5s5.596 12.5 12.5 12.5zM12 15c-0.552 0-1-0.448-1-1s0.448-1 1-1c0.552 0 1 0.448 1 1s-0.448 1-1 1zM21 15c-0.552 0-1-0.448-1-1s0.448-1 1-1c0.552 0 1 0.448 1 1s-0.448 1-1 1zM19 10h4v1h-4v-1zM10 10h4v1h-4v-1z"></path>
</svg>
