<!-- Generated by IcoMoon.io -->
<svg version="1.1" xmlns="http://www.w3.org/2000/svg" width="32" height="32" viewBox="0 0 32 32">
<title>high-five1</title>
<path d="M19.967 10.26v-3.756c0-0.842 0.672-1.504 1.5-1.504 0.834 0 1.5 0.673 1.5 1.504v9.496h1v-6.509c0-0.829 0.672-1.491 1.5-1.491 0.834 0 1.5 0.668 1.5 1.491v12.009c0 4.142-3.358 7.5-7.5 7.5-0 0-0.001 0-0.001 0-3.758-0-5.989-2.051-7.751-5.017-3.912-6.582-6.556-9.596-5.469-10.689 1.1-1.106 3.715 1.256 5.721 3.44v-10.225c0-0.842 0.672-1.509 1.5-1.509 0.834 0 1.5 0.675 1.5 1.509v9.491h1v-11.509c0-0.815 0.672-1.491 1.5-1.491 0.834 0 1.5 0.667 1.5 1.491v10.509h1v-4.74z"></path>
</svg>
