<!-- Generated by IcoMoon.io -->
<svg version="1.1" xmlns="http://www.w3.org/2000/svg" width="32" height="32" viewBox="0 0 32 32">
<title>high-five</title>
<path d="M28 21.5v-12.006c0-1.378-1.109-2.494-2.5-2.494-0.563 0-1.081 0.184-1.5 0.497v-0.994c0-1.381-1.109-2.503-2.5-2.503-0.563 0-1.081 0.188-1.5 0.503 0-1.381-1.109-2.503-2.5-2.503-1.378 0-2.497 1.116-2.5 2.497-0.416-0.313-0.934-0.497-1.5-0.497-1.381 0-2.5 1.116-2.5 2.509v7.859c-1.956-1.828-4.188-3.194-5.609-1.772-1.987 1.988 2.188 5.887 5.45 11.831 2.262 4.119 5.547 5.572 8.659 5.572 4.694 0 8.5-3.806 8.5-8.5v0zM19.5 29c-3.759 0-5.991-2.050-7.753-5.016-3.912-6.581-6.713-9.594-5.625-10.688 1.109-1.116 3.822 1.303 5.878 3.503v-10.306c0-0.828 0.672-1.494 1.5-1.494 0.834 0 1.5 0.669 1.5 1.494v9.506h1v-11.509c0-0.816 0.672-1.491 1.5-1.491 0.834 0 1.5 0.669 1.5 1.491v10.509h1v-8.497c0-0.841 0.672-1.503 1.5-1.503 0.834 0 1.5 0.672 1.5 1.503v9.497h1v-6.509c0-0.828 0.672-1.491 1.5-1.491 0.834 0 1.5 0.669 1.5 1.491v12.009c0 4.141-3.359 7.5-7.5 7.5v0z"></path>
</svg>
