<!-- Generated by IcoMoon.io -->
<svg version="1.1" xmlns="http://www.w3.org/2000/svg" width="20" height="20" viewBox="0 0 20 20">
<title>hour-glass</title>
<path d="M3 18c0-0.002 0-0.004 0-0.005 0-2.776 1.616-5.174 3.958-6.306l0.042-0.018v-3.34c-2.384-1.15-4-3.549-4-6.325 0-0.002 0-0.004 0-0.006v0h-2v-2h18v2h-2c0 0.002 0 0.004 0 0.005 0 2.776-1.616 5.174-3.958 6.306l-0.042 0.018v3.34c2.384 1.15 4 3.549 4 6.325 0 0.002 0 0.004 0 0.006v-0h2v2h-18v-2h2zM5 2c0 0 0 0.001 0 0.001 0 2.407 1.701 4.417 3.967 4.893l0.033 0.006v3.1h2v-3.1c2.299-0.481 4-2.492 4-4.899 0-0 0-0.001 0-0.001v0h-10z"></path>
</svg>
