<!-- Generated by IcoMoon.io -->
<svg version="1.1" xmlns="http://www.w3.org/2000/svg" width="32" height="32" viewBox="0 0 32 32">
<title>inbox-document</title>
<path d="M20 19h4v-7h-4.002c-1.103 0-1.998-0.887-1.998-2.006v-4.994h-10.004c-0.55 0-0.996 0.439-0.996 1.003v12.997h4v2.002c0 1.103 0.896 1.998 1.997 1.998h5.005c1.103 0 1.997-0.898 1.997-1.998v-2.002zM21 20v1.5c0 1.39-1.118 2.5-2.496 2.5h-6.008c-1.381 0-2.496-1.119-2.496-2.5v-1.5h-6v7h23v-7h-6zM3 19.5v-0.5l3-4.8v-8.195c0-1.108 0.897-2.005 2.003-2.005h10.997l6 7v3.2l3 4.8v9h-25v-8.5zM6 19v-2.84l-1.775 2.84h1.775zM25 19h1.775l-1.775-2.84v2.84zM19 5.5v4.491c0 0.557 0.451 1.009 0.997 1.009h3.703l-4.7-5.5z"></path>
</svg>
