<!-- Generated by IcoMoon.io -->
<svg version="1.1" xmlns="http://www.w3.org/2000/svg" width="32" height="32" viewBox="0 0 32 32">
<title>inbox-filled</title>
<path d="M20 16h6.775l-4.375-7h-13.8l-4.375 7h6.775v1.995c0 1.107 0.896 2.005 1.997 2.005h5.005c1.103 0 1.997-0.894 1.997-2.005v-1.995zM21 17v1.5c0 1.39-1.118 2.5-2.496 2.5h-6.008c-1.381 0-2.496-1.119-2.496-2.5v-1.5h-6v7h23v-7h-6zM3 16.75v-0.75l5-8h15l5 8v9h-25v-8.25zM10 10l-0.6 1h12.2l-0.6-1h-11zM8.7 12l-0.6 1h14.8l-0.6-1h-13.6zM7.5 14l-0.6 1h17.2l-0.6-1h-16z"></path>
</svg>
