<!-- Generated by IcoMoon.io -->
<svg version="1.1" xmlns="http://www.w3.org/2000/svg" width="32" height="32" viewBox="0 0 32 32">
<title>information</title>
<path d="M17 21v-5h-3v1h2v4h-2v1h5v-1h-2zM16.5 26v0 0c-5.247 0-9.5-4.253-9.5-9.5s4.253-9.5 9.5-9.5c5.247 0 9.5 4.253 9.5 9.5s-4.253 9.5-9.5 9.5zM16.5 25c4.694 0 8.5-3.806 8.5-8.5s-3.806-8.5-8.5-8.5c-4.694 0-8.5 3.806-8.5 8.5s3.806 8.5 8.5 8.5v0 0zM16.5 14c0.828 0 1.5-0.672 1.5-1.5s-0.672-1.5-1.5-1.5c-0.828 0-1.5 0.672-1.5 1.5s0.672 1.5 1.5 1.5v0 0z"></path>
</svg>
