<!-- Generated by IcoMoon.io -->
<svg version="1.1" xmlns="http://www.w3.org/2000/svg" width="32" height="32" viewBox="0 0 32 32">
<title>key4</title>
<path d="M17.034 13.368l-12.716 12.736c-0.429 0.43-0.429 1.129-0.002 1.559l0.018 0.019c0.428 0.431 1.119 0.438 1.553 0.003l2.65-2.648 2.463 2.463 1.5-1.5-2.463-2.463 3.001-2.999 1.962 1.962 1.5-1.5-1.962-1.962 4.082-4.080c0.963 0.657 2.126 1.042 3.38 1.042 3.314 0 6-2.686 6-6s-2.686-6-6-6c-3.314 0-6 2.686-6 6 0 1.248 0.381 2.408 1.034 3.368zM13 22l-1.5 1.5 2.5 2.5-3 3-2.5-2.5-1.875 1.875c-0.841 0.841-2.204 0.845-3.042 0.007l0.035 0.035c-0.837-0.837-0.835-2.2 0.007-3.042l12.157-12.157c-0.5-0.963-0.782-2.058-0.782-3.218 0-3.866 3.134-7 7-7s7 3.134 7 7c0 3.866-3.134 7-7 7-1.16 0-2.255-0.282-3.218-0.782v0l-2.782 2.782 2 2-3 3-2-2zM22 14v0 0c-2.209 0-4-1.791-4-4s1.791-4 4-4c2.209 0 4 1.791 4 4s-1.791 4-4 4zM22 13c1.657 0 3-1.343 3-3s-1.343-3-3-3c-1.657 0-3 1.343-3 3s1.343 3 3 3v0 0z"></path>
</svg>
