<!-- Generated by IcoMoon.io -->
<svg version="1.1" xmlns="http://www.w3.org/2000/svg" width="32" height="32" viewBox="0 0 32 32">
<title>laughing-face5</title>
<path d="M16.5 29c-6.904 0-12.5-5.596-12.5-12.5s5.596-12.5 12.5-12.5c6.904 0 12.5 5.596 12.5 12.5s-5.596 12.5-12.5 12.5zM18.672 13.793l0.707 0.707 2.121-2.121 2.121 2.121 0.707-0.707-2.828-2.828-2.828 2.828zM8.672 13.793l0.707 0.707 2.121-2.121 2.121 2.121 0.707-0.707-2.828-2.828-2.828 2.828zM9 19c0 0 1 6 7.5 6s7.5-6 7.5-6h-15z"></path>
</svg>
