<!-- Generated by IcoMoon.io -->
<svg version="1.1" xmlns="http://www.w3.org/2000/svg" width="20" height="20" viewBox="0 0 20 20">
<title>link</title>
<path d="M9.26 13c-0.167-0.286-0.266-0.63-0.266-0.996 0-0.374 0.103-0.724 0.281-1.023l-0.005 0.009c1.549-0.13 2.757-1.419 2.757-2.99 0-1.657-1.343-3-3-3-0.009 0-0.019 0-0.028 0l0.001-0h-4c-1.657 0-3 1.343-3 3s1.343 3 3 3v0h0.080c-0.053 0.301-0.083 0.647-0.083 1s0.030 0.699 0.088 1.036l-0.005-0.036h-0.080c-2.761 0-5-2.239-5-5s2.239-5 5-5v0h4c0.039-0.001 0.084-0.002 0.13-0.002 2.762 0 5.002 2.239 5.002 5.002 0 2.717-2.166 4.927-4.865 5l-0.007 0zM10.74 7c0.167 0.286 0.266 0.63 0.266 0.996 0 0.374-0.103 0.724-0.281 1.023l0.005-0.009c-1.549 0.13-2.757 1.419-2.757 2.99 0 1.657 1.343 3 3 3 0.009 0 0.019-0 0.028-0l-0.001 0h4c1.657 0 3-1.343 3-3s-1.343-3-3-3v0h-0.080c0.053-0.301 0.083-0.647 0.083-1s-0.030-0.699-0.088-1.036l0.005 0.036h0.080c2.761 0 5 2.239 5 5s-2.239 5-5 5v0h-4c-0.039 0.001-0.084 0.002-0.13 0.002-2.762 0-5.002-2.239-5.002-5.002 0-2.717 2.166-4.927 4.865-5l0.007-0z"></path>
</svg>
