<!-- Generated by IcoMoon.io -->
<svg version="1.1" xmlns="http://www.w3.org/2000/svg" width="32" height="32" viewBox="0 0 32 32">
<title>lock-stripes1</title>
<path d="M27 26v-2h-1.75l-1.5 2h3.25zM27 27c-0.005 1.668-1.35 3-3.009 3h-14.982c-1.66 0-3.004-1.342-3.009-3h21zM6 26v-2h3.25l-1.5 2h-1.75zM8.75 26l1.5-2h2l-1.5 2h-2zM11.75 26l1.5-2h2l-1.5 2h-2zM14.75 26l1.5-2h2l-1.5 2h-2zM17.75 26l1.5-2h2l-1.5 2h-2zM20.75 26l1.5-2h2l-1.5 2h-2zM27 23v-5.991c0-1.659-1.341-3.005-3-3.009v-3.501c0-4.142-3.366-7.499-7.5-7.499-4.142 0-7.5 3.357-7.5 7.499v3.501c-1.658 0.005-3 1.34-3 3.009v5.991h21zM12 14v-3.499c0-2.492 2.015-4.501 4.5-4.501 2.48 0 4.5 2.015 4.5 4.501v3.499h-9z"></path>
</svg>
