<!-- Generated by IcoMoon.io -->
<svg version="1.1" xmlns="http://www.w3.org/2000/svg" width="32" height="32" viewBox="0 0 32 32">
<title>lock-rounded-open</title>
<path d="M21 23.915v0 0c-0.583-0.206-1-0.762-1-1.415 0-0.828 0.672-1.5 1.5-1.5s1.5 0.672 1.5 1.5c0 0.653-0.417 1.209-1 1.415v2.594c0 0.263-0.224 0.491-0.5 0.491-0.268 0-0.5-0.22-0.5-0.491v-2.594zM20 24.5v1.998c0 0.829 0.666 1.502 1.5 1.502 0.828 0 1.5-0.671 1.5-1.502v-1.998c0.607-0.456 1-1.182 1-2 0-1.381-1.119-2.5-2.5-2.5s-2.5 1.119-2.5 2.5c0 0.818 0.393 1.544 1 2v0 0zM17 16h11.991c1.663 0 3.009 1.347 3.009 3.009v4.991c0 4.409-3.581 8-7.999 8h-5.002c-4.413 0-7.999-3.582-7.999-8v-4.991c0-1.67 1.342-3.005 3-3.009v-7.5c0-2.485-2.020-4.5-4.5-4.5-2.485 0-4.5 2.017-4.5 4.5v4c0 0.826-0.672 1.5-1.5 1.5-0.834 0-1.5-0.672-1.5-1.5v-4.001c0-4.143 3.358-7.499 7.5-7.499 4.134 0 7.5 3.358 7.5 7.499v7.501zM16 8.501c0-3.59-2.917-6.501-6.5-6.501-3.59 0-6.5 2.92-6.5 6.501v4.001c0 0.275 0.232 0.499 0.5 0.499v0c0.276 0 0.5-0.217 0.5-0.499v-4.005c0-3.031 2.462-5.496 5.5-5.496 3.031 0 5.5 2.46 5.5 5.496v7.504h1v-7.499zM13.997 17c-1.103 0-1.997 0.897-1.997 2.006v4.994c0 3.866 3.137 7 6.994 7h5.012c3.863 0 6.994-3.142 6.994-7v-4.994c0-1.108-0.891-2.006-1.997-2.006h-15.005z"></path>
</svg>
