<!-- Generated by IcoMoon.io -->
<svg version="1.1" xmlns="http://www.w3.org/2000/svg" width="32" height="32" viewBox="0 0 32 32">
<title>mail-envelope-open5</title>
<path d="M22.185 20.127l-2.185 1.873 5.923 5.077-0.808 0.808-5.996-5.139-5.223 0.023-0.021-0.018-5.99 5.135-0.808-0.808 5.923-5.077-2.185-1.873-3.815-3.227v-5.54l-3 2.64v14.006c0 1.101 0.89 1.994 2.004 1.994h20.993c1.107 0 2.004-0.895 2.004-1.994v-14.006l-3-2.64v5.54l-3.815 3.227zM13.091 6l3.409-3 3.409 3h-6.818zM9 7c-0.552 0-1 0.444-1 1.002v8.198l6.252 5.316h4.42l6.328-5.316v-8.198c0-0.553-0.455-1.002-1-1.002h-15z"></path>
</svg>
