<!-- Generated by IcoMoon.io -->
<svg version="1.1" xmlns="http://www.w3.org/2000/svg" width="32" height="32" viewBox="0 0 32 32">
<title>mail-error1</title>
<path d="M21.532 18.028l-3.532-3.028 5.923-5.077-0.808-0.808-8.615 7.385-8.615-7.385-0.808 0.808 5.923 5.077-5.923 5.077 0.808 0.808 5.99-5.135 2.625 2.25 2.625-2.25 3.819 3.274-2.347 3.976h-14.594c-1.114 0-2.004-0.893-2.004-1.994v-12.012c0-1.1 0.897-1.994 2.004-1.994h20.993c1.114 0 2.004 0.893 2.004 1.994v8.241l-2.5-4.235-2.968 5.028zM24.5 15l6.5 11h-13l6.5-11zM24 19v3h1v-3h-1zM24 23v1h1v-1h-1z"></path>
</svg>
