<!-- Generated by IcoMoon.io -->
<svg version="1.1" xmlns="http://www.w3.org/2000/svg" width="32" height="32" viewBox="0 0 32 32">
<title>mail-envelope-open6</title>
<path d="M16.5 3l-12.5 11v14.006c0 1.101 0.89 1.994 2.004 1.994h20.993c1.107 0 2.004-0.895 2.004-1.994v-14.006l-12.5-11zM13.5 23h6l7 6h-20l7-6zM16.5 4.3l11 9.7-9 8h-4l-9-8 11-9.7zM27.685 28.725l-7.685-6.708 8-7.017v13c0 0.283-0.121 0.542-0.315 0.725v0 0zM5.315 28.725v0 0c-0.194-0.183-0.315-0.442-0.315-0.725v-13l8 7.017-7.685 6.708z"></path>
</svg>
