<!-- Generated by IcoMoon.io -->
<svg version="1.1" xmlns="http://www.w3.org/2000/svg" width="32" height="32" viewBox="0 0 32 32">
<title>mail-add</title>
<path d="M25 20v-3h1v3h3v1h-3v3h-1v-3h-3v-1h3zM26 15.022v-6.016c0-0.29-0.119-0.551-0.313-0.735v0l-7.737 6.728 2.916 2.536c0.978-1.525 2.688-2.536 4.634-2.536 0.169 0 0.335 0.008 0.5 0.022v0 0zM20.401 18.434l-3.199-2.783-2.702 2.349-2.702-2.349-7.298 6.349h15.707c-0.135-0.477-0.207-0.98-0.207-1.5 0-0.731 0.142-1.428 0.401-2.066v0 0zM20.6 23h-16.596c-1.114 0-2.004-0.893-2.004-1.994v-12.012c0-1.1 0.897-1.994 2.004-1.994h20.993c1.114 0 2.004 0.893 2.004 1.994v6.213c2.308 0.653 4 2.775 4 5.293 0 3.038-2.462 5.5-5.5 5.5-2.137 0-3.99-1.219-4.9-3v0zM3.315 8.274c-0.194 0.183-0.315 0.444-0.315 0.733v11.986c0 0.29 0.119 0.551 0.313 0.735v0l7.737-6.728-7.735-6.726zM14.5 16.7l10-8.7h-20l10 8.7zM25.5 25c2.485 0 4.5-2.015 4.5-4.5s-2.015-4.5-4.5-4.5c-2.485 0-4.5 2.015-4.5 4.5s2.015 4.5 4.5 4.5v0 0z"></path>
</svg>
