<!-- Generated by IcoMoon.io -->
<svg version="1.1" xmlns="http://www.w3.org/2000/svg" width="32" height="32" viewBox="0 0 32 32">
<title>mail-error</title>
<path d="M26 17.538v-8.532c0-0.29-0.119-0.551-0.313-0.735v0l-7.737 6.728 4.327 3.762 2.223-3.762 1.5 2.538zM21.768 19.623l-4.566-3.973-2.702 2.349-2.702-2.349-7.298 6.349h15.864l1.404-2.377zM19.773 23h-15.769c-1.114 0-2.004-0.893-2.004-1.994v-12.012c0-1.1 0.897-1.994 2.004-1.994h20.993c1.114 0 2.004 0.893 2.004 1.994v10.237l4 6.769h-13l1.773-3zM3.315 8.274c-0.194 0.183-0.315 0.444-0.315 0.733v11.986c0 0.29 0.119 0.551 0.313 0.735v0l7.737-6.728-7.735-6.726zM14.5 16.7l10-8.7h-20l10 8.7zM24.5 17l-4.75 8h9.5l-4.75-8zM24 19v3h1v-3h-1zM24 23v1h1v-1h-1z"></path>
</svg>
