<!-- Generated by IcoMoon.io -->
<svg version="1.1" xmlns="http://www.w3.org/2000/svg" width="32" height="32" viewBox="0 0 32 32">
<title>mail-envelope</title>
<path d="M6.004 8h20.993c1.114 0 2.004 0.893 2.004 1.994v12.012c0 1.1-0.897 1.994-2.004 1.994h-20.993c-1.114 0-2.004-0.893-2.004-1.994v-12.012c0-1.1 0.897-1.994 2.004-1.994zM6.003 9c-0.554 0-1.003 0.45-1.003 1.007v11.986c0 0.556 0.439 1.007 1.003 1.007h20.994c0.554 0 1.003-0.45 1.003-1.007v-11.986c0-0.556-0.439-1.007-1.003-1.007h-20.994zM23 11h3v3h-3v-3zM24 12v1h1v-1h-1zM7 18v1h8v-1h-8zM7 11v1h4v-1h-4zM7 20v1h8v-1h-8z"></path>
</svg>
