<!-- Generated by IcoMoon.io -->
<svg version="1.1" xmlns="http://www.w3.org/2000/svg" width="32" height="32" viewBox="0 0 32 32">
<title>middle-finger1</title>
<path d="M27.115 21.5c0 4.142-3.358 7.5-7.5 7.5-0 0-0.001 0-0.001 0-3.758-0-5.989-2.051-7.751-5.017-3.912-6.582-6.713-9.594-5.626-10.687 1.111-1.117 3.821 1.302 5.879 3.503v-4.292c0-0.835 0.672-1.506 1.5-1.506 0.834 0 1.5 0.674 1.5 1.506v2.494h0.756c0.080-0.046 0.162-0.091 0.244-0.135v0-10.374c0-0.815 0.672-1.491 1.5-1.491 0.834 0 1.5 0.667 1.5 1.491v9.509h1v-1.504c0-0.816 0.672-1.496 1.5-1.496 0.834 0 1.5 0.67 1.5 1.496v2.37c0.082 0.043 0.164 0.088 0.244 0.135h0.756v-1.494c0-0.83 0.672-1.506 1.5-1.506 0.834 0 1.5 0.674 1.5 1.506v7.994z"></path>
</svg>
