<!-- Generated by IcoMoon.io -->
<svg version="1.1" xmlns="http://www.w3.org/2000/svg" width="32" height="32" viewBox="0 0 32 32">
<title>middle-finger</title>
<path d="M28 21.5v-5.996c0-1.383-1.11-2.504-2.5-2.504-0.635 0-1.215 0.235-1.656 0.625-0.352-0.949-1.263-1.625-2.344-1.625-0.563 0-1.082 0.187-1.5 0.502v-7.999c0-1.383-1.11-2.503-2.5-2.503-1.381 0-2.5 1.118-2.5 2.503v6.993c-0.417-0.312-0.935-0.496-1.5-0.496-1.381 0-2.5 1.128-2.5 2.498v0.869c-1.955-1.829-4.187-3.192-5.609-1.771-1.987 1.987 2.186 5.887 5.45 11.832 2.261 4.119 5.546 5.572 8.659 5.572 4.694 0 8.5-3.806 8.5-8.5zM19.5 29c-3.76-0-5.99-2.051-7.753-5.017-3.912-6.582-6.713-9.594-5.626-10.687 1.111-1.117 3.821 1.302 5.879 3.503v-3.301c0-0.825 0.672-1.497 1.5-1.497 0.834 0 1.5 0.67 1.5 1.497v2.503h1v-11.509c0-0.815 0.672-1.491 1.5-1.491 0.834 0 1.5 0.667 1.5 1.491v10.509h1v-0.503c0-0.825 0.672-1.497 1.5-1.497 0.834 0 1.5 0.67 1.5 1.497v1.503h1v-0.498c0-0.831 0.672-1.502 1.5-1.502 0.834 0 1.5 0.672 1.5 1.502v5.998c0 4.142-3.358 7.5-7.5 7.5v0z"></path>
</svg>
