<!-- Generated by IcoMoon.io -->
<svg version="1.1" xmlns="http://www.w3.org/2000/svg" width="32" height="32" viewBox="0 0 32 32">
<title>moonrise</title>
<path d="M19.566 19.682c0.858-0.732 1.489-1.722 1.771-2.851 0.088-0.351 0.142-0.716 0.158-1.091-0.468 0.165-0.971 0.254-1.495 0.254-2.485 0-4.5-2.015-4.5-4.5 0-0.524 0.090-1.027 0.254-1.495-0.374 0.016-0.739 0.070-1.091 0.158-2.392 0.597-4.163 2.76-4.163 5.336 0 1.919 0.983 3.608 2.472 4.592l0.787-0.689c-1.35-0.777-2.259-2.234-2.259-3.903 0-1.961 1.255-3.63 3.005-4.246-0.004 0.082-0.005 0.163-0.005 0.246 0 3.038 2.462 5.5 5.5 5.5 0.082 0 0.164-0.002 0.246-0.005-0.283 0.805-0.789 1.505-1.443 2.026l0.763 0.667zM7.508 22c-0.281 0-0.508 0.232-0.508 0.5 0 0.276 0.227 0.5 0.508 0.5h6.075l2.917-2.5 2.917 2.5h6.075c0.281 0 0.508-0.232 0.508-0.5 0-0.276-0.227-0.5-0.508-0.5h-5.492l-3.5-3-3.5 3h-5.492z"></path>
</svg>
