<!-- Generated by IcoMoon.io -->
<svg version="1.1" xmlns="http://www.w3.org/2000/svg" width="32" height="32" viewBox="0 0 32 32">
<title>move1</title>
<path d="M17.975 22.025v-3.675l-8.302-8.375h3.302v-1h-5v5h1v-3.293l8 8v3.343c-1.141 0.232-2 1.241-2 2.45 0 1.381 1.119 2.5 2.5 2.5s2.5-1.119 2.5-2.5c0-1.209-0.859-2.218-2-2.45v0zM8.975 21.182l-1.768 1.768-0.707-0.707 1.768-1.768-1.768-1.768 0.707-0.707 1.768 1.768 1.768-1.768 0.707 0.707-1.768 1.768 1.768 1.768-0.707 0.707-1.768-1.768zM22.975 14.182l-1.768 1.768-0.707-0.707 1.768-1.768-1.768-1.768 0.707-0.707 1.768 1.768 1.768-1.768 0.707 0.707-1.768 1.768 1.768 1.768-0.707 0.707-1.768-1.768zM17.975 7.182l-1.768 1.768-0.707-0.707 1.768-1.768-1.768-1.768 0.707-0.707 1.768 1.768 1.768-1.768 0.707 0.707-1.768 1.768 1.768 1.768-0.707 0.707-1.768-1.768z"></path>
</svg>
