<!-- Generated by IcoMoon.io -->
<svg version="1.1" xmlns="http://www.w3.org/2000/svg" width="20" height="20" viewBox="0 0 20 20">
<title>network</title>
<path d="M10 20c-5.523 0-10-4.477-10-10s4.477-10 10-10v0c5.523 0 10 4.477 10 10s-4.477 10-10 10v0zM17.75 12c0.161-0.6 0.254-1.289 0.254-2s-0.093-1.4-0.266-2.056l0.013 0.056h-3.82c0.044 0.598 0.070 1.296 0.070 2s-0.025 1.402-0.075 2.093l0.005-0.093h3.82zM16.93 14h-3.22c-0.186 1.31-0.518 2.493-0.985 3.605l0.035-0.095c1.782-0.67 3.226-1.9 4.15-3.472l0.020-0.038zM8.080 12h3.84c0.052-0.599 0.081-1.296 0.081-2s-0.030-1.401-0.088-2.090l0.006 0.090h-3.84c-0.052 0.599-0.081 1.296-0.081 2s0.030 1.401 0.088 2.090l-0.006-0.090zM8.33 14c0.41 2.4 1.13 4 1.67 4s1.26-1.6 1.67-4h-3.34zM2.25 12h3.82c-0.044-0.598-0.070-1.296-0.070-2s0.025-1.402 0.075-2.093l-0.005 0.093h-3.82c-0.161 0.6-0.254 1.289-0.254 2s0.093 1.4 0.266 2.056l-0.013-0.056zM3.070 14c0.944 1.61 2.388 2.84 4.115 3.492l0.055 0.018c-0.42-0.96-0.74-2.16-0.95-3.51h-3.22zM16.93 6c-0.944-1.61-2.388-2.84-4.115-3.492l-0.055-0.018c0.42 0.96 0.74 2.16 0.95 3.51h3.22zM8.33 6h3.34c-0.41-2.4-1.13-4-1.67-4s-1.26 1.6-1.67 4zM3.070 6h3.22c0.2-1.35 0.53-2.55 0.95-3.51-1.782 0.67-3.226 1.9-4.15 3.472l-0.020 0.038z"></path>
</svg>
