<!-- Generated by IcoMoon.io -->
<svg version="1.1" xmlns="http://www.w3.org/2000/svg" width="32" height="32" viewBox="0 0 32 32">
<title>notebook-text1</title>
<path d="M23.003 4c0 0-0.878 0-1.003 0v2h-1v-2h-3v2h-1v-2h-3v2h-1v-2h-3v2h-1v-2c-0.125 0-1.003 0-1.003 0-1.103 0-1.997 0.891-1.997 2.003v20.994c0 1.106 0.891 2.003 1.997 2.003h15.006c1.103 0 1.997-0.891 1.997-2.003v-20.994c0-1.106-0.891-2.003-1.997-2.003zM22 25h-13v-1h13v1zM22 22h-13v-1h13v1zM22 19h-13v-1h13v1zM22 16h-13v-1h13v1zM22 13h-13v-1h13v1zM22 10h-13v-1h13v1z"></path>
<path d="M9 2h1v2h-1v-2z"></path>
<path d="M13 2h1v2h-1v-2z"></path>
<path d="M17 2h1v2h-1v-2z"></path>
<path d="M21 2h1v2h-1v-2z"></path>
</svg>
