<!-- Generated by IcoMoon.io -->
<svg version="1.1" xmlns="http://www.w3.org/2000/svg" width="32" height="32" viewBox="0 0 32 32">
<title>note-add</title>
<path d="M25 25h-3v-1h3v-3h1v3h3v1h-3v3h-1v-3zM20.6 27h-13.601c-0.552 0-0.999-0.439-0.999-0.999v-15.001h21v8.207c-0.477-0.135-0.98-0.207-1.5-0.207-3.038 0-5.5 2.462-5.5 5.5 0 0.9 0.216 1.75 0.6 2.5v0zM28 19.6v-12.599c0-1.099-0.896-2.001-2.001-2.001h-18.998c-1.099 0-2.001 0.896-2.001 2.001v18.998c0 1.099 0.896 2.001 2.001 2.001h14.256c1.009 1.221 2.535 2 4.243 2 3.038 0 5.5-2.462 5.5-5.5 0-2.137-1.219-3.99-3-4.9v0zM6 10v-3.001c0-0.552 0.439-0.999 0.999-0.999h19.003c0.552 0 0.999 0.439 0.999 0.999v3.001h-21zM25.5 29v0 0c-2.485 0-4.5-2.015-4.5-4.5s2.015-4.5 4.5-4.5c2.485 0 4.5 2.015 4.5 4.5s-2.015 4.5-4.5 4.5z"></path>
</svg>
