<!-- Generated by IcoMoon.io -->
<svg version="1.1" xmlns="http://www.w3.org/2000/svg" width="32" height="32" viewBox="0 0 32 32">
<title>notebook5</title>
<path d="M22 3h2.003c1.107 0 1.997 0.899 1.997 2.007v22.985c0 1.109-0.894 2.007-1.997 2.007h-15.005c-1.107 0-1.997-0.899-1.997-2.007v-22.985c0-1.109 0.894-2.007 1.997-2.007h7.003v13l3-3 3 3v-13zM5 10v1h2v-1h-2zM5 14v1h2v-1h-2zM5 6v1h2v-1h-2zM5 22v1h2v-1h-2zM5 26v1h2v-1h-2zM5 18v1h2v-1h-2zM7 10v1h2v-1h-2zM7 14v1h2v-1h-2zM7 6v1h2v-1h-2zM7 22v1h2v-1h-2zM7 26v1h2v-1h-2zM7 18v1h2v-1h-2zM17 3v10.6l2-2 2 2v-10.6h-4z"></path>
</svg>
