<!-- Generated by IcoMoon.io -->
<svg version="1.1" xmlns="http://www.w3.org/2000/svg" width="32" height="32" viewBox="0 0 32 32">
<title>notebook4</title>
<path d="M22 4h2c0.545 0 1 0.446 1 0.995v23.009c0 0.54-0.448 0.995-1 0.995h-15c-0.545 0-1-0.446-1-0.995v-1.005h1v-1h-1v-3h1v-1h-1v-3h1v-1h-1v-3h1v-1h-1v-3h1v-1h-1v-3h1v-1h-1v-1.005c0-0.54 0.448-0.995 1-0.995h7v12l3-3 3 3v-12zM7 19v3h-1v1h1v3h-1v1h1v0.993c0 1.109 0.891 2.007 1.997 2.007h15.005c1.103 0 1.997-0.898 1.997-2.007v-22.985c0-1.109-0.891-2.007-1.997-2.007h-15.005c-1.103 0-1.997 0.898-1.997 2.007v0.993h-1v1h1v3h-1v1h1v3h-1v1h1v3h-1v1h1zM17 4h4v9.6l-2-2-2 2v-9.6z"></path>
</svg>
