<!-- Generated by IcoMoon.io -->
<svg version="1.1" xmlns="http://www.w3.org/2000/svg" width="32" height="32" viewBox="0 0 32 32">
<title>one-finger-swipe-right</title>
<path d="M15.947 6h7.1l-3.25-3.25 0.75-0.75 4.5 4.5-4.5 4.5-0.75-0.75 3.25-3.25h-7.047v4.497c0.419-0.313 0.938-0.497 1.5-0.497 1.081 0 1.994 0.678 2.347 1.628 0.441-0.391 1.019-0.628 1.653-0.628 1.391 0 2.5 1.119 2.5 2.497v0.012c0.419-0.313 0.938-0.497 1.5-0.497 1.391 0 2.5 1.119 2.5 2.5v5.988c0 4.694-3.806 8.5-8.5 8.5-3.113 0-6.397-1.453-8.659-5.572-3.263-5.947-7.438-9.844-5.45-11.831 1.422-1.422 3.653-0.056 5.609 1.772v-8.859c0-1.394 1.119-2.509 2.5-2.509 1.216 0 2.216 0.859 2.447 2v0zM19.497 30c4.144 0 7.5-3.584 7.5-7.5 0 0 0 2.313 0 0v-5.997c0-0.828-0.666-1.503-1.5-1.503-0.828 0-1.5 0.672-1.5 1.503v0.497h-1v-2.494c0-0.831-0.666-1.506-1.5-1.506-0.828 0-1.5 0.672-1.5 1.506v1.494h-1v-2.494c0-0.831-0.666-1.506-1.5-1.506-0.828 0-1.5 0.672-1.5 1.506v3.494h-1v-10.494c0-0.831-0.666-1.506-1.5-1.506-0.828 0-1.5 0.666-1.5 1.506v11.294c-2.059-2.2-4.769-4.622-5.878-3.503-1.087 1.094 1.716 4.106 5.625 10.688 1.766 2.966 3.997 5.016 7.753 5.016v0z"></path>
</svg>
