<!-- Generated by IcoMoon.io -->
<svg version="1.1" xmlns="http://www.w3.org/2000/svg" width="32" height="32" viewBox="0 0 32 32">
<title>one-finger-swipe-left1</title>
<path d="M13.136 7c0.207-0.587 0.762-1 1.414-1 0.834 0 1.5 0.675 1.5 1.509v9.491h1v-4.509c0-0.815 0.672-1.491 1.5-1.491 0.834 0 1.5 0.668 1.5 1.491v3.509h1v-2.509c0-0.829 0.672-1.491 1.5-1.491 0.834 0 1.5 0.668 1.5 1.491v3.509h1v-2.494c0-0.83 0.672-1.506 1.5-1.506 0.834 0 1.5 0.674 1.5 1.506v7.994c0 4.142-3.358 7.5-7.5 7.5-3.76-0-5.99-2.051-7.753-5.017-3.912-6.582-6.713-9.594-5.626-10.687 1.111-1.117 3.821 1.302 5.879 3.503v-9.798h-7.050l3.25 3.25-0.75 0.75-4.5-4.5 4.5-4.5 0.75 0.75-3.25 3.25h7.136z"></path>
</svg>
