<!-- Generated by IcoMoon.io -->
<svg version="1.1" xmlns="http://www.w3.org/2000/svg" width="32" height="32" viewBox="0 0 32 32">
<title>one-finger-click1</title>
<path d="M13 1v4h1v-4h-1zM19.403 3.578l-3.109 2.516 0.628 0.778 3.109-2.519c0.003 0-0.628-0.775-0.628-0.775zM21.409 10.313l-3.897-0.9-0.225 0.975 3.897 0.9 0.225-0.975zM5.819 11.287l3.897-0.9-0.225-0.975-3.897 0.9 0.225 0.975zM6.969 4.353l3.109 2.519 0.628-0.778-3.109-2.519-0.628 0.778zM19 13.491c0-0.822-0.666-1.491-1.5-1.491-0.828 0-1.5 0.675-1.5 1.491v4.509h-1v-9.491c0-0.834-0.666-1.509-1.5-1.509-0.828 0-1.5 0.666-1.5 1.509v10.291c-2.059-2.2-4.769-4.619-5.878-3.503-1.087 1.094 1.716 4.106 5.625 10.688 1.766 2.966 3.994 5.016 7.753 5.016 4.141 0 7.5-3.359 7.5-7.5v-7.994c0-0.831-0.666-1.506-1.5-1.506-0.828 0-1.5 0.675-1.5 1.506v2.494h-1v-3.509c0-0.825-0.666-1.491-1.5-1.491-0.828 0-1.5 0.662-1.5 1.491v2.509h-1v-3.509z"></path>
</svg>
