<!-- Generated by IcoMoon.io -->
<svg version="1.1" xmlns="http://www.w3.org/2000/svg" width="32" height="32" viewBox="0 0 32 32">
<title>one-finger-tap-hold1</title>
<path d="M22.741 6h2.25v-1h-2v-2.966c1.697 0.244 3 1.7 3 3.466 0 1.934-1.566 3.5-3.5 3.5s-3.5-1.566-3.5-3.5c0-1.763 1.303-3.222 3-3.466v3.966h0.75zM14.991 10.95c0.619-0.631 1-1.497 1-2.45 0-1.934-1.566-3.5-3.5-3.5s-3.5 1.566-3.5 3.5c0 0.953 0.381 1.819 1 2.45v-2.45c0-1.372 1.119-2.5 2.5-2.5 1.391 0 2.5 1.119 2.5 2.5v2.45zM22.491 10c2.484 0 4.5-2.016 4.5-4.5s-2.016-4.5-4.5-4.5-4.5 2.016-4.5 4.5 2.016 4.5 4.5 4.5v0zM17.991 13.491c0-0.822-0.666-1.491-1.5-1.491-0.828 0-1.5 0.675-1.5 1.491v4.509h-1v-9.491c0-0.834-0.666-1.509-1.5-1.509-0.828 0-1.5 0.666-1.5 1.509v10.291c-2.059-2.2-4.769-4.619-5.878-3.503-1.087 1.094 1.716 4.106 5.625 10.688 1.762 2.966 3.994 5.016 7.753 5.016 4.141 0 7.5-3.359 7.5-7.5v-7.994c0-0.831-0.666-1.506-1.5-1.506-0.828 0-1.5 0.675-1.5 1.506v2.494h-1v-3.509c0-0.825-0.666-1.491-1.5-1.491-0.828 0-1.5 0.662-1.5 1.491v2.509h-1v-3.509z"></path>
</svg>
