<!-- Generated by IcoMoon.io -->
<svg version="1.1" xmlns="http://www.w3.org/2000/svg" width="32" height="32" viewBox="0 0 32 32">
<title>one-finger-double-tap2</title>
<path d="M22 22.747c2.436-1.923 4-4.902 4-8.247 0-5.799-4.701-10.5-10.5-10.5s-10.5 4.701-10.5 10.5c0 3.345 1.564 6.324 4 8.247v-1.319c-1.847-1.733-3-4.196-3-6.928 0-5.247 4.253-9.5 9.5-9.5s9.5 4.253 9.5 9.5c0 2.732-1.153 5.195-3 6.928v1.319zM22 18.244c0.636-1.102 1-2.38 1-3.744 0-4.142-3.358-7.5-7.5-7.5s-7.5 3.358-7.5 7.5c0 1.364 0.364 2.642 1 3.744v-3.748c0-3.587 2.91-6.497 6.5-6.497 3.583 0 6.5 2.909 6.5 6.497v3.748zM15.5 10v0c2.48 0 4.5 2.017 4.5 4.505v16.495h-9v-16.495c0-2.491 2.015-4.505 4.5-4.505zM15.5 11c-1.933 0-3.5 1.571-3.5 3.507v15.493h7v-15.493c0-1.937-1.571-3.507-3.5-3.507v0zM15.5 12v0c1.39 0 2.5 1.124 2.5 2.51v3.49h-5v-3.49c0-1.381 1.119-2.51 2.5-2.51zM15.5 13c-0.828 0-1.5 0.679-1.5 1.501v2.499h3v-2.499c0-0.829-0.666-1.501-1.5-1.501v0zM13 21v1h5v-1h-5zM13 23v1h5v-1h-5z"></path>
</svg>
