<!-- Generated by IcoMoon.io -->
<svg version="1.1" xmlns="http://www.w3.org/2000/svg" width="32" height="32" viewBox="0 0 32 32">
<title>one-finger-swipe-down</title>
<path d="M28 21.5v-5.984c0-1.381-1.109-2.5-2.5-2.5-0.563 0-1.081 0.184-1.5 0.497v-0.012c0-1.378-1.109-2.497-2.5-2.497-0.634 0-1.212 0.238-1.653 0.628-0.353-0.953-1.266-1.631-2.347-1.631-0.563 0-1.081 0.184-1.5 0.497v-4.987c0-1.384-1.109-2.509-2.5-2.509-1.381 0-2.5 1.116-2.5 2.509v8.859c-1.956-1.828-4.188-3.194-5.609-1.772-1.987 1.988 2.188 5.888 5.45 11.831 2.259 4.119 5.547 5.572 8.659 5.572 4.694 0 8.5-3.806 8.5-8.5v0zM20 13.506c0-0.834 0.672-1.506 1.5-1.506 0.834 0 1.5 0.675 1.5 1.506v2.494h1v-0.497c0-0.831 0.672-1.503 1.5-1.503 0.834 0 1.5 0.672 1.5 1.503v5.997c0 3.916-3.359 7.5-7.5 7.5-3.759 0-5.988-2.050-7.75-5.016-3.912-6.581-6.713-9.594-5.625-10.688 1.109-1.116 3.822 1.303 5.878 3.503v-11.294c0-0.838 0.672-1.506 1.5-1.506 0.834 0 1.5 0.675 1.5 1.506v10.494h1v-3.494c0-0.834 0.672-1.506 1.5-1.506 0.834 0 1.5 0.675 1.5 1.506v11.544l-3.25-3.25-0.75 0.75 4.5 4.5 4.5-4.5-0.75-0.75-3.25 3.25v-10.544h-0.003z"></path>
</svg>
