<!-- Generated by IcoMoon.io -->
<svg version="1.1" xmlns="http://www.w3.org/2000/svg" width="32" height="32" viewBox="0 0 32 32">
<title>one-finger-double-tap3</title>
<path d="M15.5 10v0c2.48 0 4.5 2.017 4.5 4.505v16.495h-9v-16.495c0-2.491 2.015-4.505 4.5-4.505zM15.5 12c-1.381 0-2.5 1.129-2.5 2.51v3.49h5v-3.49c0-1.386-1.11-2.51-2.5-2.51v0zM13 21v1h5v-1h-5zM13 23v1h5v-1h-5zM22 22.747c2.436-1.923 4-4.902 4-8.247 0-5.799-4.701-10.5-10.5-10.5s-10.5 4.701-10.5 10.5c0 3.345 1.564 6.324 4 8.247v-1.319c-1.847-1.733-3-4.196-3-6.928 0-5.247 4.253-9.5 9.5-9.5s9.5 4.253 9.5 9.5c0 2.732-1.153 5.195-3 6.928v1.319zM22 18.244c0.636-1.102 1-2.38 1-3.744 0-4.142-3.358-7.5-7.5-7.5s-7.5 3.358-7.5 7.5c0 1.364 0.364 2.642 1 3.744v-3.748c0-3.587 2.91-6.497 6.5-6.497 3.583 0 6.5 2.909 6.5 6.497v3.748z"></path>
</svg>
