<!-- Generated by IcoMoon.io -->
<svg version="1.1" xmlns="http://www.w3.org/2000/svg" width="32" height="32" viewBox="0 0 32 32">
<title>one-finger-click</title>
<path d="M13 0v4h1v-4h-1zM19.403 2.578l-3.109 2.516 0.628 0.778 3.109-2.519c0 0-0.628-0.775-0.628-0.775zM21.406 9.313l-3.897-0.9-0.225 0.975 3.897 0.9 0.225-0.975zM5.816 10.287l3.897-0.9-0.225-0.975-3.897 0.9 0.225 0.975zM6.969 3.353l3.109 2.519 0.628-0.778-3.109-2.519-0.628 0.778zM19.497 31c4.144 0 7.5-3.584 7.5-7.5 0 0 0 2.313 0 0v-5.997c0-0.828-0.666-1.503-1.5-1.503-0.828 0-1.5 0.672-1.5 1.503v0.497h-1v-2.494c0-0.831-0.666-1.506-1.5-1.506-0.828 0-1.5 0.672-1.5 1.506v1.494h-1v-2.494c0-0.831-0.666-1.506-1.5-1.506-0.828 0-1.5 0.672-1.5 1.506v3.494h-1v-10.494c0-0.831-0.666-1.506-1.5-1.506-0.828 0-1.5 0.666-1.5 1.506v11.294c-2.059-2.2-4.769-4.622-5.878-3.503-1.087 1.094 1.716 4.106 5.625 10.688 1.766 2.966 3.997 5.016 7.753 5.016v0zM28 23.5c0 4.694-3.806 8.5-8.5 8.5-3.113 0-6.397-1.453-8.659-5.572-3.263-5.947-7.438-9.844-5.45-11.831 1.422-1.422 3.653-0.056 5.609 1.772v0-8.859c0-1.394 1.119-2.509 2.5-2.509 1.391 0 2.5 1.122 2.5 2.509v4.991c0.419-0.313 0.938-0.497 1.5-0.497 1.081 0 1.994 0.678 2.347 1.628 0.441-0.391 1.019-0.628 1.653-0.628 1.391 0 2.5 1.119 2.5 2.497v0.012c0.419-0.313 0.938-0.497 1.5-0.497 1.391 0 2.5 1.119 2.5 2.5v5.984z"></path>
</svg>
