<!-- Generated by IcoMoon.io -->
<svg version="1.1" xmlns="http://www.w3.org/2000/svg" width="32" height="32" viewBox="0 0 32 32">
<title>one-finger-tap3</title>
<path d="M15.5 10v0c2.48 0 4.5 2.017 4.5 4.505v16.495h-9v-16.495c0-2.491 2.015-4.505 4.5-4.505zM15.5 12c-1.381 0-2.5 1.129-2.5 2.51v3.49h5v-3.49c0-1.386-1.11-2.51-2.5-2.51v0zM13 21v1h5v-1h-5zM13 23v1h5v-1h-5zM21 20.981c1.835-1.559 3-3.884 3-6.481 0-4.694-3.806-8.5-8.5-8.5s-8.5 3.806-8.5 8.5c0 2.597 1.165 4.922 3 6.481v-1.382c-1.241-1.338-2-3.13-2-5.099 0-4.142 3.358-7.5 7.5-7.5s7.5 3.358 7.5 7.5c0 1.969-0.759 3.761-2 5.099v1.382z"></path>
</svg>
