<!-- Generated by IcoMoon.io -->
<svg version="1.1" xmlns="http://www.w3.org/2000/svg" width="32" height="32" viewBox="0 0 32 32">
<title>one-finger-swipe1</title>
<path d="M12.028 14c0.232-2.088 1.888-3.742 3.972-3.973v0-6.077l-3.25 3.25-0.75-0.75 4.5-4.5 4.5 4.5-0.75 0.75-3.25-3.25v6.078c2.081 0.231 3.739 1.887 3.972 3.972h6.078l-3.25-3.25 0.75-0.75 4.5 4.5-4.5 4.5-0.75-0.75 3.25-3.25h-6.050v16h-9v-16h-6.050l3.25 3.25-0.75 0.75-4.5-4.5 4.5-4.5 0.75 0.75-3.25 3.25h6.078zM16.5 12c-1.381 0-2.5 1.129-2.5 2.51v3.49h5v-3.49c0-1.386-1.11-2.51-2.5-2.51v0zM14 21v1h5v-1h-5zM14 23v1h5v-1h-5z"></path>
</svg>
