<!-- Generated by IcoMoon.io -->
<svg version="1.1" xmlns="http://www.w3.org/2000/svg" width="32" height="32" viewBox="0 0 32 32">
<title>one-finger-swipe-up1</title>
<path d="M18.991 27.988c-3.459-0.175-5.569-2.172-7.253-5.003-3.912-6.581-6.713-9.594-5.625-10.688 1.109-1.116 3.822 1.303 5.878 3.503v-10.291c0-0.844 0.672-1.509 1.5-1.509 0.834 0 1.5 0.675 1.5 1.509v9.491h1v-4.509c0-0.816 0.672-1.491 1.5-1.491 0.834 0 1.5 0.669 1.5 1.491v3.509h1v-2.509c0-0.828 0.672-1.491 1.5-1.491 0.834 0 1.5 0.669 1.5 1.491v3.509h1v-2.494c0-0.831 0.672-1.506 1.5-1.506 0.834 0 1.5 0.675 1.5 1.506v7.994c0 3.975-3.091 7.225-7 7.484v-9.034l3.25 3.25 0.75-0.75-4.5-4.5-4.5 4.5 0.75 0.75 3.25-3.25v9.037z"></path>
</svg>
