<!-- Generated by IcoMoon.io -->
<svg version="1.1" xmlns="http://www.w3.org/2000/svg" width="32" height="32" viewBox="0 0 32 32">
<title>one-finger-tap1</title>
<path d="M16 8.95c0.619-0.631 1-1.496 1-2.45 0-1.933-1.567-3.5-3.5-3.5s-3.5 1.567-3.5 3.5c0 0.954 0.381 1.818 1 2.45v-2.449c0-1.372 1.119-2.501 2.5-2.501 1.39 0 2.5 1.12 2.5 2.501v2.449zM19 11.491c0-0.823-0.666-1.491-1.5-1.491-0.828 0-1.5 0.676-1.5 1.491v4.509h-1v-9.491c0-0.833-0.666-1.509-1.5-1.509-0.828 0-1.5 0.666-1.5 1.509v10.29c-2.058-2.2-4.768-4.619-5.879-3.503-1.087 1.093 1.714 4.105 5.626 10.687 1.763 2.966 3.993 5.016 7.753 5.017 4.142 0 7.5-3.358 7.5-7.5v-7.994c0-0.832-0.666-1.506-1.5-1.506-0.828 0-1.5 0.676-1.5 1.506v2.494h-1v-3.509c0-0.824-0.666-1.491-1.5-1.491-0.828 0-1.5 0.663-1.5 1.491v2.509h-1v-3.509z"></path>
</svg>
