<!-- Generated by IcoMoon.io -->
<svg version="1.1" xmlns="http://www.w3.org/2000/svg" width="32" height="32" viewBox="0 0 32 32">
<title>one-finger-click2</title>
<path d="M16.5 10v0c2.48 0 4.5 2.017 4.5 4.505v16.495h-9v-16.495c0-2.491 2.015-4.505 4.5-4.505zM16.5 11c-1.933 0-3.5 1.571-3.5 3.507v15.493h7v-15.493c0-1.937-1.571-3.507-3.5-3.507v0zM16.5 12v0c1.39 0 2.5 1.124 2.5 2.51v3.49h-5v-3.49c0-1.381 1.119-2.51 2.5-2.51zM16.5 13c-0.828 0-1.5 0.679-1.5 1.501v2.499h3v-2.499c0-0.829-0.666-1.501-1.5-1.501v0zM14 21v1h5v-1h-5zM14 23v1h5v-1h-5zM16 3v5h1v-5h-1zM24.98 6.305l-3.536 3.536 0.707 0.707 3.536-3.536-0.707-0.707zM28.992 14.992h-5v1h5v-1zM4.008 15.992h5v-1h-5v1zM7.313 7.012l3.536 3.536 0.707-0.707-3.536-3.536-0.707 0.707z"></path>
</svg>
