<!-- Generated by IcoMoon.io -->
<svg version="1.1" xmlns="http://www.w3.org/2000/svg" width="32" height="32" viewBox="0 0 32 32">
<title>one-finger-swipe</title>
<path d="M20.972 14h6.078l-3.25-3.25 0.75-0.75 4.5 4.5-4.5 4.5-0.75-0.75 3.25-3.25h-6.050v16h-9v-16h-6.050l3.25 3.25-0.75 0.75-4.5-4.5 4.5-4.5 0.75 0.75-3.25 3.25h6.078c0.232-2.088 1.888-3.742 3.972-3.973v-6.077l-3.25 3.25-0.75-0.75 4.5-4.5 4.5 4.5-0.75 0.75-3.25-3.25v6.078c2.081 0.231 3.739 1.887 3.972 3.972v0 0zM16.5 11c-1.933 0-3.5 1.571-3.5 3.507v15.493h7v-15.493c0-1.937-1.571-3.507-3.5-3.507v0zM16.5 12v0c1.39 0 2.5 1.124 2.5 2.51v3.49h-5v-3.49c0-1.381 1.119-2.51 2.5-2.51zM16.5 13c-0.828 0-1.5 0.679-1.5 1.501v2.499h3v-2.499c0-0.829-0.666-1.501-1.5-1.501v0zM14 21v1h5v-1h-5zM14 23v1h5v-1h-5z"></path>
</svg>
