<!-- Generated by IcoMoon.io -->
<svg version="1.1" xmlns="http://www.w3.org/2000/svg" width="32" height="32" viewBox="0 0 32 32">
<title>one-finger-double-tap</title>
<path d="M18.808 11.253c0.751-1.060 1.192-2.355 1.192-3.753 0-3.59-2.91-6.5-6.5-6.5s-6.5 2.91-6.5 6.5c0 2.301 1.196 4.323 3 5.478v-1.235c-1.222-1.009-2-2.535-2-4.243 0-3.038 2.462-5.5 5.5-5.5s5.5 2.462 5.5 5.5c0 1.333-0.474 2.556-1.264 3.508 0.376 0.025 0.737 0.11 1.072 0.245v0 0zM17 10.329c0.625-0.773 1-1.757 1-2.829 0-2.485-2.015-4.5-4.5-4.5s-4.5 2.015-4.5 4.5c0 1.072 0.375 2.056 1 2.829v-2.837c0-1.93 1.567-3.491 3.5-3.491 1.929 0 3.5 1.563 3.5 3.491v2.837zM19.499 31c4.143 0 7.501-3.585 7.501-7.5 0 0 0 2.313 0 0v-5.998c0-0.829-0.666-1.502-1.5-1.502-0.828 0-1.5 0.671-1.5 1.502v0.498h-1v-2.494c0-0.832-0.666-1.506-1.5-1.506-0.828 0-1.5 0.672-1.5 1.506v1.494h-1v-2.494c0-0.832-0.666-1.506-1.5-1.506-0.828 0-1.5 0.672-1.5 1.506v3.494h-1v-10.495c0-0.831-0.666-1.505-1.5-1.505-0.828 0-1.5 0.667-1.5 1.505v11.295c-2.058-2.2-4.768-4.621-5.879-3.504-1.087 1.093 1.714 4.105 5.626 10.687 1.763 2.966 3.993 5.016 7.751 5.017v0zM28 23.5c0 4.694-3.806 8.5-8.5 8.5-3.113 0-6.398-1.453-8.659-5.572-3.264-5.946-7.437-9.845-5.45-11.832 1.422-1.422 3.654-0.058 5.609 1.771v0-8.858c0-1.393 1.119-2.508 2.5-2.508 1.39 0 2.5 1.123 2.5 2.508v4.99c0.418-0.313 0.937-0.498 1.5-0.498 1.083 0 1.995 0.677 2.346 1.628 0.441-0.39 1.020-0.628 1.654-0.628 1.39 0 2.5 1.118 2.5 2.498v0.013c0.418-0.313 0.937-0.497 1.5-0.497 1.39 0 2.5 1.119 2.5 2.5v5.986z"></path>
</svg>
