<!-- Generated by IcoMoon.io -->
<svg version="1.1" xmlns="http://www.w3.org/2000/svg" width="32" height="32" viewBox="0 0 32 32">
<title>one-finger-tap2</title>
<path d="M21 20.981c1.835-1.559 3-3.884 3-6.481 0-4.694-3.806-8.5-8.5-8.5s-8.5 3.806-8.5 8.5c0 2.597 1.165 4.922 3 6.481v-1.382c-1.241-1.338-2-3.13-2-5.099 0-4.142 3.358-7.5 7.5-7.5s7.5 3.358 7.5 7.5c0 1.969-0.759 3.761-2 5.099v1.382zM15.5 10v0c2.48 0 4.5 2.017 4.5 4.505v16.495h-9v-16.495c0-2.491 2.015-4.505 4.5-4.505zM15.5 11c-1.933 0-3.5 1.571-3.5 3.507v15.493h7v-15.493c0-1.937-1.571-3.507-3.5-3.507v0zM15.5 12v0c1.39 0 2.5 1.124 2.5 2.51v3.49h-5v-3.49c0-1.381 1.119-2.51 2.5-2.51zM15.5 13c-0.828 0-1.5 0.679-1.5 1.501v2.499h3v-2.499c0-0.829-0.666-1.501-1.5-1.501v0zM13 21v1h5v-1h-5zM13 23v1h5v-1h-5z"></path>
</svg>
