<!-- Generated by IcoMoon.io -->
<svg version="1.1" xmlns="http://www.w3.org/2000/svg" width="32" height="32" viewBox="0 0 32 32">
<title>paperclip</title>
<path d="M22.010 16.146l-8.488 8.488c-1.561 1.561-4.095 1.556-5.654-0.003v0c-1.562-1.562-1.566-4.091 0.004-5.661l11.659-11.659c0.978-0.978 2.556-0.987 3.539-0.004v0c0.976 0.976 0.977 2.558 0.005 3.53l-11.678 11.678c-0.387 0.387-1.015 0.387-1.408-0.006v0c-0.391-0.391-0.391-1.024-0.001-1.413l8.486-8.486-0.707-0.707-8.481 8.481c-0.783 0.783-0.791 2.046-0.004 2.833v0c0.781 0.781 2.043 0.785 2.822 0.006l11.675-11.675c1.366-1.366 1.363-3.584-0.001-4.948v0c-1.367-1.367-3.581-1.369-4.951 0.002l-11.666 11.666c-1.952 1.952-1.948 5.122 0.001 7.070v0c1.953 1.953 5.119 1.952 7.077-0.006l8.479-8.479-0.707-0.707z"></path>
</svg>
