<!-- Generated by IcoMoon.io -->
<svg version="1.1" xmlns="http://www.w3.org/2000/svg" width="32" height="32" viewBox="0 0 32 32">
<title>paperclip1</title>
<path d="M16.5 29v0c-6.904 0-12.5-5.596-12.5-12.5s5.596-12.5 12.5-12.5c6.904 0 12.5 5.596 12.5 12.5s-5.596 12.5-12.5 12.5zM20.596 17.561l-4.948 4.948c-1.563 1.563-4.1 1.561-5.659 0.002-1.562-1.562-1.565-4.092 0.005-5.662l7.414-7.414c0.98-0.98 2.558-0.989 3.541-0.006 0.976 0.976 0.974 2.561-0.002 3.538l-7.418 7.418c-0.393 0.393-1.026 0.398-1.419 0.005-0.391-0.391-0.387-1.027-0.002-1.412l4.952-4.952-0.707-0.707-4.952 4.952c-0.78 0.78-0.785 2.040 0.002 2.827 0.781 0.781 2.047 0.782 2.824 0.004l7.435-7.435c1.363-1.364 1.358-3.58-0.006-4.944-1.367-1.367-3.586-1.364-4.955 0.005l-7.425 7.425c-1.95 1.95-1.943 5.117 0.006 7.065 1.953 1.953 5.112 1.959 7.073-0.002l4.948-4.948-0.707-0.707z"></path>
</svg>
