<!-- Generated by IcoMoon.io -->
<svg version="1.1" xmlns="http://www.w3.org/2000/svg" width="20" height="20" viewBox="0 0 20 20">
<title>php-elephant</title>
<path d="M10 12v8c-5.52-0.003-9.994-4.479-9.994-10 0-4.874 3.486-8.933 8.101-9.82l0.063-0.010 1.83 1.83h5c0 0 0 0 0 0 2.758 0 4.994 2.233 5 4.989v9.021c-0.006 2.205-1.794 3.99-4 3.99 0 0 0 0 0 0v0-2c1.105 0 2-0.895 2-2s-0.895-2-2-2v0h-4l-2-2zM15.5 9c0.828 0 1.5-0.672 1.5-1.5s-0.672-1.5-1.5-1.5v0c-0.828 0-1.5 0.672-1.5 1.5s0.672 1.5 1.5 1.5v0z"></path>
</svg>
