<!-- Generated by IcoMoon.io -->
<svg version="1.1" xmlns="http://www.w3.org/2000/svg" width="32" height="32" viewBox="0 0 32 32">
<title>printer-text3</title>
<path d="M6 9v-6.003c0-1.102 0.894-1.997 1.997-1.997h15.005c1.107 0 1.997 0.894 1.997 1.997v6.003h-19zM5 25h-1.006c-1.654 0-2.994-1.343-2.994-2.999v-9.001c0-1.655 1.341-2.999 2.994-2.999h23.011c1.654 0 2.994 1.343 2.994 2.999v9.001c0 1.655-1.341 2.999-2.994 2.999h-1.006v-5h-21v5zM6 21h19v8c0 1.112-0.894 2-1.997 2h-15.005c-1.107 0-1.997-0.895-1.997-2v-8zM24 16c0.552 0 1-0.448 1-1s-0.448-1-1-1c-0.552 0-1 0.448-1 1s0.448 1 1 1v0zM8 24v1h15v-1h-15zM8 27v1h15v-1h-15z"></path>
</svg>
