<!-- Generated by IcoMoon.io -->
<svg version="1.1" xmlns="http://www.w3.org/2000/svg" width="32" height="32" viewBox="0 0 32 32">
<title>printer-text2</title>
<path d="M25 25h2.006c1.654 0 2.994-1.344 2.994-2.999v-9.001c0-1.657-1.341-2.999-2.994-2.999h-2.006v-7c0-1.104-0.891-2-1.997-2h-15.005c-1.103 0-1.997 0.887-1.997 2v7h-2.006c-1.654 0-2.994 1.344-2.994 2.999v9.001c0 1.657 1.341 2.999 2.994 2.999h2.006v4c0 1.104 0.891 2 1.997 2h15.005c1.103 0 1.997-0.887 1.997-2v-4zM6 24h-1.993c-1.109 0-2.007-0.897-2.007-2.003v-8.994c0-1.109 0.899-2.003 2.007-2.003h22.985c1.109 0 2.007 0.897 2.007 2.003v8.994c0 1.109-0.899 2.003-2.007 2.003h-1.993v-3h-19v3zM8 2h15c0.545 0 1 0.446 1 0.997v7.003h-17v-7.003c0-0.544 0.448-0.997 1-0.997zM7 22h17v7.003c0 0.544-0.448 0.997-1 0.997h-15c-0.545 0-1-0.446-1-0.997v-7.003zM24 16c0.552 0 1-0.448 1-1s-0.448-1-1-1c-0.552 0-1 0.448-1 1s0.448 1 1 1v0zM8 24v1h15v-1h-15zM8 27v1h15v-1h-15z"></path>
</svg>
