<!-- Generated by IcoMoon.io -->
<svg version="1.1" xmlns="http://www.w3.org/2000/svg" width="20" height="20" viewBox="0 0 20 20">
<title>radarcopy2</title>
<path d="M12 10c-0.005 1.101-0.898 1.992-2 1.992-0.55 0-1.049-0.222-1.41-0.582l0 0c-0.359-0.362-0.582-0.86-0.582-1.41 0-1.102 0.891-1.995 1.991-2h0v-8c0.009-0 0.019-0 0.030-0 5.506 0 9.97 4.464 9.97 9.97 0 0.011-0 0.021-0 0.032v-0.002h-8zM19.9 11.41c-0.715 4.883-4.875 8.59-9.9 8.59-5.523 0-10-4.477-10-10 0-5.025 3.707-9.185 8.536-9.894l0.054-0.007v2.030c-3.768 0.696-6.584 3.956-6.584 7.874 0 4.418 3.582 8 8 8 3.918 0 7.178-2.816 7.866-6.534l0.008-0.049h2.020zM15.83 11.41c-0.662 2.648-3.020 4.579-5.829 4.579-3.314 0-6-2.686-6-6 0-2.809 1.931-5.168 4.538-5.821l0.041-0.009v2.1c-1.523 0.585-2.583 2.036-2.583 3.734 0 1.109 0.453 2.113 1.183 2.836l0 0c0.723 0.719 1.719 1.163 2.82 1.163 1.7 0 3.152-1.060 3.731-2.555l0.009-0.027h2.1z"></path>
</svg>
