<!-- Generated by IcoMoon.io -->
<svg version="1.1" xmlns="http://www.w3.org/2000/svg" width="32" height="32" viewBox="0 0 32 32">
<title>raindrops1</title>
<path d="M9 11.5c0-1.684 2.511-4.5 2.511-4.5s2.489 2.816 2.489 4.5c0 1.2-0.813 2.5-2.489 2.5s-2.511-1.2-2.511-2.5v0zM19 15.5c0-1.684 2.511-4.5 2.511-4.5s2.489 2.816 2.489 4.5c0 1.2-0.813 2.5-2.489 2.5s-2.511-1.2-2.511-2.5v0zM12 23.5c0-1.684 2.511-4.5 2.511-4.5s2.489 2.816 2.489 4.5c0 1.2-0.813 2.5-2.489 2.5s-2.511-1.2-2.511-2.5v0z"></path>
</svg>
