<!-- Generated by IcoMoon.io -->
<svg version="1.1" xmlns="http://www.w3.org/2000/svg" width="32" height="32" viewBox="0 0 32 32">
<title>rainbow</title>
<path d="M16 11c8.634 0 15.67 6.838 15.989 15.394 0.007 0.034 0.011 0.070 0.011 0.106 0 0.276-0.224 0.5-0.5 0.5s-0.5-0.224-0.5-0.5c-0.272-8.053-6.883-14.5-15-14.5s-14.728 6.447-14.992 14.5c-0.008 0.276-0.232 0.5-0.508 0.5s-0.5-0.224-0.5-0.5c0-0.036 0.004-0.072 0.011-0.106 0.319-8.556 7.355-15.394 15.989-15.394v0zM16 13c7.526 0 13.665 5.938 13.987 13.385 0.009 0.037 0.013 0.075 0.013 0.115 0 0.276-0.224 0.5-0.5 0.5s-0.5-0.224-0.5-0.5c-0.272-6.948-5.988-12.5-13-12.5s-12.728 5.552-12.991 12.5c-0.009 0.276-0.233 0.5-0.509 0.5s-0.5-0.224-0.5-0.5c0-0.040 0.005-0.078 0.013-0.115 0.322-7.447 6.461-13.385 13.987-13.385v0zM16 15c6.417 0 11.658 5.037 11.984 11.374 0.010 0.040 0.016 0.083 0.016 0.126 0 0.276-0.224 0.5-0.5 0.5s-0.5-0.224-0.5-0.5c-0.273-5.843-5.092-10.5-11-10.5s-10.727 4.657-10.989 10.5c-0.011 0.276-0.235 0.5-0.511 0.5s-0.5-0.224-0.5-0.5c0-0.044 0.006-0.086 0.016-0.126 0.326-6.336 5.567-11.374 11.984-11.374v0zM0.503 28c-0.278 0-0.503 0.232-0.503 0.5 0 0.276 0.221 0.5 0.503 0.5h30.995c0.278 0 0.503-0.232 0.503-0.5 0-0.276-0.221-0.5-0.503-0.5h-30.995zM28 12.5c0-3.038-2.462-5.5-5.5-5.5-2.166 0-4.039 1.252-4.936 3.071 0.359 0.033 0.714 0.077 1.066 0.131 0.785-1.319 2.224-2.202 3.87-2.202 2.485 0 4.5 2.015 4.5 4.5 0 0.475-0.074 0.933-0.21 1.363 0.276 0.227 0.546 0.463 0.807 0.707 0.26-0.639 0.403-1.338 0.403-2.070v0zM22 3.495v2.009c0 0.274 0.232 0.495 0.5 0.495 0.276 0 0.5-0.216 0.5-0.495v-2.009c0-0.274-0.232-0.495-0.5-0.495-0.276 0-0.5 0.216-0.5 0.495v0zM28.534 5.788l-1.421 1.421c-0.193 0.193-0.186 0.514 0.003 0.704 0.195 0.195 0.506 0.201 0.704 0.003l1.421-1.421c0.193-0.193 0.186-0.514-0.003-0.704-0.195-0.195-0.506-0.201-0.704-0.003v0zM31.534 12.029h-2.009c-0.274 0-0.495 0.232-0.495 0.5 0 0.276 0.216 0.5 0.495 0.5h2.009c0.274 0 0.495-0.232 0.495-0.5 0-0.276-0.216-0.5-0.495-0.5v0zM15.759 6.495l1.421 1.421c0.193 0.193 0.514 0.186 0.704-0.003 0.195-0.195 0.201-0.506 0.003-0.704l-1.421-1.421c-0.193-0.193-0.514-0.186-0.704 0.003-0.195 0.195-0.201 0.506-0.003 0.704v0z"></path>
</svg>
