<!-- Generated by IcoMoon.io -->
<svg version="1.1" xmlns="http://www.w3.org/2000/svg" width="32" height="32" viewBox="0 0 32 32">
<title>rock-n-roll1</title>
<path d="M19 14v-1.495c0-0.831-0.666-1.505-1.5-1.505-0.828 0-1.5 0.668-1.5 1.505v2.495h-1v-9.495c0-0.831-0.666-1.505-1.5-1.505-0.828 0-1.5 0.667-1.5 1.505v9.752c-2.010-2.193-4.648-4.587-5.754-3.475-1.087 1.093 1.557 4.107 5.469 10.689 0.46 0.775 0.953 1.487 1.496 2.117 1.338 2.054 3.655 3.413 6.289 3.413 4.142 0 7.5-3.358 7.5-7.5v-12.009c0-0.824-0.666-1.491-1.5-1.491-0.828 0-1.5 0.663-1.5 1.491v6.509h-1v-1.495c0-0.831-0.666-1.505-1.5-1.505-0.828 0-1.5 0.668-1.5 1.505v0.495h-1z"></path>
</svg>
