<!-- Generated by IcoMoon.io -->
<svg version="1.1" xmlns="http://www.w3.org/2000/svg" width="32" height="32" viewBox="0 0 32 32">
<title>rock-n-roll</title>
<path d="M28 20.5v-12.007c0-1.377-1.11-2.493-2.5-2.493-1.381 0-2.5 1.114-2.5 2.493v3.004c-0.417-0.312-0.935-0.496-1.5-0.496-0.634 0-1.214 0.238-1.654 0.628-0.351-0.951-1.263-1.628-2.346-1.628-0.563 0-1.082 0.187-1.5 0.502v-4.994c0-1.385-1.11-2.508-2.5-2.508-1.381 0-2.5 1.115-2.5 2.508v7.858c-1.955-1.829-4.187-3.192-5.609-1.771-1.987 1.987 2.186 5.887 5.45 11.832 2.261 4.119 5.546 5.572 8.659 5.572 4.694 0 8.5-3.806 8.5-8.5zM19.5 28c-3.76-0-5.99-2.051-7.753-5.017-3.912-6.582-6.713-9.594-5.626-10.687 1.111-1.117 3.821 1.302 5.879 3.503v-10.29c0-0.842 0.672-1.509 1.5-1.509 0.834 0 1.5 0.675 1.5 1.509v9.491h1v-2.503c0-0.825 0.672-1.497 1.5-1.497 0.834 0 1.5 0.67 1.5 1.497v1.503h1v-0.503c0-0.825 0.672-1.497 1.5-1.497 0.834 0 1.5 0.67 1.5 1.497v1.503h1v-6.509c0-0.829 0.672-1.491 1.5-1.491 0.834 0 1.5 0.668 1.5 1.491v12.009c0 4.142-3.358 7.5-7.5 7.5v0z"></path>
</svg>
