<!-- Generated by IcoMoon.io -->
<svg version="1.1" xmlns="http://www.w3.org/2000/svg" width="32" height="32" viewBox="0 0 32 32">
<title>sad-face2</title>
<path d="M16.5 29v0c-6.904 0-12.5-5.596-12.5-12.5s5.596-12.5 12.5-12.5c6.904 0 12.5 5.596 12.5 12.5s-5.596 12.5-12.5 12.5zM16.5 28c6.351 0 11.5-5.149 11.5-11.5s-5.149-11.5-11.5-11.5c-6.351 0-11.5 5.149-11.5 11.5s5.149 11.5 11.5 11.5v0zM10 12v1h4v-1h-4zM19 12v1h4v-1h-4zM16.481 21c-3.481 0-5.481 2-5.481 2v-1c0 0 2-2 5.481-2s5.519 2 5.519 2v1c0 0-2.037-2-5.519-2v0z"></path>
</svg>
