<!-- Generated by IcoMoon.io -->
<svg version="1.1" xmlns="http://www.w3.org/2000/svg" width="32" height="32" viewBox="0 0 32 32">
<title>sailing-boat</title>
<path d="M7.17 23c0.41 1.165 1.518 2 2.83 2h13c1.306 0 2.417-0.836 2.829-2h-18.659zM17 22h10c0 2.205-1.791 4-3.999 4h-13.001c-2.209 0-3.999-1.791-3.999-4h10v-15h1v15zM27 21l-9-9v9h9zM24.5 20h-5.5v-5.5l5.5 5.5zM9 12.5v0c3-5 6-5.5 6-5.5s-1 3.5-1 8c0 4.5 1 6 1 6h-9c0 0 0-3.5 3-8.5zM9.397 13.809c-2.297 4.36-2.297 6.191-2.297 6.191h6.5c0 0-0.6-1.809-0.6-5s0.6-6.228 0.6-6.228c0 0-2.24 1.312-4.203 5.037v0z"></path>
</svg>
