<!-- Generated by IcoMoon.io -->
<svg version="1.1" xmlns="http://www.w3.org/2000/svg" width="32" height="32" viewBox="0 0 32 32">
<title>sailing-boat-water</title>
<path d="M21.671 23h0.329c2.209 0 3.999-1.795 3.999-4h-10v-15h-1v15h-10c0 0.876 0.282 1.686 0.759 2.345 0.311-0.151 0.625-0.29 0.94-0.418-0.228-0.272-0.409-0.586-0.529-0.928v0h4.374c0.567-0.043 1.138-0.044 1.71 0h12.575c-0.412 1.164-1.523 2-2.829 2h-3.911c1.221 0.576 2.417 0.899 3.582 1v0 0zM26 18l-9-9v9h9zM23.5 17h-5.5v-5.5l5.5 5.5zM8 9.5v0c3-5 6-5.5 6-5.5s-1 3.5-1 8c0 4.5 1 6 1 6h-9c0 0 0-3.5 3-8.5zM8.397 10.809c-2.297 4.36-2.297 6.191-2.297 6.191h6.5c0 0-0.6-1.809-0.6-5s0.6-6.228 0.6-6.228c0 0-2.24 1.312-4.203 5.037v0zM3 24c0.432-0.319 0.901-0.634 1.405-0.934 4.032-2.406 8.441-2.965 12.82-0.502 4.021 2.262 7.786 1.761 11.12-0.452 0.623-0.414 1.177-0.857 1.655-1.299v1.322c-0.341 0.277-0.709 0.549-1.102 0.81-3.622 2.405-7.778 2.957-12.164 0.491-4.022-2.262-8.065-1.75-11.817 0.489-0.713 0.425-1.353 0.881-1.911 1.336-0.002 0.002-0.004 0.003-0.006 0.005v-1.266zM5.979 25.232c3.592-1.665 7.43-1.813 11.245 0.333 3.481 1.958 6.771 1.846 9.755 0.344v1.109c-3.143 1.433-6.616 1.46-10.245-0.581-3.645-2.050-7.307-1.822-10.755-0.094v-1.11z"></path>
</svg>
