<!-- Generated by IcoMoon.io -->
<svg version="1.1" xmlns="http://www.w3.org/2000/svg" width="32" height="32" viewBox="0 0 32 32">
<title>sailing-boat-water1</title>
<path d="M21.671 23h0.329c2.209 0 3.999-1.795 3.999-4h-10v-15h-1v15h-10c0 0.876 0.282 1.686 0.759 2.345 3.661-1.772 7.586-1.975 11.486 0.219 1.515 0.852 2.993 1.312 4.426 1.436v0 0zM26 18h-9v-9l9 9zM8 9.5c-3 5-3 8.5-3 8.5h9c0 0-1-1.5-1-6s1-8 1-8c0 0-3 0.5-6 5.5v0zM3 25c0.432-0.319 0.901-0.634 1.405-0.934 4.032-2.406 8.441-2.965 12.82-0.502 4.021 2.262 7.786 1.761 11.12-0.452 0.623-0.414 1.177-0.857 1.655-1.299v1.322c-0.341 0.277-0.709 0.549-1.102 0.81-3.622 2.405-7.778 2.957-12.164 0.491-4.022-2.262-8.065-1.75-11.817 0.489-0.713 0.425-1.353 0.881-1.911 1.336-0.002 0.002-0.004 0.003-0.006 0.005v-1.266zM5.979 26.232c3.592-1.665 7.43-1.813 11.245 0.333 3.481 1.958 6.771 1.846 9.755 0.344v1.109c-3.143 1.433-6.616 1.46-10.245-0.581-3.645-2.050-7.307-1.822-10.755-0.094v-1.11z"></path>
</svg>
