<!-- Generated by IcoMoon.io -->
<svg version="1.1" xmlns="http://www.w3.org/2000/svg" width="20" height="20" viewBox="0 0 20 20">
<title>servers</title>
<path d="M0 2c0-1.1 0.9-2 2-2h16c1.105 0 2 0.895 2 2v0 2c0 1.105-0.895 2-2 2v0h-16c-1.105 0-2-0.895-2-2v0-2zM0 9c0-1.1 0.9-2 2-2h16c1.105 0 2 0.895 2 2v0 2c0 1.105-0.895 2-2 2v0h-16c-1.105 0-2-0.895-2-2v0-2zM0 16c0-1.1 0.9-2 2-2h16c1.105 0 2 0.895 2 2v0 2c0 1.105-0.895 2-2 2v0h-16c-1.105 0-2-0.895-2-2v0-2zM12 2v2h2v-2h-2zM16 2v2h2v-2h-2zM12 9v2h2v-2h-2zM16 9v2h2v-2h-2zM12 16v2h2v-2h-2zM16 16v2h2v-2h-2z"></path>
</svg>
