<!-- Generated by IcoMoon.io -->
<svg version="1.1" xmlns="http://www.w3.org/2000/svg" width="32" height="32" viewBox="0 0 32 32">
<title>shredder</title>
<path d="M26 23h1.006c1.654 0 2.994-1.349 2.994-3.006v-4.988c0-1.66-1.341-3.006-2.994-3.006h-2.006v-7c0-1.104-0.891-2-1.997-2h-15.005c-1.103 0-1.997 0.887-1.997 2v7h-2.006c-1.654 0-2.994 1.349-2.994 3.006v4.988c0 1.66 1.341 3.006 2.994 3.006h1.006v-3h21v3zM4 22c-1.106-0.004-2-0.897-2-1.997v-5.005c0-1.102 0.899-1.997 2.007-1.997h22.985c1.109 0 2.007 0.894 2.007 1.997v5.005c0 1.099-0.895 1.993-2 1.997v-3h-23v3zM8 4h15c0.545 0 1 0.446 1 0.997v7.003h-17v-7.003c0-0.544 0.448-0.997 1-0.997zM24 17c0.552 0 1-0.448 1-1s-0.448-1-1-1c-0.552 0-1 0.448-1 1s0.448 1 1 1v0zM6 21v8h1v-8h-1zM8 21v7h1v-7h-1zM10 21v8h1v-8h-1zM12 21v6h1v-6h-1zM14 21v7h1v-7h-1zM16 21v6h1v-6h-1zM18 21v8h1v-8h-1zM22 21v7h1v-7h-1zM24 21v8h1v-8h-1zM20 21v6h1v-6h-1z"></path>
</svg>
