<!-- Generated by IcoMoon.io -->
<svg version="1.1" xmlns="http://www.w3.org/2000/svg" width="32" height="32" viewBox="0 0 32 32">
<title>shredder1</title>
<path d="M6 11v-6.003c0-1.102 0.894-1.997 1.997-1.997h15.005c1.107 0 1.997 0.894 1.997 1.997v6.003h-19zM5 23h-1.006c-1.654 0-2.994-1.346-2.994-3.006v-4.988c0-1.657 1.341-3.006 2.994-3.006h23.011c1.654 0 2.994 1.346 2.994 3.006v4.988c0 1.657-1.341 3.006-2.994 3.006h-1.006v-3h-21v3zM24 17c0.552 0 1-0.448 1-1s-0.448-1-1-1c-0.552 0-1 0.448-1 1s0.448 1 1 1v0zM6 21v8h1v-8h-1zM8 21v7h1v-7h-1zM10 21v8h1v-8h-1zM12 21v6h1v-6h-1zM14 21v7h1v-7h-1zM16 21v6h1v-6h-1zM18 21v8h1v-8h-1zM22 21v7h1v-7h-1zM24 21v8h1v-8h-1zM20 21v6h1v-6h-1z"></path>
</svg>
