<!-- Generated by IcoMoon.io -->
<svg version="1.1" xmlns="http://www.w3.org/2000/svg" width="32" height="32" viewBox="0 0 32 32">
<title>shuttlecock</title>
<path d="M12.043 27.165l1.902-16.165h3.111l1.896 16.118-3.452 2.632-3.457-2.586zM11.052 27.025l-2.993 2.64-1.97-1.998 3.91-16.667h2.938l-1.885 16.025zM19.955 27.090l-1.893-16.090h2.938l3.892 16.667-1.931 1.998-3.005-2.575zM22 11v-2.5c0-3.59-2.91-6.5-6.5-6.5s-6.5 2.91-6.5 6.5v2.5l-4 17 3 3 3.5-3 4 3 4-3 3.5 3 3-3-4-17zM10 10v-1.5c0-3.038 2.462-5.5 5.5-5.5s5.5 2.462 5.5 5.5v1.5h-11z"></path>
</svg>
