<!-- Generated by IcoMoon.io -->
<svg version="1.1" xmlns="http://www.w3.org/2000/svg" width="32" height="32" viewBox="0 0 32 32">
<title>smirking-face</title>
<path d="M14 12c0.552 0 1 0.448 1 1s-0.448 1-1 1c-0.552 0-1-0.448-1-1h-2v-1h3zM21 12c0.552 0 1 0.448 1 1s-0.448 1-1 1c-0.552 0-1-0.448-1-1h-2v-1h3zM16.5 29v0c-6.904 0-12.5-5.596-12.5-12.5s5.596-12.5 12.5-12.5c6.904 0 12.5 5.596 12.5 12.5s-5.596 12.5-12.5 12.5zM16.5 28c6.351 0 11.5-5.149 11.5-11.5s-5.149-11.5-11.5-11.5c-6.351 0-11.5 5.149-11.5 11.5s5.149 11.5 11.5 11.5v0zM15.519 22h2.989c0.824 0 1.492-0.677 1.492-1.495v-0.505h1c0 0 0 0.5 0 1 0 1-1 2-2 2h-7v-1h3.519z"></path>
</svg>
