<!-- Generated by IcoMoon.io -->
<svg version="1.1" xmlns="http://www.w3.org/2000/svg" width="32" height="32" viewBox="0 0 32 32">
<title>soccer-shoe1</title>
<path d="M14.074 12.53c-0.127 0.090-0.253 0.182-0.377 0.275v0l1.035 1.591-0.838 0.545-0.993-1.527c-0.141 0.11-0.28 0.218-0.417 0.323l0.949 1.458-0.838 0.545-0.92-1.414c-0.152 0.102-0.3 0.195-0.447 0.278v0l0.905 1.391-0.838 0.545-1.018-1.565c-0.093 0.016-0.185 0.024-0.275 0.024-0.367 0-0.7 0-1 0v0 0.5c0 0.179 0.051 0.483 0.197 0.776 0.231 0.461 0.624 0.724 1.303 0.724h5.5c0.634 0 1.084 0.3 1.322 0.776 0.092 0.184 0.141 0.362 0.163 0.519 1.962-0.324 4.515-0.26 4.515-0.26h7.002c-0.034-1.412-0.149-3.316-0.489-4.787l-0.16 0.105c-0.091 0.091-0.258 0.241-0.497 0.43-0.391 0.309-0.847 0.617-1.364 0.904-1.476 0.82-3.152 1.313-4.993 1.313-2.901 0-4.792-1.576-5.839-3.557-0.043-0.081-0.125-0.305-0.274-0.733v0c-0.162 0.085-0.321 0.175-0.478 0.269l1.004 1.543-0.838 0.545-1.001-1.538zM8 15c-0.664 0-0.995 0-0.995 0-1.66 0-3.005 1.35-3.005 3.009 0 0.342 0.043 0.674 0.125 0.991v0h8.875c1.138 0 2.271-0.245 3.5-0.508-0.002-0.057-0.022-0.168-0.072-0.269-0.074-0.149-0.187-0.224-0.428-0.224h-5.5c-1.071 0-1.803-0.488-2.197-1.276-0.228-0.457-0.303-0.903-0.303-1.224v-0.5zM4.534 20c0.693 1.195 1.989 2 3.469 2h1.997v1h1v-1h2v1h1v-1h2v1h1v-1h2v1h1v-1h2v1h1v-1h2v1h1v-1h0.996c1.107 0 2.014-0.9 2.009-1.992 0 0 0.012-0.39 0.010-1.008h-7.015c0 0-3 0-4.697 0.344-1.499 0.304-2.894 0.656-4.303 0.656h-8.466zM16.305 11.306c0.538-0.191 1.102-0.306 1.695-0.306 1.5 0 1 1.971 4 1.971s2.721-1.971 5-1.971c0.534 0 0.928 0.495 1.218 1.253l-0.496 0.331c-0.141 0.127-0.279 0.251-0.486 0.414-0.351 0.277-0.762 0.555-1.23 0.815-1.336 0.742-2.848 1.187-4.507 1.187-2.459 0-4.063-1.337-4.955-3.024-0.009-0.017-0.113-0.304-0.24-0.67v0z"></path>
</svg>
