<!-- Generated by IcoMoon.io -->
<svg version="1.1" xmlns="http://www.w3.org/2000/svg" width="32" height="32" viewBox="0 0 32 32">
<title>soccer-ball</title>
<path d="M8.816 14.551l3.546 1.505 1.252 4.303-2.464 2.552-4.045 0.222c-1.234-1.745-1.995-3.849-2.094-6.125l3.804-2.457zM8.904 13.502l-1.542-3.986c1.303-1.702 3.070-3.029 5.113-3.792l3.525 2.869v3.814l-3.317 2.7-3.779-1.604zM12.122 23.343l2.263-2.343h4.118l2.351 2.435-1.086 4.095c-1.036 0.306-2.132 0.471-3.267 0.471s-2.232-0.164-3.267-0.471l-1.11-4.186zM21.732 22.904l-2.371-2.456 1.29-4.434 3.5-1.486 3.839 2.479c-0.099 2.276-0.859 4.38-2.094 6.125l-4.164-0.229zM24.113 13.459l-3.826 1.624-3.287-2.676v-3.814l3.525-2.869c2.043 0.763 3.81 2.090 5.113 3.792l-1.525 3.942zM6.664 10.539l1.298 3.365-2.941 1.903c0.114-1.921 0.7-3.715 1.643-5.268zM12.068 27.115c-1.612-0.674-3.038-1.705-4.18-2.993l3.335-0.18 0.845 3.173zM20.932 27.115l0.845-3.173 3.335 0.18c-1.141 1.289-2.567 2.319-4.18 2.993zM26.336 10.539c0.943 1.553 1.529 3.347 1.643 5.268l-2.941-1.903 1.298-3.365zM19.377 5.363l-2.877 2.337-2.877-2.337c0.919-0.237 1.883-0.363 2.877-0.363s1.957 0.126 2.877 0.363zM16.5 29c6.904 0 12.5-5.596 12.5-12.5s-5.596-12.5-12.5-12.5c-6.904 0-12.5 5.596-12.5 12.5s5.596 12.5 12.5 12.5v0zM16.5 13.3l3.2 2.6-1.3 4.1h-3.8l-1.3-4.1 3.2-2.6z"></path>
</svg>
