<!-- Generated by IcoMoon.io -->
<svg version="1.1" xmlns="http://www.w3.org/2000/svg" width="32" height="32" viewBox="0 0 32 32">
<title>soccer-court1</title>
<path d="M2 21v3.003c0 1.103 0.9 1.997 1.993 1.997h12.007v-5.027c-2.25-0.249-4-2.156-4-4.473s1.75-4.224 4-4.473v-5.027h-12.007c-1.101 0-1.993 0.891-1.993 1.997v3.003h5v9h-5zM31 21v3.003c0 1.107-0.892 1.997-1.993 1.997h-12.007v-5.027c2.25-0.249 4-2.156 4-4.473s-1.75-4.224-4-4.473v-5.027h12.007c1.094 0 1.993 0.894 1.993 1.997v3.003h-5v9h5zM17 19.965c1.696-0.243 3-1.701 3-3.465s-1.304-3.222-3-3.465v6.929zM16 13.035c-1.696 0.243-3 1.701-3 3.465s1.304 3.222 3 3.465v-6.929zM27 13v7h4v-7h-4zM2 13v7h4v-7h-4z"></path>
</svg>
