<!-- Generated by IcoMoon.io -->
<svg version="1.1" xmlns="http://www.w3.org/2000/svg" width="20" height="20" viewBox="0 0 20 20">
<title>stand-by</title>
<path d="M4.16 4.16l1.42 1.42c-1.585 1.292-2.588 3.244-2.588 5.43 0 3.86 3.13 6.99 6.99 6.99 0.006 0 0.013 0 0.019-0h-0.001c3.862-0.006 6.99-3.137 6.99-7 0-2.18-0.996-4.127-2.558-5.41l-0.012-0.010 1.42-1.42c1.936 1.661 3.155 4.11 3.155 6.844 0 4.971-4.029 9-9 9s-9-4.029-9-9c0-2.734 1.219-5.183 3.143-6.834l0.012-0.010zM9 0h2v8h-2v-8z"></path>
</svg>
