<!-- Generated by IcoMoon.io -->
<svg version="1.1" xmlns="http://www.w3.org/2000/svg" width="20" height="20" viewBox="0 0 20 20">
<title>station</title>
<path d="M9 11.73c-0.602-0.352-1-0.996-1-1.732 0-1.105 0.895-2 2-2s2 0.895 2 2c0 0.736-0.398 1.38-0.991 1.727l-0.009 0.005v8.27h-2v-8.27zM14.24 14.24l-1.41-1.41c0.733-0.724 1.188-1.729 1.188-2.84 0-2.204-1.786-3.99-3.99-3.99-0.010 0-0.019 0-0.029 0h0.001c-0.001 0-0.002 0-0.003 0-2.209 0-4 1.791-4 4 0 1.105 0.448 2.106 1.173 2.83l0 0-1.41 1.41c-1.084-1.086-1.755-2.585-1.755-4.24 0-3.314 2.686-6 6-6s6 2.686 6 6c0 1.656-0.671 3.155-1.755 4.24l0-0zM17.070 17.070l-1.41-1.41c1.449-1.448 2.345-3.449 2.345-5.659 0-4.418-3.582-8-8-8s-8 3.582-8 8c0 2.21 0.896 4.211 2.345 5.659l0 0-1.42 1.41c-1.81-1.81-2.93-4.31-2.93-7.072 0-5.523 4.477-10 10-10s10 4.477 10 10c0 2.762-1.12 5.262-2.93 7.072l-0 0z"></path>
</svg>
