<!-- Generated by IcoMoon.io -->
<svg version="1.1" xmlns="http://www.w3.org/2000/svg" width="20" height="20" viewBox="0 0 20 20">
<title>stethoscope</title>
<path d="M17 10.27v-5.28c0-0.552-0.448-1-1-1s-1 0.448-1 1v0 10.010c0 2.761-2.239 5-5 5s-5-2.239-5-5v0-1.080c-2.856-0.496-5-2.956-5-5.916 0-0.001 0-0.003 0-0.004v0-6c0-1.1 0.9-2 2-2h1c0.552 0 1 0.448 1 1v0c0 0.552-0.448 1-1 1v0h-1v6c0 2.209 1.791 4 4 4s4-1.791 4-4v0-6h-1c-0.552 0-1-0.448-1-1v0c0-0.552 0.448-1 1-1v0h1c1.105 0 2 0.895 2 2v0 6c0 0.001 0 0.003 0 0.004 0 2.96-2.144 5.42-4.964 5.911l-0.036 0.005v1.080c0 1.657 1.343 3 3 3s3-1.343 3-3v0-10c0-1.657 1.343-3 3-3s3 1.343 3 3v0 5.27c0.602 0.352 1 0.996 1 1.732 0 1.105-0.895 2-2 2s-2-0.895-2-2c0-0.736 0.398-1.38 0.991-1.727l0.009-0.005z"></path>
</svg>
