<!-- Generated by IcoMoon.io -->
<svg version="1.1" xmlns="http://www.w3.org/2000/svg" width="32" height="32" viewBox="0 0 32 32">
<title>stop-watch2</title>
<path d="M15 16.085v-5.584c0-0.271 0.224-0.501 0.5-0.501 0.268 0 0.5 0.224 0.5 0.501v5.584c0.583 0.206 1 0.762 1 1.415s-0.417 1.209-1 1.415v1.584c0 0.271-0.224 0.501-0.5 0.501-0.268 0-0.5-0.224-0.5-0.501v-1.584c-0.583-0.206-1-0.762-1-1.415s0.417-1.209 1-1.415v0 0zM23.271 9.022l1.229-1.229-0.707-0.707 0.707-0.707 2.121 2.121-0.707 0.707-0.707-0.707-1.229 1.229c1.877 2.047 3.022 4.775 3.022 7.771 0 6.351-5.149 11.5-11.5 11.5s-11.5-5.149-11.5-11.5c0-6.184 4.881-11.228 11-11.489v-2.011h-1v-1h3v1h-1v2.011c2.799 0.12 5.338 1.24 7.271 3.012zM15.5 28c5.799 0 10.5-4.701 10.5-10.5s-4.701-10.5-10.5-10.5c-5.799 0-10.5 4.701-10.5 10.5s4.701 10.5 10.5 10.5v0zM15.5 18c0.276 0 0.5-0.224 0.5-0.5s-0.224-0.5-0.5-0.5c-0.276 0-0.5 0.224-0.5 0.5s0.224 0.5 0.5 0.5v0z"></path>
</svg>
