<!-- Generated by IcoMoon.io -->
<svg version="1.1" xmlns="http://www.w3.org/2000/svg" width="32" height="32" viewBox="0 0 32 32">
<title>sunglasses1</title>
<path d="M15.018 12.975c-4.367-1.204-10.525-1.147-13.693-0.614-0.383 0.064-0.443 1.823-0.102 1.884 0.626 0.253 0.893 0.885 0.893 0.885s0.187 0.561 0.73 2.841c0.543 2.28 1.837 2.554 1.837 2.554s1.584 0.392 3.412 0.392c1.827 0 2.921-0.083 4.091-0.668s1.682-2.216 1.682-2.216c0 0 0.59-1.405 0.996-2.73 0.127-0.416 2.065-0.416 2.192 0 0.406 1.326 0.996 2.73 0.996 2.73s0.512 1.63 1.682 2.216c1.17 0.585 2.264 0.668 4.091 0.668s3.412-0.392 3.412-0.392c0 0 1.294-0.273 1.837-2.554s0.73-2.841 0.73-2.841c0 0 0.267-0.632 0.893-0.885 0.34-0.062 0.28-1.82-0.102-1.884-3.168-0.534-9.325-0.59-13.693 0.614-0.296 0.068-1.586 0.068-1.882 0z"></path>
</svg>
