<!-- Generated by IcoMoon.io -->
<svg version="1.1" xmlns="http://www.w3.org/2000/svg" width="32" height="32" viewBox="0 0 32 32">
<title>table-tennis1</title>
<path d="M7.406 16c-0.314-0.92-0.456-1.924-0.39-2.977l0.064-1.029c0.242-3.872 3.569-6.995 7.432-6.995h1.010c3.869 0 7.191 3.132 7.432 6.995l0.064 1.029c0.066 1.052-0.076 2.057-0.39 2.977h-15.223zM7.831 17c1.233 2.391 3.722 4 6.688 4h0.996c2.967 0 5.456-1.609 6.689-4h-14.372zM17.227 21.802l0.291 4.2c0.031 0.551-0.443 0.998-1 0.998h-3c-0.566 0-1.029-0.447-0.998-0.998l0.233-4.189c0.548 0.122 1.122 0.186 1.714 0.186h0.996c0.611 0 1.202-0.068 1.765-0.198v0 0zM26.017 21.5c0-1.105-0.895-2-2-2s-2 0.895-2 2c0 1.105 0.895 2 2 2s2-0.895 2-2v0z"></path>
</svg>
