<!-- Generated by IcoMoon.io -->
<svg version="1.1" xmlns="http://www.w3.org/2000/svg" width="32" height="32" viewBox="0 0 32 32">
<title>table-tennis</title>
<path d="M8.469 16h13.1c0.356-0.903 0.525-1.912 0.447-2.978l-0.075-1.044c-0.231-3.303-3.116-5.978-6.428-5.978h-0.991c-3.316 0-6.197 2.681-6.431 5.978l-0.075 1.044c-0.075 1.066 0.091 2.075 0.453 2.978zM8.978 17c1.131 1.813 3.15 3 5.534 3h1.009c2.381 0 4.4-1.188 5.534-3h-12.078zM17.572 26.003c0.031 0.55-0.444 0.997-1 0.997h-3c-0.566 0-1.028-0.447-1-0.997l0.287-5.175c-3.569-0.766-6.084-3.969-5.844-7.803l0.066-1.028c0.241-3.875 3.569-6.997 7.431-6.997h1.009c3.869 0 7.191 3.131 7.431 6.994l0.066 1.028c0.238 3.822-2.256 7.016-5.806 7.794l0.359 5.188zM13.853 20.972c-0.125 2.275-0.278 5.028-0.281 5.028h3c-0.009 0-0.197-2.753-0.353-5.031-0.231 0.019-0.466 0.031-0.703 0.031h-0.997c-0.225 0-0.447-0.009-0.666-0.028v0zM26.019 21.5c0-1.103-0.897-2-2-2s-2 0.897-2 2 0.897 2 2 2 2-0.897 2-2v0zM23.019 21.5c0-0.553 0.447-1 1-1s1 0.447 1 1-0.447 1-1 1-1-0.447-1-1v0z"></path>
</svg>
