<!-- Generated by IcoMoon.io -->
<svg version="1.1" xmlns="http://www.w3.org/2000/svg" width="32" height="32" viewBox="0 0 32 32">
<title>tag-add1</title>
<path d="M9 21v-3h1v3h3v1h-3v3h-1v-3h-3v-1h3zM6.013 16.013l-2.013-2.013v-8c0-1.112 0.895-2 2-2h8l13.381 13.381c0.783 0.783 0.787 2.051 0.008 2.831l-7.177 7.177c-0.778 0.778-2.047 0.776-2.831-0.008l-2.394-2.394c0.642-1.008 1.013-2.204 1.013-3.487 0-3.59-2.91-6.5-6.5-6.5-1.283 0-2.479 0.372-3.487 1.013v0 0zM9.5 11c0.828 0 1.5-0.672 1.5-1.5s-0.672-1.5-1.5-1.5c-0.828 0-1.5 0.672-1.5 1.5s0.672 1.5 1.5 1.5v0zM9.5 27c3.038 0 5.5-2.462 5.5-5.5s-2.462-5.5-5.5-5.5c-3.038 0-5.5 2.462-5.5 5.5s2.462 5.5 5.5 5.5v0z"></path>
</svg>
