<!-- Generated by IcoMoon.io -->
<svg version="1.1" xmlns="http://www.w3.org/2000/svg" width="32" height="32" viewBox="0 0 32 32">
<title>tag-cancel</title>
<path d="M9.5 22.207l-2.121 2.121-0.707-0.707 2.121-2.121-2.121-2.121 0.707-0.707 2.121 2.121 2.121-2.121 0.707 0.707-2.121 2.121 2.121 2.121-0.707 0.707-2.121-2.121zM6.741 16.741v0 0c-1.639 0.952-2.741 2.727-2.741 4.759 0 3.038 2.462 5.5 5.5 5.5 2.032 0 3.807-1.102 4.759-2.741l3.122 3.122c0.784 0.784 2.052 0.786 2.831 0.008l7.177-7.177c0.78-0.78 0.776-2.047-0.008-2.831l-13.381-13.381h-8c-1.104 0-2 0.887-2 2v8l2.741 2.741zM7.764 16.279l-2.764-2.779v-7.492c0-0.551 0.452-1.008 1.008-1.008h7.492l13.162 13.054c0.391 0.388 0.393 1.017 0.006 1.407l-7.164 7.213c-0.386 0.389-1.016 0.389-1.404-0.002l-3.389-3.407c0.187-0.554 0.289-1.147 0.289-1.764 0-3.038-2.462-5.5-5.5-5.5-0.606 0-1.19 0.098-1.736 0.279v0 0zM9.5 12v0c-1.381 0-2.5-1.119-2.5-2.5s1.119-2.5 2.5-2.5c1.381 0 2.5 1.119 2.5 2.5s-1.119 2.5-2.5 2.5zM9.5 11c0.828 0 1.5-0.672 1.5-1.5s-0.672-1.5-1.5-1.5c-0.828 0-1.5 0.672-1.5 1.5s0.672 1.5 1.5 1.5v0zM9.5 26v0c-2.485 0-4.5-2.015-4.5-4.5s2.015-4.5 4.5-4.5c2.485 0 4.5 2.015 4.5 4.5s-2.015 4.5-4.5 4.5z"></path>
</svg>
