<!-- Generated by IcoMoon.io -->
<svg version="1.1" xmlns="http://www.w3.org/2000/svg" width="32" height="32" viewBox="0 0 32 32">
<title>tag-cord1</title>
<path d="M10.765 6.024h5.239l13.381 13.381c0.783 0.783 0.787 2.051 0.008 2.831l-7.177 7.177c-0.778 0.778-2.047 0.776-2.831-0.008l-13.381-13.381v-8c0-0.95 0.653-1.736 1.532-1.945 0.197 0.318 0.352 0.71 0.445 1.177 0.809 4.080 1.618 5.547 3.446 5.774 0.006 0.001 0.012-0.002 0.018-0.007 0.020 0.001 0.040 0.001 0.059 0.001 0.828 0 1.5-0.672 1.5-1.5 0-0.685-0.46-1.263-1.088-1.443 0-0.007-0-0.012-0.001-0.012-0.271-0.394-0.607-1.455-0.992-3.398-0.044-0.224-0.097-0.44-0.159-0.647v0 0zM9.943 6.866c-0.867-4.368-5.555-4.982-7.362-2.108-1.449 2.305-0.015 6.266 2.423 6.266v-1c-1.552 0-2.648-3.029-1.577-4.734 1.343-2.136 4.851-1.676 5.535 1.77 0.809 4.077 1.419 4.963 3.042 4.963v-1c-0.993 0-1.335-0.496-2.061-4.158v0z"></path>
</svg>
