<!-- Generated by IcoMoon.io -->
<svg version="1.1" xmlns="http://www.w3.org/2000/svg" width="32" height="32" viewBox="0 0 32 32">
<title>tag2</title>
<path d="M14 4l13.381 13.381c0.783 0.783 0.787 2.051 0.008 2.831l-7.177 7.177c-0.778 0.778-2.047 0.776-2.831-0.008l-13.381-13.381v-8c0-1.112 0.895-2 2-2h8zM13.5 5h-7.492c-0.557 0-1.008 0.457-1.008 1.008v7.492l13.1 13.171c0.389 0.391 1.018 0.39 1.404 0.002l7.164-7.212c0.387-0.39 0.385-1.019-0.006-1.407l-13.162-13.054zM9.5 12v0c-1.381 0-2.5-1.119-2.5-2.5s1.119-2.5 2.5-2.5c1.381 0 2.5 1.119 2.5 2.5s-1.119 2.5-2.5 2.5zM9.5 11c0.828 0 1.5-0.672 1.5-1.5s-0.672-1.5-1.5-1.5c-0.828 0-1.5 0.672-1.5 1.5s0.672 1.5 1.5 1.5v0z"></path>
</svg>
