<!-- Generated by IcoMoon.io -->
<svg version="1.1" xmlns="http://www.w3.org/2000/svg" width="32" height="32" viewBox="0 0 32 32">
<title>target2</title>
<path d="M16 27v0c-6.075 0-11-4.925-11-11s4.925-11 11-11c6.075 0 11 4.925 11 11s-4.925 11-11 11zM16 23c3.866 0 7-3.134 7-7s-3.134-7-7-7c-3.866 0-7 3.134-7 7s3.134 7 7 7v0zM16 22v0c-3.314 0-6-2.686-6-6s2.686-6 6-6c3.314 0 6 2.686 6 6s-2.686 6-6 6zM16 19c1.657 0 3-1.343 3-3s-1.343-3-3-3c-1.657 0-3 1.343-3 3s1.343 3 3 3v0zM16 18c1.105 0 2-0.895 2-2s-0.895-2-2-2c-1.105 0-2 0.895-2 2s0.895 2 2 2v0z"></path>
</svg>
