<!-- Generated by IcoMoon.io -->
<svg version="1.1" xmlns="http://www.w3.org/2000/svg" width="32" height="32" viewBox="0 0 32 32">
<title>target-arrow1</title>
<path d="M9 23.771l-1 1v3.229h-1v-2.229l-1.293 1.293-0.707-0.707 1.357-1.357h-2.357v-1h3.357l1-1h-2.357v-1h3.357l5.322-5.322-0.678-0.678 3-1-1 3-0.614-0.614-5.386 5.386v3.229h-1v-2.229zM7.779 21c-1.125-1.726-1.779-3.786-1.779-6 0-6.075 4.925-11 11-11s11 4.925 11 11c0 6.075-4.925 11-11 11-2.214 0-4.274-0.654-6-1.779v-1.072l2.242-2.242c1.086 0.692 2.375 1.093 3.758 1.093 3.866 0 7-3.134 7-7s-3.134-7-7-7c-3.866 0-7 3.134-7 7 0 1.397 0.409 2.699 1.115 3.792l-2.208 2.208h-1.128zM15.497 18.652l-1.527 1.527c0.889 0.521 1.925 0.82 3.030 0.82 3.314 0 6-2.686 6-6s-2.686-6-6-6c-3.314 0-6 2.686-6 6 0 1.12 0.307 2.168 0.841 3.065v0l1.526-1.526-0.951-0.944 1.588-0.454c-0.002-0.047-0.003-0.094-0.003-0.142 0-1.657 1.343-3 3-3s3 1.343 3 3c0 1.657-1.343 3-3 3-0.048 0-0.095-0.001-0.142-0.003l-0.447 1.563-0.915-0.907zM17.144 16.995c1.037-0.074 1.856-0.939 1.856-1.995 0-1.105-0.895-2-2-2-1.056 0-1.921 0.818-1.995 1.856l2.995-0.856-0.856 2.995z"></path>
</svg>
