<!-- Generated by IcoMoon.io -->
<svg version="1.1" xmlns="http://www.w3.org/2000/svg" width="20" height="20" viewBox="0 0 20 20">
<title>target</title>
<path d="M17.94 11h-4.94v-2h4.94c-0.469-3.628-3.311-6.471-6.9-6.936l-0.040-0.004v4.94h-2v-4.94c-3.628 0.469-6.471 3.311-6.936 6.9l-0.004 0.040h4.94v2h-4.94c0.469 3.628 3.311 6.471 6.9 6.936l0.040 0.004v-4.94h2v4.94c3.628-0.469 6.471-3.311 6.936-6.9l0.004-0.040zM10 20c-5.523 0-10-4.477-10-10s4.477-10 10-10v0c5.523 0 10 4.477 10 10s-4.477 10-10 10v0z"></path>
</svg>
