<!-- Generated by IcoMoon.io -->
<svg version="1.1" xmlns="http://www.w3.org/2000/svg" width="32" height="32" viewBox="0 0 32 32">
<title>tennis-ball3</title>
<path d="M27.749 11.043c-0.042-0.086 0.181 0.378 0.317 0.707 0.602 1.465 0.934 3.069 0.934 4.75 0 1.957-0.45 3.808-1.251 5.457-0.242-0.248-0.504-0.477-0.784-0.683-1.080-0.8-2.418-1.274-3.865-1.274-1.456 0-3.060 0.868-4.1 1.4-0.426 0.218-1.513 0.6-2.5 0.6-3.038 0-5.5-2.462-5.5-5.5s2.462-5.5 5.5-5.5c0.987 0 1.658 0.179 2.5 0.6 1 0.5 2.644 1.4 4.1 1.4 1.448 0 2.785-0.473 3.865-1.274 0.279-0.207 0.541-0.435 0.784-0.683v0zM27.247 10.113c0.062 0.104-0.111-0.19-0.271-0.434-2.231-3.419-6.090-5.679-10.476-5.679-6.904 0-12.5 5.596-12.5 12.5s5.596 12.5 12.5 12.5c4.57 0 8.567-2.452 10.747-6.113-0.226-0.259-0.475-0.496-0.745-0.709-0.936-0.738-2.118-1.178-3.403-1.178-1.223 0-2.431 0.648-3.265 1.074s-2.122 0.926-3.335 0.926c-3.59 0-6.5-2.91-6.5-6.5s2.91-6.5 6.5-6.5c1.212 0 2.136 0.319 3.318 0.909s2.059 1.091 3.282 1.091c1.285 0 2.466-0.44 3.403-1.178 0.27-0.213 0.519-0.45 0.745-0.709v0z"></path>
</svg>
