<!-- Generated by IcoMoon.io -->
<svg version="1.1" xmlns="http://www.w3.org/2000/svg" width="32" height="32" viewBox="0 0 32 32">
<title>tennis-ball2</title>
<path d="M16.5 4c-6.904 0-12.5 5.596-12.5 12.5s5.596 12.5 12.5 12.5c6.904 0 12.5-5.596 12.5-12.5s-5.596-12.5-12.5-12.5v0zM16.5 28c-6.351 0-11.5-5.149-11.5-11.5s5.149-11.5 11.5-11.5c4.286 0 8.024 2.345 10.003 5.822-0.936 0.738-2.118 1.178-3.403 1.178-1.223 0-2.1-0.5-3.282-1.091s-2.106-0.909-3.318-0.909c-3.59 0-6.5 2.91-6.5 6.5s2.91 6.5 6.5 6.5c1.212 0 2.5-0.5 3.335-0.926s2.043-1.074 3.265-1.074c1.285 0 2.466 0.44 3.403 1.178-1.978 3.477-5.716 5.822-10.003 5.822v0zM28 16.5v0c0 1.703-0.37 3.32-1.035 4.774-1.080-0.8-2.418-1.274-3.865-1.274-1.456 0-3.060 0.868-4.1 1.4-0.426 0.218-1.513 0.6-2.5 0.6-3.038 0-5.5-2.462-5.5-5.5s2.462-5.5 5.5-5.5c0.987 0 1.658 0.179 2.5 0.6 1 0.5 2.644 1.4 4.1 1.4 1.448 0 2.785-0.473 3.865-1.274 0.664 1.454 1.035 3.071 1.035 4.774z"></path>
</svg>
