<!-- Generated by IcoMoon.io -->
<svg version="1.1" xmlns="http://www.w3.org/2000/svg" width="32" height="32" viewBox="0 0 32 32">
<title>tennis-ball</title>
<path d="M24.294 8.044v0c-2.045 2.226-3.294 5.195-3.294 8.456s1.249 6.23 3.294 8.456c-2.049 1.89-4.787 3.044-7.794 3.044s-5.745-1.154-7.794-3.044c2.045-2.226 3.294-5.195 3.294-8.456s-1.249-6.23-3.294-8.456v0c2.049-1.89 4.787-3.044 7.794-3.044s5.745 1.154 7.794 3.044zM25 8.754c1.864 2.044 3 4.762 3 7.746s-1.136 5.702-3 7.746c-1.864-2.044-3-4.762-3-7.746s1.136-5.702 3-7.746v0zM8 8.754v0 0c1.864 2.044 3 4.762 3 7.746s-1.136 5.702-3 7.746c-1.864-2.044-3-4.762-3-7.746s1.136-5.702 3-7.746zM16.5 29c6.904 0 12.5-5.596 12.5-12.5s-5.596-12.5-12.5-12.5c-6.904 0-12.5 5.596-12.5 12.5s5.596 12.5 12.5 12.5v0z"></path>
</svg>
