<!-- Generated by IcoMoon.io -->
<svg version="1.1" xmlns="http://www.w3.org/2000/svg" width="32" height="32" viewBox="0 0 32 32">
<title>tennis-racket</title>
<path d="M13 5h1v-1h-0.805c-0.066 0.089-0.131 0.18-0.195 0.274v0.726zM13 7h1v-1h-1v1zM12 7v-0.83c-0.109 0.268-0.21 0.545-0.303 0.83h0.303zM13 9h1v-1h-1v1zM12 9v-1h-0.586c-0.079 0.326-0.148 0.66-0.205 1h0.791zM13 14v1h1v-1h-1zM12 14h-0.581c0.156 0.4 0.351 0.755 0.581 1.069v0-1.069zM13 12v1h1v-1h-1zM12 12h-0.986c0.020 0.355 0.061 0.688 0.121 1v0h0.866v-1zM13 10v1h1v-1h-1zM12 10h-0.925c-0.033 0.33-0.055 0.663-0.067 1v0h0.992v-1zM15 5h1v-1h-1v1zM15 2.382v0.618h1v-0.958c-0.343 0.057-0.677 0.173-1 0.341zM15 7h1v-1h-1v1zM15 9h1v-1h-1v1zM15 14v1h1v-1h-1zM14 16.572v-0.572h-1.061c0.324 0.234 0.68 0.424 1.061 0.572zM15 16.86c0.323 0.064 0.657 0.105 1 0.125v-0.986h-1v0.861zM15 12v1h1v-1h-1zM15 10v1h1v-1h-1zM19 4v1h1v-0.726c-0.064-0.094-0.129-0.185-0.195-0.274h-0.805zM17 4v1h1v-1h-1zM17 3h1v-0.618c-0.323-0.167-0.657-0.283-1-0.341v0.958zM19 6v1h1v-1h-1zM17 6v1h1v-1h-1zM19 8v1h1v-1h-1zM21.586 8h-0.586v1h0.791c-0.057-0.34-0.126-0.674-0.205-1zM21.303 7c-0.093-0.285-0.194-0.562-0.303-0.83v0.83h0.303zM17 8v1h1v-1h-1zM19 15h1v-1h-1v1zM19 16v0.572c0.381-0.149 0.737-0.338 1.061-0.572h-1.061zM17 15h1v-1h-1v1zM17 16v0.986c0.343-0.020 0.677-0.061 1-0.125v0-0.861h-1zM19 13h1v-1h-1v1zM21.866 13c0.060-0.312 0.101-0.645 0.121-1v0h-0.986v1h0.866zM21.581 14h-0.581v1.069c0.23-0.313 0.425-0.669 0.581-1.069zM17 13h1v-1h-1v1zM19 11h1v-1h-1v1zM21.992 11c-0.011-0.337-0.034-0.67-0.067-1v0h-0.925v1h0.992zM17 11h1v-1h-1v1zM22.989 12c-0.191 4.113-2.76 5.831-5.989 5.988v5.097c0.585 0.206 1 0.764 1 1.42v4.991c0 0.836-0.672 1.505-1.5 1.505-0.834 0-1.5-0.674-1.5-1.505v-4.991c0-0.659 0.417-1.214 1-1.42v0-5.097c-3.228-0.157-5.798-1.875-5.989-5.988h-0.011v-1h0.008c0.164-5.473 3.008-10 6.492-10s6.328 4.527 6.492 10h0.008v1h-0.011zM16.5 24c-0.276 0-0.5 0.228-0.5 0.491v5.018c0 0.271 0.232 0.491 0.5 0.491 0.276 0 0.5-0.228 0.5-0.491v-5.018c0-0.271-0.232-0.491-0.5-0.491v0 0z"></path>
</svg>
