<!-- Generated by IcoMoon.io -->
<svg version="1.1" xmlns="http://www.w3.org/2000/svg" width="20" height="20" viewBox="0 0 20 20">
<title>thermometer</title>
<path d="M9 11.17v-4.17h2v4.17c1.175 0.424 2 1.53 2 2.828 0 1.657-1.343 3-3 3s-3-1.343-3-3c0-1.298 0.825-2.404 1.979-2.822l0.021-0.007zM8 10.54c-1.204 0.704-2 1.991-2 3.464 0 2.209 1.791 4 4 4s4-1.791 4-4c0-1.473-0.796-2.76-1.981-3.454l-0.019-0.010v-6.54c0-1.105-0.895-2-2-2s-2 0.895-2 2v0 6.53zM6 9.53v-5.53c0-2.209 1.791-4 4-4s4 1.791 4 4v0 5.53c1.238 1.102 2.014 2.701 2.014 4.48 0 3.308-2.682 5.99-5.99 5.99-0.008 0-0.017-0-0.025-0h0.001c-3.313-0.001-5.998-2.687-5.998-6 0-1.773 0.769-3.367 1.992-4.465l0.006-0.005z"></path>
</svg>
