<!-- Generated by IcoMoon.io -->
<svg version="1.1" xmlns="http://www.w3.org/2000/svg" width="32" height="32" viewBox="0 0 32 32">
<title>thermometer-low</title>
<path d="M18 22.535v-18.532c0-1.107-0.888-2.004-2-2.004-1.105 0-2 0.89-2 2.004v18.532c-1.196 0.692-2 1.984-2 3.465 0 2.209 1.791 4 4 4s4-1.791 4-4c0-1.481-0.804-2.773-2-3.465zM19 22c1.214 0.912 2 2.365 2 4 0 2.761-2.239 5-5 5s-5-2.239-5-5c0-1.636 0.786-3.088 2-4v-18.009c0-1.647 1.343-2.991 3-2.991 1.653 0 3 1.339 3 2.991v18.009zM16 29c1.657 0 3-1.343 3-3s-1.343-3-3-3c-1.657 0-3 1.343-3 3s1.343 3 3 3v0z"></path>
</svg>
