<!-- Generated by IcoMoon.io -->
<svg version="1.1" xmlns="http://www.w3.org/2000/svg" width="32" height="32" viewBox="0 0 32 32">
<title>three-fingers-swipe-left1</title>
<path d="M6 8h7.050v9.798c-2.058-2.2-4.768-4.619-5.879-3.503-1.087 1.093 1.714 4.105 5.626 10.687 1.763 2.966 3.993 5.016 7.753 5.017 4.142 0 7.5-3.358 7.5-7.5v-7.994c0-0.832-0.666-1.506-1.5-1.506-0.828 0-1.5 0.676-1.5 1.506v2.494h-1v-9.509c0-0.824-0.666-1.491-1.5-1.491-0.828 0-1.5 0.663-1.5 1.491v8.509h-1v-10.509c0-0.823-0.666-1.491-1.5-1.491-0.828 0-1.5 0.676-1.5 1.491v11.509h-1v-9.491c0-0.833-0.666-1.509-1.5-1.509-0.652 0-1.207 0.413-1.414 1v0h-7.136l3.25-3.25-0.75-0.75-4.5 4.5 4.5 4.5 0.75-0.75-3.25-3.25z"></path>
</svg>
