<!-- Generated by IcoMoon.io -->
<svg version="1.1" xmlns="http://www.w3.org/2000/svg" width="32" height="32" viewBox="0 0 32 32">
<title>three-fingers-double-tap3</title>
<path d="M23.991 10.95c0.619-0.631 1-1.497 1-2.45 0-1.934-1.566-3.5-3.5-3.5-0.275 0-0.541 0.031-0.794 0.091v0c-0.544-1.231-1.775-2.091-3.206-2.091s-2.662 0.859-3.206 2.091c-0.256-0.059-0.522-0.091-0.794-0.091-1.934 0-3.5 1.566-3.5 3.5 0 0.953 0.381 1.819 1 2.45v0-2.45c0-1.372 1.119-2.5 2.5-2.5 0.566 0 1.084 0.184 1.5 0.497v-0.006c0-1.362 1.119-2.491 2.5-2.491 1.391 0 2.5 1.116 2.5 2.491v0.009c0.419-0.316 0.938-0.503 1.5-0.503 1.391 0 2.5 1.116 2.5 2.491v2.463zM23.991 12.244c1.206-0.806 2-2.181 2-3.744 0-2.484-2.016-4.5-4.5-4.5-0.084 0-0.169 0.003-0.253 0.006v0c-0.806-1.209-2.184-2.006-3.747-2.006s-2.941 0.797-3.747 2.006c-0.084-0.003-0.169-0.006-0.253-0.006-2.484 0-4.5 2.016-4.5 4.5 0 1.559 0.794 2.934 2 3.744v0 1.159c-1.781-0.909-3-2.763-3-4.9 0-2.956 2.331-5.366 5.253-5.494 1.009-1.228 2.537-2.009 4.247-2.009s3.238 0.781 4.247 2.006c2.922 0.128 5.253 2.541 5.253 5.494 0 2.137-1.219 3.991-3 4.9v-1.156zM18.991 6.491c0-0.822-0.666-1.491-1.5-1.491-0.828 0-1.5 0.675-1.5 1.491v11.509h-1v-9.491c0-0.834-0.666-1.509-1.5-1.509-0.828 0-1.5 0.666-1.5 1.509v10.291c-2.059-2.2-4.769-4.619-5.878-3.503-1.087 1.094 1.716 4.106 5.625 10.688 1.762 2.966 3.994 5.016 7.753 5.016 4.141 0 7.5-3.359 7.5-7.5v-7.994c0-0.831-0.666-1.506-1.5-1.506-0.828 0-1.5 0.675-1.5 1.506v2.494h-1v-9.509c0-0.825-0.666-1.491-1.5-1.491-0.828 0-1.5 0.662-1.5 1.491v8.509h-1v-10.509z"></path>
</svg>
