<!-- Generated by IcoMoon.io -->
<svg version="1.1" xmlns="http://www.w3.org/2000/svg" width="32" height="32" viewBox="0 0 32 32">
<title>three-fingers-swipe-up1</title>
<path d="M20 19.95v9.041c3.962-0.2 6.991-3.478 6.991-7.491v-7.994c0-0.831-0.666-1.506-1.5-1.506-0.828 0-1.5 0.675-1.5 1.506v2.494h-1v-9.509c0-0.825-0.666-1.491-1.5-1.491-0.828 0-1.5 0.662-1.5 1.491v8.509h-1v-10.509c0-0.822-0.666-1.491-1.5-1.491-0.828 0-1.5 0.675-1.5 1.491v11.509h-1v-9.491c0-0.834-0.666-1.509-1.5-1.509-0.828 0-1.5 0.666-1.5 1.509v10.291c-2.059-2.2-4.769-4.619-5.878-3.503-1.087 1.094 1.716 4.106 5.625 10.688 1.666 2.8 3.872 4.784 7.262 4.997v0-9.031l-3.25 3.25-0.75-0.75 4.5-4.5 4.5 4.5-0.75 0.75-3.25-3.25z"></path>
</svg>
