<!-- Generated by IcoMoon.io -->
<svg version="1.1" xmlns="http://www.w3.org/2000/svg" width="32" height="32" viewBox="0 0 32 32">
<title>three-fingers-swipe-down1</title>
<path d="M18.991 24.050v-19.559c0-0.822-0.666-1.491-1.5-1.491-0.828 0-1.5 0.675-1.5 1.491v11.509h-1v-9.491c0-0.834-0.666-1.509-1.5-1.509-0.828 0-1.5 0.666-1.5 1.509v10.291c-2.059-2.2-4.769-4.619-5.878-3.503-1.087 1.094 1.716 4.106 5.625 10.688 1.762 2.966 3.994 5.016 7.753 5.016 4.141 0 7.5-3.359 7.5-7.5v-7.994c0-0.831-0.666-1.506-1.5-1.506-0.828 0-1.5 0.675-1.5 1.506v2.494h-1v-9.509c0-0.825-0.666-1.491-1.5-1.491-0.828 0-1.5 0.662-1.5 1.491v17.559l3.25-3.25 0.75 0.75-4.5 4.5-4.5-4.5 0.75-0.75 3.25 3.25z"></path>
</svg>
