<!-- Generated by IcoMoon.io -->
<svg version="1.1" xmlns="http://www.w3.org/2000/svg" width="32" height="32" viewBox="0 0 32 32">
<title>three-fingers-swipe-down</title>
<path d="M19 15v-10.509c0-0.823-0.666-1.491-1.5-1.491-0.828 0-1.5 0.676-1.5 1.491v11.509h-1v-10.495c0-0.831-0.666-1.505-1.5-1.505-0.828 0-1.5 0.667-1.5 1.505v11.293c-2.058-2.2-4.768-4.619-5.879-3.503-1.087 1.093 1.714 4.105 5.626 10.687 1.763 2.966 3.993 5.016 7.753 5.017 4.142 0 7.5-3.358 7.5-7.5v-5.998c0-0.829-0.666-1.502-1.5-1.502-0.828 0-1.5 0.671-1.5 1.502v0.498h-1v-10.497c0-0.83-0.666-1.503-1.5-1.503-0.828 0-1.5 0.665-1.5 1.503v18.547l3.25-3.25 0.75 0.75-4.5 4.5-4.5-4.5 0.75-0.75 3.25 3.25v-9.050zM28 21.5c0 4.694-3.806 8.5-8.5 8.5-3.113 0-6.398-1.453-8.659-5.572-3.264-5.946-7.437-9.845-5.45-11.832 1.422-1.422 3.654-0.058 5.609 1.771v0-8.864c0-1.377 1.119-2.503 2.5-2.503 0.638 0 1.218 0.236 1.658 0.626 0.355-0.951 1.27-1.626 2.342-1.626 1.080 0 1.991 0.677 2.344 1.627 0.441-0.39 1.021-0.627 1.656-0.627 1.39 0 2.5 1.121 2.5 2.503v8.011c0.418-0.314 0.937-0.5 1.5-0.5 1.39 0 2.5 1.119 2.5 2.5v5.986z"></path>
</svg>
