<!-- Generated by IcoMoon.io -->
<svg version="1.1" xmlns="http://www.w3.org/2000/svg" width="32" height="32" viewBox="0 0 32 32">
<title>three-fingers-swipe-left</title>
<path d="M11 7v7.366c-1.956-1.828-4.188-3.194-5.609-1.772-1.987 1.988 2.188 5.887 5.45 11.831 2.262 4.122 5.547 5.575 8.659 5.575 4.694 0 8.5-3.806 8.5-8.5v-5.984c0-1.381-1.109-2.5-2.5-2.5-0.563 0-1.081 0.188-1.5 0.5v-8.012c0-1.381-1.109-2.503-2.5-2.503-0.634 0-1.216 0.237-1.656 0.628-0.353-0.95-1.262-1.628-2.344-1.628-1.072 0-1.988 0.675-2.344 1.625-0.441-0.391-1.019-0.625-1.656-0.625-1.381 0-2.5 1.125-2.5 2.503v0.497h-7.55l3.25-3.25-0.75-0.75-4.5 4.5 4.5 4.5 0.75-0.75-3.25-3.25h7.55zM19.5 29c-3.759 0-5.991-2.050-7.753-5.016-3.912-6.581-6.713-9.594-5.625-10.688 1.109-1.116 3.822 1.303 5.878 3.503v-11.294c0-0.838 0.672-1.506 1.5-1.506 0.834 0 1.5 0.675 1.5 1.506v10.494h1v-11.509c0-0.816 0.672-1.491 1.5-1.491 0.834 0 1.5 0.669 1.5 1.491v10.509h1v-9.497c0-0.838 0.672-1.503 1.5-1.503 0.834 0 1.5 0.672 1.5 1.503v10.497h1v-0.497c0-0.831 0.672-1.503 1.5-1.503 0.834 0 1.5 0.672 1.5 1.503v5.997c0 4.141-3.359 7.5-7.5 7.5v0z"></path>
</svg>
