<!-- Generated by IcoMoon.io -->
<svg version="1.1" xmlns="http://www.w3.org/2000/svg" width="32" height="32" viewBox="0 0 32 32">
<title>three-fingers-swipe-up</title>
<path d="M19 28.988v-9.037l-3.25 3.25-0.75-0.75 4.5-4.5 4.5 4.5-0.75 0.75-3.25-3.25v9.034c3.909-0.256 7-3.509 7-7.484v-5.997c0-0.828-0.666-1.503-1.5-1.503-0.828 0-1.5 0.672-1.5 1.503v0.497h-1v-10.497c0-0.831-0.666-1.503-1.5-1.503-0.828 0-1.5 0.666-1.5 1.503v9.497h-1v-10.509c0-0.822-0.666-1.491-1.5-1.491-0.828 0-1.5 0.675-1.5 1.491v11.509h-1v-10.494c0-0.831-0.666-1.506-1.5-1.506-0.828 0-1.5 0.666-1.5 1.506v11.294c-2.059-2.2-4.769-4.619-5.878-3.503-1.087 1.094 1.716 4.106 5.625 10.688 1.684 2.831 3.794 4.828 7.253 5.003zM28 21.5c0 4.694-3.806 8.5-8.5 8.5-3.113 0-6.397-1.453-8.659-5.572-3.263-5.947-7.438-9.844-5.45-11.831 1.422-1.422 3.653-0.056 5.609 1.772v0-8.866c0-1.378 1.119-2.503 2.5-2.503 0.637 0 1.219 0.237 1.656 0.625 0.356-0.95 1.269-1.625 2.344-1.625 1.081 0 1.991 0.678 2.344 1.628 0.441-0.391 1.022-0.628 1.656-0.628 1.391 0 2.5 1.122 2.5 2.503v8.012c0.419-0.316 0.938-0.5 1.5-0.5 1.391 0 2.5 1.119 2.5 2.5v5.984z"></path>
</svg>
