<!-- Generated by IcoMoon.io -->
<svg version="1.1" xmlns="http://www.w3.org/2000/svg" width="32" height="32" viewBox="0 0 32 32">
<title>three-fingers-double-tap2</title>
<path d="M19.186 4.255c0.406-0.164 0.849-0.255 1.314-0.255 1.933 0 3.5 1.567 3.5 3.5 0 0.169-0.012 0.334-0.035 0.497v0c0.023 0.162 0.035 0.327 0.035 0.495v1.837c0.625-0.773 1-1.757 1-2.829 0-2.485-2.015-4.5-4.5-4.5-0.355 0-0.7 0.041-1.031 0.119-0.792-0.696-1.831-1.119-2.969-1.119s-2.177 0.422-2.969 1.119c-0.331-0.078-0.676-0.119-1.031-0.119-2.485 0-4.5 2.015-4.5 4.5 0 1.072 0.375 2.056 1 2.829v-2.822c0-0.97 0.393-1.847 1.027-2.482l-0.002 0c0.633-0.633 1.508-1.025 2.475-1.025 0.464 0 0.907 0.090 1.312 0.254 0.642-0.767 1.608-1.254 2.688-1.254 1.078 0 2.044 0.488 2.686 1.255v0 0zM24 11.743c1.221-1.009 2-2.535 2-4.243 0-3.038-2.462-5.5-5.5-5.5-0.259 0-0.514 0.018-0.764 0.053-0.908-0.662-2.027-1.053-3.236-1.053s-2.328 0.391-3.236 1.053c-0.25-0.035-0.504-0.053-0.764-0.053-3.038 0-5.5 2.462-5.5 5.5 0 1.708 0.779 3.234 2 4.243v0 1.235c-1.804-1.155-3-3.177-3-5.478 0-3.59 2.91-6.5 6.5-6.5 0.17 0 0.338 0.006 0.504 0.019 1.009-0.645 2.209-1.019 3.496-1.019s2.487 0.374 3.496 1.019v0c0.166-0.013 0.334-0.019 0.504-0.019 3.59 0 6.5 2.91 6.5 6.5 0 2.301-1.196 4.323-3 5.478v-1.235zM18.5 31v0c4.142 0 7.5-3.358 7.5-7.5v-5.998c0-0.829-0.666-1.502-1.5-1.502-0.828 0-1.5 0.671-1.5 1.502v0.498h-1v-10.497c0-0.83-0.666-1.503-1.5-1.503-0.828 0-1.5 0.665-1.5 1.503v9.497h-1v-10.509c0-0.823-0.666-1.491-1.5-1.491-0.828 0-1.5 0.676-1.5 1.491v11.509h-1v-10.495c0-0.831-0.666-1.505-1.5-1.505-0.828 0-1.5 0.667-1.5 1.505v11.293c-2.058-2.2-4.768-4.619-5.879-3.503-1.087 1.093 1.714 4.105 5.626 10.687 1.763 2.966 3.993 5.016 7.753 5.017zM27 23.5c0 4.694-3.806 8.5-8.5 8.5-3.113 0-6.398-1.453-8.659-5.572-3.264-5.946-7.437-9.845-5.45-11.832 1.422-1.422 3.654-0.058 5.609 1.771v0-8.864c0-1.377 1.119-2.503 2.5-2.503 0.638 0 1.218 0.236 1.658 0.626 0.355-0.951 1.27-1.626 2.342-1.626 1.080 0 1.991 0.677 2.344 1.627 0.441-0.391 1.021-0.627 1.656-0.627 1.39 0 2.5 1.121 2.5 2.503v8.011c0.418-0.314 0.937-0.5 1.5-0.5 1.39 0 2.5 1.119 2.5 2.5v5.986z"></path>
</svg>
