<!-- Generated by IcoMoon.io -->
<svg version="1.1" xmlns="http://www.w3.org/2000/svg" width="32" height="32" viewBox="0 0 32 32">
<title>thumb-up2</title>
<path d="M19.249 30h4.254c1.379 0 2.498-1.11 2.498-2.5 0-0.563-0.187-1.082-0.502-1.5 1.382-0.003 2.502-1.112 2.502-2.5 0-0.636-0.236-1.216-0.628-1.657v0c0.951-0.353 1.628-1.263 1.628-2.343 0-0.636-0.236-1.216-0.628-1.657 0.951-0.353 1.628-1.263 1.628-2.343 0-1.381-1.115-2.5-2.508-2.5h-5.992c1.049-5.017 0.547-11-3.5-11s-1.934 4.788-3.5 7.763c-1.566 2.975-4.5 3.237-4.5 3.237h-6.005c-1.102 0-1.995 0.893-1.995 1.992v11.016c0 1.1 0.887 1.992 1.998 1.992h6.002l6 2h3.249zM10.5 14c0 0 3.305-0.724 4.871-3.699s-0.242-7.301 2.629-7.301c3.151 0 3.501 5.5 2.3 11v0h7.207c0.829 0 1.493 0.672 1.493 1.5 0 0.834-0.668 1.5-1.493 1.5h-3.507v1h2.507c0.829 0 1.493 0.672 1.493 1.5 0 0.834-0.668 1.5-1.493 1.5h-3.507v1h2.507c0.829 0 1.493 0.672 1.493 1.5 0 0.834-0.668 1.5-1.493 1.5h-3.507v1h1.498c0.831 0 1.502 0.672 1.502 1.5 0 0.834-0.672 1.5-1.502 1.5h-7.498l-6-2h-5.997c-0.565 0-1.003-0.447-1.003-0.998v-11.003c0-0.551 0.448-0.998 1-0.998h6.5z"></path>
</svg>
