<!-- Generated by IcoMoon.io -->
<svg version="1.1" xmlns="http://www.w3.org/2000/svg" width="32" height="32" viewBox="0 0 32 32">
<title>thumb-finger-tap1</title>
<path d="M11.985 14.352c0.010-0.116 0.015-0.234 0.015-0.352 0-2.209-1.791-4-4-4s-4 1.791-4 4c0 2.129 1.663 3.869 3.76 3.993-0.263-0.402-0.507-0.786-0.726-1.152-1.183-0.402-2.034-1.522-2.034-2.841 0-1.657 1.343-3 3-3 1.473 0 2.697 1.061 2.952 2.46 0.349 0.275 0.695 0.577 1.033 0.892v0 0zM17 8.95c0.619-0.631 1-1.496 1-2.45 0-1.933-1.567-3.5-3.5-3.5s-3.5 1.567-3.5 3.5c0 0.954 0.381 1.818 1 2.45v-2.449c0-1.372 1.119-2.501 2.5-2.501 1.39 0 2.5 1.12 2.5 2.501v2.449zM20 11.491c0-0.823-0.666-1.491-1.5-1.491-0.828 0-1.5 0.676-1.5 1.491v4.509h-1v-9.491c0-0.833-0.666-1.509-1.5-1.509-0.828 0-1.5 0.666-1.5 1.509v10.29c-2.058-2.2-4.768-4.619-5.879-3.503-1.087 1.093 1.714 4.105 5.626 10.687 1.763 2.966 3.993 5.016 7.753 5.017 4.142 0 7.5-3.358 7.5-7.5v-7.994c0-0.832-0.666-1.506-1.5-1.506-0.828 0-1.5 0.676-1.5 1.506v2.494h-1v-3.509c0-0.824-0.666-1.491-1.5-1.491-0.828 0-1.5 0.663-1.5 1.491v2.509h-1v-3.509z"></path>
</svg>
