<!-- Generated by IcoMoon.io -->
<svg version="1.1" xmlns="http://www.w3.org/2000/svg" width="32" height="32" viewBox="0 0 32 32">
<title>thumb-down</title>
<path d="M10 19h-6.002c-1.104 0-1.998-0.89-1.998-2v-13c0-1.105 0.887-2 1.998-2h19.494c1.385 0 2.508 1.11 2.508 2.5 0 0.563-0.185 1.082-0.499 1.5 1.381 0.005 2.499 1.113 2.499 2.5 0 0.636-0.236 1.216-0.628 1.657 0.951 0.353 1.628 1.263 1.628 2.343 0 0.636-0.236 1.216-0.628 1.657 0.951 0.353 1.628 1.263 1.628 2.343 0 1.381-1.115 2.5-2.508 2.5h-5.992c1.049 5.017 0.547 11-3.5 11s-1.934-4.788-3.5-7.763c-1.566-2.975-4.5-3.237-4.5-3.237v0 0zM3.991 18h5.009v-15h-5.009c-0.54 0-0.991 0.451-0.991 1.007v12.985c0 0.559 0.444 1.007 0.991 1.007zM6 5c0.552 0 1 0.448 1 1s-0.448 1-1 1c-0.552 0-1-0.448-1-1s0.448-1 1-1v0 0zM20.3 18h7.207c0.829 0 1.493-0.672 1.493-1.5 0-0.834-0.668-1.5-1.493-1.5h-3.507v-1h2.507c0.829 0 1.493-0.672 1.493-1.5 0-0.834-0.668-1.5-1.493-1.5h-3.507v-1h2.507c0.829 0 1.493-0.672 1.493-1.5 0-0.834-0.668-1.5-1.493-1.5h-3.507v-1h1.498c0.831 0 1.502-0.672 1.502-1.5 0-0.834-0.672-1.5-1.502-1.5h-13.498c0 0 0 13 0 15 1.5 0 2.806 1 2.806 1 0.91 0.568 1.896 1.428 2.565 2.699 1.566 2.975-0.242 7.301 2.629 7.301 2.96 0 3.448-4.853 2.501-10 0 0-0.201-1-0.201-1v0 0z"></path>
</svg>
