<!-- Generated by IcoMoon.io -->
<svg version="1.1" xmlns="http://www.w3.org/2000/svg" width="32" height="32" viewBox="0 0 32 32">
<title>thumb-up3</title>
<path d="M20.3 14h7.207c0.829 0 1.493 0.672 1.493 1.5 0 0.834-0.668 1.5-1.493 1.5h-3.507v1h2.507c0.829 0 1.493 0.672 1.493 1.5 0 0.834-0.668 1.5-1.493 1.5h-3.507v1h2.507c0.829 0 1.493 0.672 1.493 1.5 0 0.834-0.668 1.5-1.493 1.5h-3.507v1h1.498c0.831 0 1.502 0.672 1.502 1.5 0 0.834-0.672 1.5-1.502 1.5h-7.498l-6-2h-5.997c-0.565 0-1.003-0.447-1.003-0.998v-11.003c0-0.551 0.448-0.998 1-0.998h6.5c0 0 3.305-0.724 4.871-3.699s-0.242-7.301 2.629-7.301c3.151 0 3.501 5.5 2.3 11v0z"></path>
</svg>
