<!-- Generated by IcoMoon.io -->
<svg version="1.1" xmlns="http://www.w3.org/2000/svg" width="20" height="20" viewBox="0 0 20 20">
<title>timer</title>
<path d="M16.32 7.1c1.044 1.339 1.675 3.045 1.675 4.898 0 4.418-3.582 8-8 8s-8-3.582-8-8c0-4.068 3.036-7.426 6.965-7.934l0.040-0.004v-2.060h2v2.060c1.46 0.18 2.8 0.76 3.9 1.62l1.46-1.46 1.42 1.42-1.46 1.45zM10 18c3.314 0 6-2.686 6-6s-2.686-6-6-6v0c-3.314 0-6 2.686-6 6s2.686 6 6 6v0zM7 0h6v2h-6v-2zM12.12 8.46l1.42 1.42-3.54 3.52-1.41-1.4 3.53-3.54z"></path>
</svg>
