<!-- Generated by IcoMoon.io -->
<svg version="1.1" xmlns="http://www.w3.org/2000/svg" width="32" height="32" viewBox="0 0 32 32">
<title>tornado1</title>
<path d="M3.518 3.097c1.042-1.71 5.596-3.097 12.499-3.097s11.368 1.647 12.499 3.097c1.562 2.003-0.88 6.735-8.333 11.355-6.354 3.939-11.039 7.769-7.291 9.29 8.925 3.622 4.166 8.258 4.166 8.258s0-3.097-3.125-4.129c-5.282-1.745-7.291-3.097-9.374-5.161-1.576-1.562-3.272-6.491 2.083-11.355 2.665-2.42-5.123-4.977-3.125-8.258v0zM27 4.032c0-1.657-4.925-3-11-3s-11 1.343-11 3c0 1.657 4.925 3 11 3s11-1.343 11-3v0z"></path>
</svg>
