<!-- Generated by IcoMoon.io -->
<svg version="1.1" xmlns="http://www.w3.org/2000/svg" width="32" height="32" viewBox="0 0 32 32">
<title>tornado</title>
<path d="M27.959 4.349v0 0c-0.506 2.062-5.667 3.683-11.959 3.683-5.076 0-9.416-1.055-11.17-2.545 1.418 1.734 4.566 3.848 2.833 6.241-5.655 5.060-3.561 9.273-1.856 10.774 3.656 3.218 6.196 3.517 8.568 4.47 2.393 0.962 2.901 2.387 2.901 2.387s1.1-2.134-4.672-4.669c-4.652-2.043-0.872-6.293 6.243-10.591 6.023-3.638 9.455-7.655 9.112-9.75zM3.518 3.097c1.042-1.71 5.596-3.097 12.499-3.097s11.368 1.647 12.499 3.097c1.562 2.003-0.88 6.735-8.333 11.355-6.354 3.939-11.039 7.769-7.291 9.29 8.925 3.622 4.166 8.258 4.166 8.258s0-3.097-3.125-4.129c-5.282-1.745-7.291-3.097-9.374-5.161-1.576-1.562-3.272-6.491 2.083-11.355 2.665-2.42-5.123-4.977-3.125-8.258v0zM27 4.032c0-1.657-4.925-3-11-3s-11 1.343-11 3c0 1.657 4.925 3 11 3s11-1.343 11-3v0z"></path>
</svg>
