<!-- Generated by IcoMoon.io -->
<svg version="1.1" xmlns="http://www.w3.org/2000/svg" width="20" height="20" viewBox="0 0 20 20">
<title>translate</title>
<path d="M7.41 9l2.24 2.24-0.83 2-2.82-2.84-3.3 3.3-1.4-1.42 3.28-3.28-0.88-0.88c-0.53-0.53-1-1.3-1.3-2.12h2.2c0.15 0.28 0.33 0.53 0.51 0.7l0.89 0.9 0.88-0.88c0.6-0.62 1.12-1.88 1.12-2.72h-8v-2h5v-2h2v2h5v2h-2c0 1.37-0.74 3.15-1.7 4.12l-0.9 0.88zM11.25 17l-1.25 3h-2l5-12h2l5 12h-2l-1.25-3h-5.5zM12.080 15h3.84l-1.92-4.6-1.92 4.6z"></path>
</svg>
