<!-- Generated by IcoMoon.io -->
<svg version="1.1" xmlns="http://www.w3.org/2000/svg" width="20" height="20" viewBox="0 0 20 20">
<title>travel-train</title>
<path d="M12 18h-4l-2 2h-3l2-2c-1.105 0-2-0.895-2-2v0-14c0-1.1 0.9-2 2-2h10c1.105 0 2 0.895 2 2v0 14c0 1.105-0.895 2-2 2v0l2 2h-3l-2-2zM5 5v6h10v-6h-10zM6.5 16c0.828 0 1.5-0.672 1.5-1.5s-0.672-1.5-1.5-1.5v0c-0.828 0-1.5 0.672-1.5 1.5s0.672 1.5 1.5 1.5v0zM13.5 16c0.828 0 1.5-0.672 1.5-1.5s-0.672-1.5-1.5-1.5v0c-0.828 0-1.5 0.672-1.5 1.5s0.672 1.5 1.5 1.5v0zM8 2v1h4v-1h-4z"></path>
</svg>
