<!-- Generated by IcoMoon.io -->
<svg version="1.1" xmlns="http://www.w3.org/2000/svg" width="32" height="32" viewBox="0 0 32 32">
<title>two-fingers-swipe-up2</title>
<path d="M10 13.027v-6.077l-3.25 3.25-0.75-0.75 4.5-4.5 4.5 4.5-0.75 0.75-3.25-3.25v6.078c2.246 0.249 4 2.154 4 4.468v13.504h-9v-13.504c0-2.314 1.75-4.22 4-4.468zM21 10.027v-6.077l-3.25 3.25-0.75-0.75 4.5-4.5 4.5 4.5-0.75 0.75-3.25-3.25v6.078c2.246 0.249 4 2.159 4 4.477v16.495h-9v-16.495c0-2.322 1.75-4.229 4-4.478zM10.5 14c-1.933 0-3.5 1.563-3.5 3.491v12.509h7v-12.508c0-1.928-1.571-3.492-3.5-3.492v0zM10.5 15v0c1.39 0 2.5 1.124 2.5 2.51v3.49h-5v-3.49c0-1.381 1.119-2.51 2.5-2.51zM10.5 16c-0.828 0-1.5 0.679-1.5 1.501v2.499h3v-2.499c0-0.829-0.666-1.501-1.5-1.501v0zM8 24v1h5v-1h-5zM8 26v1h5v-1h-5zM21.5 11c-1.933 0-3.5 1.571-3.5 3.507v15.493h7v-15.493c0-1.937-1.571-3.507-3.5-3.507v0zM21.5 12v0c1.39 0 2.5 1.124 2.5 2.51v3.49h-5v-3.49c0-1.381 1.119-2.51 2.5-2.51zM21.5 13c-0.828 0-1.5 0.679-1.5 1.501v2.499h3v-2.499c0-0.829-0.666-1.501-1.5-1.501v0zM19 21v1h5v-1h-5zM19 23v1h5v-1h-5z"></path>
</svg>
