<!-- Generated by IcoMoon.io -->
<svg version="1.1" xmlns="http://www.w3.org/2000/svg" width="32" height="32" viewBox="0 0 32 32">
<title>two-fingers-swipe-up3</title>
<path d="M21 10.077v-6.077l-3.25 3.25-0.75-0.75 4.5-4.5 4.5 4.5-0.75 0.75-3.25-3.25v6.078c2.246 0.249 4 2.159 4 4.477v16.495h-9v-16.495c0-2.322 1.75-4.229 4-4.478zM10 13.077v-6.077l-3.25 3.25-0.75-0.75 4.5-4.5 4.5 4.5-0.75 0.75-3.25-3.25v6.078c2.246 0.249 4 2.154 4 4.468v13.504h-9v-13.504c0-2.314 1.75-4.22 4-4.468zM10.5 15.050c-1.381 0-2.5 1.129-2.5 2.51v3.49h5v-3.49c0-1.386-1.11-2.51-2.5-2.51v0zM8 24.050v1h5v-1h-5zM8 26.050v1h5v-1h-5zM21.5 12.050c-1.381 0-2.5 1.129-2.5 2.51v3.49h5v-3.49c0-1.386-1.11-2.51-2.5-2.51v0zM19 21.050v1h5v-1h-5zM19 23.050v1h5v-1h-5z"></path>
</svg>
