<!-- Generated by IcoMoon.io -->
<svg version="1.1" xmlns="http://www.w3.org/2000/svg" width="32" height="32" viewBox="0 0 32 32">
<title>two-fingers-tap</title>
<path d="M10.5 13v0c2.48 0 4.5 2.013 4.5 4.496v13.504h-9v-13.504c0-2.483 2.015-4.496 4.5-4.496zM10.5 14c-1.933 0-3.5 1.563-3.5 3.491v12.509h7v-12.508c0-1.928-1.571-3.492-3.5-3.492v0zM10.5 15v0c1.39 0 2.5 1.124 2.5 2.51v3.49h-5v-3.49c0-1.381 1.119-2.51 2.5-2.51zM10.5 16c-0.828 0-1.5 0.679-1.5 1.501v2.499h3v-2.499c0-0.829-0.666-1.501-1.5-1.501v0zM8 24v1h5v-1h-5zM8 26v1h5v-1h-5zM21.5 10v0c2.48 0 4.5 2.017 4.5 4.505v16.495h-9v-16.495c0-2.491 2.015-4.505 4.5-4.505zM21.5 11c-1.933 0-3.5 1.571-3.5 3.507v15.493h7v-15.493c0-1.937-1.571-3.507-3.5-3.507v0zM21.5 12v0c1.39 0 2.5 1.124 2.5 2.51v3.49h-5v-3.49c0-1.381 1.119-2.51 2.5-2.51zM21.5 13c-0.828 0-1.5 0.679-1.5 1.501v2.499h3v-2.499c0-0.829-0.666-1.501-1.5-1.501v0zM19 21v1h5v-1h-5zM19 23v1h5v-1h-5zM27 19.599c1.241-1.338 2-3.13 2-5.099 0-4.142-3.358-7.5-7.5-7.5-2.996 0-5.582 1.757-6.783 4.297-1.202-0.818-2.653-1.297-4.217-1.297-4.142 0-7.5 3.358-7.5 7.5 0 1.969 0.759 3.761 2 5.099v1.382c-1.835-1.559-3-3.884-3-6.481 0-4.694 3.806-8.5 8.5-8.5 1.382 0 2.687 0.33 3.841 0.915 1.511-2.355 4.153-3.915 7.159-3.915 4.694 0 8.5 3.806 8.5 8.5 0 2.597-1.165 4.922-3 6.481v-1.382z"></path>
</svg>
