<!-- Generated by IcoMoon.io -->
<svg version="1.1" xmlns="http://www.w3.org/2000/svg" width="32" height="32" viewBox="0 0 32 32">
<title>two-fingers-resize-out</title>
<path d="M6.179 7.179l0.707 0.707-4.113 4.113h3.227v1h-5v-5h1v3.359l4.179-4.179zM7.821 6.821l-0.707-0.707 4.113-4.113h-3.227v-1h5v5h-1v-3.359l-4.179 4.179zM31 23.5v-5.986c0-1.381-1.11-2.5-2.5-2.5-0.563 0-1.082 0.184-1.5 0.497v-0.013c0-1.379-1.11-2.498-2.5-2.498-0.563 0-1.082 0.187-1.5 0.502v-6.999c0-1.383-1.11-2.503-2.5-2.503-1.073 0-1.988 0.675-2.343 1.627-0.44-0.39-1.019-0.627-1.657-0.627-1.381 0-2.5 1.115-2.5 2.508v8.858c-1.955-1.829-4.187-3.192-5.609-1.771-1.987 1.987 2.186 5.887 5.45 11.832 2.261 4.119 5.546 5.572 8.659 5.572 4.694 0 8.5-3.806 8.5-8.5zM22.5 31c-3.76-0-5.99-2.051-7.753-5.017-3.912-6.582-6.713-9.594-5.626-10.687 1.111-1.117 3.821 1.302 5.879 3.503v-11.293c0-0.838 0.672-1.505 1.5-1.505 0.834 0 1.5 0.674 1.5 1.505v10.495h1v-11.509c0-0.815 0.672-1.491 1.5-1.491 0.834 0 1.5 0.668 1.5 1.491v10.509h1v-1.494c0-0.835 0.672-1.506 1.5-1.506 0.834 0 1.5 0.674 1.5 1.506v2.494h1v-0.498c0-0.831 0.672-1.502 1.5-1.502 0.834 0 1.5 0.672 1.5 1.502v5.998c0 4.142-3.358 7.5-7.5 7.5v0 0z"></path>
</svg>
