<!-- Generated by IcoMoon.io -->
<svg version="1.1" xmlns="http://www.w3.org/2000/svg" width="32" height="32" viewBox="0 0 32 32">
<title>two-fingers-swipe-down3</title>
<path d="M10 24h-4v-13.504c0-2.483 2.015-4.496 4.5-4.496 2.48 0 4.5 2.013 4.5 4.496v13.504h-4v5.050l3.25-3.25 0.75 0.75-4.5 4.5-4.5-4.5 0.75-0.75 3.25 3.25v-5.050zM21 24h-4v-16.495c0-2.491 2.015-4.505 4.5-4.505 2.48 0 4.5 2.017 4.5 4.505v16.495h-4v5.050l3.25-3.25 0.75 0.75-4.5 4.5-4.5-4.5 0.75-0.75 3.25 3.25v-5.050zM10.5 8c-1.381 0-2.5 1.129-2.5 2.51v3.49h5v-3.49c0-1.386-1.11-2.51-2.5-2.51v0zM8 17v1h5v-1h-5zM8 19v1h5v-1h-5zM21.5 5c-1.381 0-2.5 1.129-2.5 2.51v3.49h5v-3.49c0-1.386-1.11-2.51-2.5-2.51v0zM19 14v1h5v-1h-5zM19 16v1h5v-1h-5z"></path>
</svg>
