<!-- Generated by IcoMoon.io -->
<svg version="1.1" xmlns="http://www.w3.org/2000/svg" width="32" height="32" viewBox="0 0 32 32">
<title>two-fingers-swipe-down2</title>
<path d="M10 23h-4v-13.504c0-2.483 2.015-4.496 4.5-4.496 2.48 0 4.5 2.013 4.5 4.496v13.504h-4v6.050l3.25-3.25 0.75 0.75-4.5 4.5-4.5-4.5 0.75-0.75 3.25 3.25v-6.050zM21 23h-4v-16.495c0-2.491 2.015-4.505 4.5-4.505 2.48 0 4.5 2.017 4.5 4.505v16.495h-4v6.050l3.25-3.25 0.75 0.75-4.5 4.5-4.5-4.5 0.75-0.75 3.25 3.25v-6.050zM10.5 6c-1.933 0-3.5 1.563-3.5 3.492v12.508h7v-12.508c0-1.928-1.571-3.492-3.5-3.492v0zM10.5 7v0c1.39 0 2.5 1.124 2.5 2.51v3.49h-5v-3.49c0-1.381 1.119-2.51 2.5-2.51zM10.5 8c-0.828 0-1.5 0.679-1.5 1.501v2.499h3v-2.499c0-0.829-0.666-1.501-1.5-1.501v0zM8 16v1h5v-1h-5zM8 18v1h5v-1h-5zM21.5 3c-1.933 0-3.5 1.571-3.5 3.507v15.493h7v-15.493c0-1.937-1.571-3.507-3.5-3.507v0zM21.5 4v0c1.39 0 2.5 1.124 2.5 2.51v3.49h-5v-3.49c0-1.381 1.119-2.51 2.5-2.51zM21.5 5c-0.828 0-1.5 0.679-1.5 1.501v2.499h3v-2.499c0-0.829-0.666-1.501-1.5-1.501v0zM19 13v1h5v-1h-5zM19 15v1h5v-1h-5z"></path>
</svg>
