<!-- Generated by IcoMoon.io -->
<svg version="1.1" xmlns="http://www.w3.org/2000/svg" width="32" height="32" viewBox="0 0 32 32">
<title>two-fingers-rotate1</title>
<path d="M5.319 12.44c-0.184-0.602-0.284-1.242-0.284-1.905 0-3.59 2.91-6.5 6.5-6.5 0.663 0 1.302 0.099 1.905 0.284v0l-2.612-2.612 0.707-0.707 3.536 3.536-1.036 1.036v0.064c-0.014-0.007-0.028-0.014-0.043-0.022l-2.457 2.457-0.707-0.707 2.14-2.14c-0.457-0.123-0.937-0.189-1.433-0.189-3.038 0-5.5 2.462-5.5 5.5 0 0.496 0.066 0.976 0.189 1.433l2.14-2.14 0.707 0.707-2.457 2.457c0.007 0.014 0.014 0.028 0.022 0.043h-0.064l-1.036 1.036-3.536-3.536 0.707-0.707 2.612 2.612zM23.036 6.526c0-0.823-0.666-1.491-1.5-1.491-0.828 0-1.5 0.676-1.5 1.491v11.509h-1v-9.491c0-0.833-0.666-1.509-1.5-1.509-0.828 0-1.5 0.666-1.5 1.509v10.29c-2.058-2.2-4.768-4.619-5.879-3.503-1.087 1.093 1.714 4.105 5.626 10.687 1.763 2.966 3.993 5.016 7.753 5.017 4.142 0 7.5-3.358 7.5-7.5v-7.994c0-0.832-0.666-1.506-1.5-1.506-0.828 0-1.5 0.676-1.5 1.506v2.494h-1v-3.509c0-0.824-0.666-1.491-1.5-1.491-0.828 0-1.5 0.663-1.5 1.491v2.509h-1v-10.509z"></path>
</svg>
