<!-- Generated by IcoMoon.io -->
<svg version="1.1" xmlns="http://www.w3.org/2000/svg" width="32" height="32" viewBox="0 0 32 32">
<title>two-fingers-double-tap1</title>
<path d="M10.5 13v0c2.48 0 4.5 2.013 4.5 4.496v13.504h-9v-13.504c0-2.483 2.015-4.496 4.5-4.496zM10.5 15c-1.381 0-2.5 1.129-2.5 2.51v3.49h5v-3.49c0-1.386-1.11-2.51-2.5-2.51v0zM8 24v1h5v-1h-5zM8 26v1h5v-1h-5zM21.5 10v0c2.48 0 4.5 2.017 4.5 4.505v16.495h-9v-16.495c0-2.491 2.015-4.505 4.5-4.505zM21.5 12c-1.381 0-2.5 1.129-2.5 2.51v3.49h5v-3.49c0-1.386-1.11-2.51-2.5-2.51v0zM19 21v1h5v-1h-5zM19 23v1h5v-1h-5zM28 18.244c0.636-1.102 1-2.38 1-3.744 0-4.142-3.358-7.5-7.5-7.5-2.996 0-5.582 1.757-6.783 4.297-1.202-0.818-2.653-1.297-4.217-1.297-4.142 0-7.5 3.358-7.5 7.5 0 1.364 0.364 2.642 1 3.744v-3.748c0-3.587 2.91-6.497 6.5-6.497 1.834 0 3.493 0.762 4.676 1.987 0.681-2.859 3.254-4.987 6.324-4.987 3.583 0 6.5 2.909 6.5 6.497v3.748zM28 21.428c1.847-1.733 3-4.196 3-6.928 0-5.247-4.253-9.5-9.5-9.5-3.048 0-5.76 1.435-7.498 3.666-1.084-0.43-2.265-0.666-3.502-0.666-5.247 0-9.5 4.253-9.5 9.5 0 2.732 1.153 5.195 3 6.928v1.319c-2.436-1.923-4-4.902-4-8.247 0-5.799 4.701-10.5 10.5-10.5 1.109 0 2.178 0.172 3.182 0.491 1.922-2.143 4.713-3.491 7.818-3.491 5.799 0 10.5 4.701 10.5 10.5 0 3.345-1.564 6.324-4 8.247v-1.319z"></path>
</svg>
