<!-- Generated by IcoMoon.io -->
<svg version="1.1" xmlns="http://www.w3.org/2000/svg" width="32" height="32" viewBox="0 0 32 32">
<title>two-fingers-swipe-left3</title>
<path d="M10.077 17c0.247-2.25 2.155-4 4.473-4 2.48 0 4.5 2.013 4.5 4.496v13.504h-9v-13h-6.050l3.25 3.25-0.75 0.75-4.5-4.5 4.5-4.5 0.75 0.75-3.25 3.25h6.077zM14.55 15c-1.381 0-2.5 1.129-2.5 2.51v3.49h5v-3.49c0-1.386-1.11-2.51-2.5-2.51v0zM12.050 24v1h5v-1h-5zM12.050 26v1h5v-1h-5zM25.55 10v0c2.48 0 4.5 2.017 4.5 4.505v16.495h-9v-16.495c0-2.491 2.015-4.505 4.5-4.505zM25.55 12c-1.381 0-2.5 1.129-2.5 2.51v3.49h5v-3.49c0-1.386-1.11-2.51-2.5-2.51v0zM23.050 21v1h5v-1h-5zM23.050 23v1h5v-1h-5z"></path>
</svg>
