<!-- Generated by IcoMoon.io -->
<svg version="1.1" xmlns="http://www.w3.org/2000/svg" width="32" height="32" viewBox="0 0 32 32">
<title>two-fingers-swipe-right3</title>
<path d="M22 18v13h-9v-16.495c0-2.491 2.015-4.505 4.5-4.505 2.48 0 4.5 2.017 4.5 4.505v2.495h6.050l-3.25-3.25 0.75-0.75 4.5 4.5-4.5 4.5-0.75-0.75 3.25-3.25h-6.050zM6.5 13v0c2.48 0 4.5 2.013 4.5 4.496v13.504h-9v-13.504c0-2.483 2.015-4.496 4.5-4.496zM6.5 15c-1.381 0-2.5 1.129-2.5 2.51v3.49h5v-3.49c0-1.386-1.11-2.51-2.5-2.51v0zM4 24v1h5v-1h-5zM4 26v1h5v-1h-5zM17.5 12c-1.381 0-2.5 1.129-2.5 2.51v3.49h5v-3.49c0-1.386-1.11-2.51-2.5-2.51v0zM15 21v1h5v-1h-5zM15 23v1h5v-1h-5z"></path>
</svg>
