<!-- Generated by IcoMoon.io -->
<svg version="1.1" xmlns="http://www.w3.org/2000/svg" width="32" height="32" viewBox="0 0 32 32">
<title>two-fingers-resize-out1</title>
<path d="M3 11.359l4.179-4.179 0.707 0.707-4.113 4.113h3.227v1h-5v-5h1v3.359zM13 2.641l-4.18 4.179-0.707-0.707 4.113-4.113h-3.227v-1h5v5h-1v-3.359zM23 6.491c0-0.823-0.666-1.491-1.5-1.491-0.828 0-1.5 0.676-1.5 1.491v11.509h-1v-9.491c0-0.833-0.666-1.509-1.5-1.509-0.828 0-1.5 0.666-1.5 1.509v10.29c-2.058-2.2-4.768-4.619-5.879-3.503-1.087 1.093 1.714 4.105 5.626 10.687 1.763 2.966 3.993 5.016 7.753 5.017 4.142 0 7.5-3.358 7.5-7.5v-7.994c0-0.832-0.666-1.506-1.5-1.506-0.828 0-1.5 0.676-1.5 1.506v2.494h-1v-3.509c0-0.824-0.666-1.491-1.5-1.491-0.828 0-1.5 0.663-1.5 1.491v2.509h-1v-10.509z"></path>
</svg>
