<!-- Generated by IcoMoon.io -->
<svg version="1.1" xmlns="http://www.w3.org/2000/svg" width="32" height="32" viewBox="0 0 32 32">
<title>two-fingers-resize-in</title>
<path d="M13.191 1l0.706 0.706-4.113 4.116h3.228v1h-5v-5h1v3.359l4.178-4.181zM1.831 13.641l-0.706-0.706 4.112-4.113h-3.225v-1h5v5h-1v-3.359l-4.181 4.178zM31.012 23.322v-5.988c0-1.381-1.109-2.5-2.5-2.5-0.563 0-1.081 0.184-1.5 0.497v-0.012c0-1.378-1.109-2.497-2.5-2.497-0.563 0-1.081 0.188-1.5 0.503v-7c0-1.381-1.109-2.503-2.5-2.503-1.072 0-1.988 0.675-2.344 1.628-0.441-0.391-1.019-0.628-1.656-0.628-1.381 0-2.5 1.116-2.5 2.509v8.856c-1.956-1.828-4.188-3.194-5.609-1.772-1.987 1.987 2.188 5.888 5.45 11.831 2.262 4.119 5.547 5.572 8.659 5.572 4.694 0.003 8.5-3.803 8.5-8.497v0zM22.512 30.822c-3.759 0-5.991-2.050-7.753-5.016-3.912-6.581-6.713-9.594-5.625-10.688 1.109-1.116 3.822 1.303 5.878 3.503v-11.297c0-0.838 0.672-1.506 1.5-1.506 0.834 0 1.5 0.675 1.5 1.506v10.494h1v-11.506c0-0.816 0.672-1.491 1.5-1.491 0.834 0 1.5 0.669 1.5 1.491v10.509h1v-1.494c0-0.834 0.672-1.506 1.5-1.506 0.834 0 1.5 0.675 1.5 1.506v2.494h1v-0.497c0-0.831 0.672-1.503 1.5-1.503 0.834 0 1.5 0.672 1.5 1.503v5.997c0 4.141-3.359 7.5-7.5 7.5v0 0z"></path>
</svg>
