<!-- Generated by IcoMoon.io -->
<svg version="1.1" xmlns="http://www.w3.org/2000/svg" width="32" height="32" viewBox="0 0 32 32">
<title>two-fingers-resize-in1</title>
<path d="M14.191 1l0.706 0.706-4.113 4.116h3.228v1h-5v-5h1v3.359l4.178-4.181zM2.831 13.641l-0.706-0.706 4.112-4.113h-3.225v-1h5v5h-1v-3.359l-4.181 4.178zM23.012 6.313c0-0.822-0.666-1.491-1.5-1.491-0.828 0-1.5 0.675-1.5 1.491v11.509h-1v-9.494c0-0.834-0.666-1.509-1.5-1.509-0.828 0-1.5 0.666-1.5 1.509v10.291c-2.059-2.2-4.769-4.619-5.881-3.503-1.088 1.094 1.716 4.106 5.625 10.688 1.763 2.966 3.994 5.016 7.753 5.016 4.141 0 7.5-3.359 7.5-7.5v-7.991c0-0.831-0.666-1.506-1.5-1.506-0.828 0-1.5 0.675-1.5 1.506v2.494h-1v-3.509c0-0.825-0.666-1.491-1.5-1.491-0.828 0-1.5 0.662-1.5 1.491v2.509h-1v-10.509z"></path>
</svg>
