<!-- Generated by IcoMoon.io -->
<svg version="1.1" xmlns="http://www.w3.org/2000/svg" width="32" height="32" viewBox="0 0 32 32">
<title>umbrella</title>
<path d="M29.5 12c1.381 0 2.5 0.895 2.5 2 0-5.415-6.671-9.825-15-9.995v-1.506c0-0.276-0.232-0.499-0.5-0.499-0.276 0-0.5 0.216-0.5 0.499v1.506c-8.329 0.17-15 4.58-15 9.995 0-1.105 1.119-2 2.5-2s2.5 0.895 2.5 2c0-1.105 1.119-2 2.5-2s2.5 0.895 2.5 2c0-1.105 1.119-2 2.5-2s2.5 0.895 2.5 2v14.009c0 0.54-0.448 0.991-1 0.991-0.556 0-1-0.444-1-0.991v-1.505c0-0.279-0.232-0.505-0.5-0.505-0.276 0-0.5 0.214-0.5 0.505v1.494c0 1.105 0.888 2.001 2 2.001 1.105 0 2-0.888 2-2v-14c0-1.105 1.119-2 2.5-2s2.5 0.895 2.5 2c0-1.105 1.119-2 2.5-2s2.5 0.895 2.5 2c0-1.105 1.119-2 2.5-2v0zM16 11.9c-0.635-0.556-1.521-0.9-2.5-0.9-0.894 0-1.71 0.287-2.328 0.76v0c0.568-3.631 2.487-6.378 4.828-6.723v6.864zM17 11.9v-6.864c2.341 0.345 4.26 3.092 4.828 6.723-0.619-0.473-1.434-0.76-2.328-0.76-0.979 0-1.865 0.345-2.5 0.9zM10.224 11.389c-0.509-0.247-1.097-0.389-1.724-0.389-0.801 0-1.539 0.23-2.128 0.618v0c0.918-2.873 3.455-5.173 6.718-6.133-1.389 1.319-2.43 3.42-2.866 5.903v0 0zM22.776 11.389v0 0c-0.436-2.483-1.477-4.584-2.866-5.903 3.263 0.96 5.8 3.26 6.718 6.133-0.59-0.388-1.328-0.618-2.128-0.618-0.627 0-1.215 0.141-1.724 0.389zM5.373 11.465c-0.542-0.295-1.184-0.465-1.873-0.465-0.243 0-0.48 0.021-0.71 0.062 1.158-2.083 3.514-3.819 6.556-4.892-1.917 1.326-3.336 3.173-3.974 5.295v0 0zM23.654 6.17c3.042 1.073 5.398 2.809 6.556 4.892-0.229-0.040-0.466-0.062-0.71-0.062-0.689 0-1.331 0.171-1.873 0.465-0.638-2.122-2.057-3.969-3.974-5.295v0 0z"></path>
</svg>
