<!-- Generated by IcoMoon.io -->
<svg version="1.1" xmlns="http://www.w3.org/2000/svg" width="32" height="32" viewBox="0 0 32 32">
<title>unamused-face-tightly-closed-eyes1</title>
<path d="M16.5 29c6.904 0 12.5-5.596 12.5-12.5s-5.596-12.5-12.5-12.5c-6.904 0-12.5 5.596-12.5 12.5s5.596 12.5 12.5 12.5zM16.497 22c-2.997 0-4.497 1-4.497 1s1-3 4.5-3c3.5 0 4.5 3 4.5 3s-1.506-1-4.503-1zM21.561 16.561l-2.828-2.828 2.828-2.828 0.707 0.707-2.121 2.121 2.121 2.121-0.707 0.707zM11.439 10.904l2.828 2.828-2.828 2.828-0.707-0.707 2.121-2.121-2.121-2.121 0.707-0.707z"></path>
</svg>
