<!-- Generated by IcoMoon.io -->
<svg version="1.1" xmlns="http://www.w3.org/2000/svg" width="20" height="20" viewBox="0 0 20 20">
<title>usb</title>
<path d="M15 8v2h-4v-6h2l-3-4-3 4h2v8h-4v-2.27c0.602-0.352 1-0.996 1-1.732 0-1.105-0.895-2-2-2s-2 0.895-2 2c0 0.736 0.398 1.38 0.991 1.727l0.009 0.005v2.27c0 1.105 0.895 2 2 2v0h4v2.27c-0.602 0.352-1 0.996-1 1.732 0 1.105 0.895 2 2 2s2-0.895 2-2c0-0.736-0.398-1.38-0.991-1.727l-0.009-0.005v-4.27h4c1.105 0 2-0.895 2-2v0-2h1v-4h-4v4h1z"></path>
</svg>
