<!-- Generated by IcoMoon.io -->
<svg version="1.1" xmlns="http://www.w3.org/2000/svg" width="20" height="20" viewBox="0 0 20 20">
<title>user-group</title>
<path d="M7 8c-2.209 0-4-1.791-4-4s1.791-4 4-4v0c2.209 0 4 1.791 4 4s-1.791 4-4 4v0zM7 9c2.15 0 4.2 0.4 6.1 1.090l-1.1 5.91h-1.25l-0.75 4h-6l-0.75-4h-1.25l-1.1-5.91c1.813-0.684 3.909-1.083 6.097-1.090h0.003zM15.31 9.17c1.32 0.18 2.59 0.48 3.8 0.92l-1.11 5.91h-1.25l-0.75 4h-3.96l0.37-2h1.25l1.65-8.83zM13 0c0.010-0 0.022-0 0.034-0 2.209 0 4 1.791 4 4s-1.791 4-4 4c-0.49 0-0.958-0.088-1.392-0.249l0.028 0.009c0.832-1.017 1.336-2.329 1.336-3.76s-0.504-2.743-1.344-3.771l0.008 0.011c0.43-0.14 0.86-0.24 1.33-0.24z"></path>
</svg>
