<!-- Generated by IcoMoon.io -->
<svg version="1.1" xmlns="http://www.w3.org/2000/svg" width="20" height="20" viewBox="0 0 20 20">
<title>vector</title>
<path d="M12 4h4.27c0.352-0.602 0.996-1 1.732-1 1.105 0 2 0.895 2 2s-0.895 2-2 2c-0.736 0-1.38-0.398-1.727-0.991l-0.005-0.009h-2.14c2.698 1.415 4.569 4.087 4.838 7.217l0.002 0.033c0.621 0.347 1.035 1.001 1.035 1.752 0 1.105-0.895 2-2 2s-2-0.895-2-2c0-0.722 0.383-1.355 0.957-1.707l0.009-0.005c-0.3-2.857-2.279-5.182-4.92-5.987l-0.050-0.013v0.71h-4v-0.71c-2.687 0.821-4.662 3.146-4.957 5.97l-0.003 0.030c0.583 0.357 0.965 0.989 0.965 1.712 0 1.105-0.895 2-2 2s-2-0.895-2-2c0-0.75 0.413-1.404 1.025-1.746l0.010-0.005c0.267-3.16 2.13-5.831 4.771-7.226l0.049-0.024h-2.13c-0.352 0.602-0.996 1-1.732 1-1.105 0-2-0.895-2-2s0.895-2 2-2c0.736 0 1.38 0.398 1.727 0.991l0.005 0.009h4.27v-1h4v1z"></path>
</svg>
