<!-- Generated by IcoMoon.io -->
<svg version="1.1" xmlns="http://www.w3.org/2000/svg" width="32" height="32" viewBox="0 0 32 32">
<title>volleyball-water1</title>
<path d="M19.856 22.672c1.386-1.502 2.536-3.263 3.365-5.245 1.875 0.837 3.564 2.014 4.991 3.451 0.029-0.076-0.079 0.213-0.17 0.43-2.515 1.579-5.268 2.18-8.187 1.364v0 0zM18.781 22.309c1.448-1.485 2.643-3.258 3.487-5.273-1.718-0.641-3.572-1.004-5.506-1.034-0.95 1.588-2.114 2.973-3.433 4.137 1.294 0.229 2.596 0.694 3.895 1.425 0.523 0.294 1.043 0.542 1.557 0.745v0 0zM11.178 19.97c-2.7-3.738-3.769-8.221-3.284-12.536 0.035-0.033-0.43 0.42-0.68 0.697-1.998 2.216-3.215 5.15-3.215 8.369 0 1.842 0.398 3.59 1.113 5.165 1.955-1.049 3.992-1.658 6.065-1.695v0 0zM28.801 14.269c-3.593-3.423-8.638-5.233-13.883-4.554 0.304 1.809 0.916 3.596 1.857 5.287 4.564 0.070 8.703 1.888 11.78 4.813-0.017 0.062 0.088-0.327 0.146-0.589 0.195-0.877 0.298-1.79 0.298-2.726 0-0.48-0.027-0.954-0.080-1.42-0.058-0.511-0.161-1.044-0.119-0.811v0zM28.349 12.508c-3.7-2.966-8.548-4.465-13.569-3.812-0.16-1.543-0.1-3.092 0.169-4.601-0.051 0.006 0.18-0.022 0.348-0.038 0.396-0.038 0.798-0.057 1.204-0.057 5.241 0 9.728 3.225 11.586 7.799 0.144 0.355 0.305 0.835 0.263 0.709v0zM9.078 6.441c-0.813 4.537 0.217 9.372 3.199 13.282 1.405-1.164 2.638-2.581 3.627-4.233-1.974-3.545-2.585-7.49-1.998-11.221 0.032-0.007-0.176 0.038-0.311 0.070-1.416 0.337-2.739 0.915-3.922 1.688-0.284 0.185-0.672 0.471-0.595 0.413v0zM3 25c0.432-0.319 0.901-0.634 1.405-0.934 4.032-2.406 8.441-2.965 12.82-0.502 4.021 2.262 7.786 1.761 11.12-0.452 0.623-0.414 1.177-0.857 1.655-1.299v1.322c-0.341 0.277-0.709 0.549-1.102 0.81-3.622 2.405-7.778 2.957-12.164 0.491-4.022-2.262-8.065-1.75-11.817 0.489-0.713 0.425-1.353 0.881-1.911 1.336-0.002 0.002-0.004 0.003-0.006 0.005v-1.266zM5.979 26.232c3.592-1.665 7.43-1.813 11.245 0.333 3.481 1.958 6.771 1.846 9.755 0.344v1.109c-3.143 1.433-6.616 1.46-10.245-0.581-3.645-2.050-7.307-1.822-10.755-0.094v-1.11z"></path>
</svg>
