<!-- Generated by IcoMoon.io -->
<svg version="1.1" xmlns="http://www.w3.org/2000/svg" width="32" height="32" viewBox="0 0 32 32">
<title>volleyball1</title>
<path d="M28.801 14.269c-3.593-3.423-8.638-5.233-13.883-4.554 0.304 1.809 0.916 3.596 1.857 5.287 4.564 0.070 8.703 1.888 11.78 4.813-0.017 0.062 0.088-0.327 0.146-0.589 0.195-0.877 0.298-1.79 0.298-2.726 0-0.48-0.027-0.954-0.080-1.42-0.058-0.511-0.161-1.044-0.119-0.811v0zM28.349 12.508c-3.7-2.966-8.548-4.465-13.569-3.812-0.16-1.543-0.1-3.092 0.169-4.601-0.051 0.006 0.18-0.022 0.348-0.038 0.396-0.038 0.798-0.057 1.204-0.057 5.241 0 9.728 3.225 11.586 7.799 0.144 0.355 0.305 0.835 0.263 0.709v0zM28.212 20.878c-1.427-1.438-3.117-2.614-4.991-3.451-2.221 5.307-6.733 9.030-11.952 10.43-0.059-0.027 0.169 0.078 0.345 0.153 1.501 0.638 3.153 0.991 4.887 0.991 5.2 0 9.658-3.175 11.542-7.692 0.090-0.217 0.199-0.506 0.17-0.43v0zM9.902 27.119c5.379-1.065 10.117-4.713 12.367-10.082-1.718-0.641-3.572-1.004-5.506-1.034-2.399 4.011-6.162 6.721-10.352 7.879-0.048-0.066 0.169 0.23 0.335 0.436 0.713 0.888 1.544 1.677 2.47 2.342 0.263 0.189 0.727 0.485 0.686 0.459v0zM5.823 23.003c2.017-0.514 3.936-1.407 5.641-2.649-2.911-3.813-4.071-8.456-3.57-12.92 0.035-0.033-0.43 0.42-0.68 0.697-1.998 2.216-3.215 5.15-3.215 8.369 0 2.158 0.547 4.188 1.51 5.96 0.139 0.255 0.355 0.612 0.313 0.543v0zM9.078 6.441c-0.813 4.537 0.217 9.372 3.199 13.282 1.405-1.164 2.638-2.581 3.627-4.233-1.974-3.545-2.585-7.49-1.998-11.221 0.032-0.007-0.176 0.038-0.311 0.070-1.416 0.337-2.739 0.915-3.922 1.688-0.284 0.185-0.672 0.471-0.595 0.413v0z"></path>
</svg>
