<!-- Generated by IcoMoon.io -->
<svg version="1.1" xmlns="http://www.w3.org/2000/svg" width="32" height="32" viewBox="0 0 32 32">
<title>volleyball-water</title>
<path d="M5.489 23.468l0.479-0.232c-1.246-1.944-1.969-4.256-1.969-6.736 0-6.904 5.596-12.5 12.5-12.5s12.5 5.596 12.5 12.5c0 2.907-0.992 5.582-2.656 7.705-0.084 0.036 0.128-0.054 0.316-0.142 0.573-0.267 1.134-0.586 1.684-0.951 0.623-0.414 1.177-0.857 1.655-1.299v1.322c-0.341 0.277-0.709 0.549-1.102 0.81-3.622 2.405-7.778 2.957-12.164 0.491-4.022-2.262-8.065-1.75-11.817 0.489-0.713 0.425-1.353 0.881-1.911 1.336-0.002 0.002-0.006-1.261-0.006-1.261 0.432-0.319 0.901-0.634 1.404-0.934 0.33-0.197 0.663-0.382 0.999-0.554 0.030-0.015 0.086-0.044 0.086-0.044v0zM10.821 21.982v0c-0.165 0.008 0.134-0.010 0.449-0.013 1.966-0.019 3.963 0.476 5.954 1.596 0.022 0.012 0.063 0.034 0.116 0.062 2.101-1.708 3.818-3.939 4.929-6.589-1.718-0.641-3.572-1.004-5.506-1.034-1.515 2.533-3.574 4.547-5.941 5.98zM24.439 24.82c1.226-1.17 2.193-2.608 2.809-4.22 0.104-0.274 0.209-0.593 0.169-0.473-1.246-1.1-2.659-2.014-4.196-2.701-1.115 2.664-2.807 4.929-4.876 6.701-0.010-0.004-0.019-0.009-0.029-0.013 1.944 0.865 3.822 1.091 5.615 0.802 0.271-0.044 0.608-0.118 0.507-0.096v0zM16.426 29c0.025 0 0.049 0 0.074 0s0.050-0 0.075-0h-0.149zM7.787 8.994v0 0c0.070-0.081-0.3 0.352-0.533 0.667-1.416 1.912-2.254 4.278-2.254 6.839 0 1.849 0.437 3.597 1.212 5.145 0.236 0.471 0.672 1.166 0.61 1.070 1.651-0.533 3.22-1.326 4.642-2.36-2.573-3.371-3.778-7.39-3.677-11.36zM8.882 7.885c-0.379 4.102 0.728 8.34 3.395 11.839 1.405-1.164 2.638-2.581 3.627-4.233-1.789-3.212-2.459-6.753-2.132-10.165 0.076-0.018-0.318 0.079-0.586 0.159-1.327 0.399-2.553 1.031-3.631 1.849-0.37 0.281-0.803 0.667-0.673 0.552v0 0zM26.811 11.403v0 0c0.032 0.064-0.275-0.536-0.487-0.884-2.019-3.31-5.664-5.519-9.824-5.519-0.317 0-0.63 0.013-0.94 0.038-0.342 0.028-0.846 0.1-0.762 0.087-0.134 1.179-0.142 2.377-0.018 3.571 4.352-0.565 8.574 0.485 12.032 2.707zM27.505 13.153c-3.461-2.69-7.945-4.038-12.587-3.437 0.304 1.809 0.916 3.596 1.857 5.287 4.159 0.064 7.966 1.579 10.938 4.062-0.019 0.082 0.1-0.458 0.155-0.818 0.087-0.569 0.132-1.152 0.132-1.746 0-0.951-0.116-1.876-0.333-2.76-0.102-0.412-0.225-0.797-0.161-0.587v0 0zM5.979 26.232c3.592-1.665 7.43-1.813 11.245 0.333 3.481 1.958 6.771 1.846 9.755 0.344v1.109c-3.143 1.433-6.616 1.46-10.245-0.581-3.645-2.050-7.307-1.822-10.755-0.094v-1.11z"></path>
</svg>
