<!-- Generated by IcoMoon.io -->
<svg version="1.1" xmlns="http://www.w3.org/2000/svg" width="32" height="32" viewBox="0 0 32 32">
<title>volleyball</title>
<path d="M7.787 8.994c-0.101 3.971 1.105 7.99 3.677 11.36-1.422 1.034-2.991 1.827-4.642 2.36 0.062 0.096-0.374-0.599-0.61-1.070-0.776-1.548-1.212-3.296-1.212-5.145 0-2.562 0.838-4.928 2.254-6.839 0.233-0.315 0.603-0.748 0.533-0.667v0zM8.882 7.885v0c-0.13 0.115 0.303-0.271 0.673-0.552 1.078-0.818 2.304-1.45 3.631-1.849 0.267-0.080 0.662-0.178 0.586-0.159-0.327 3.413 0.343 6.953 2.132 10.165-0.988 1.651-2.222 3.069-3.627 4.233-2.667-3.498-3.773-7.736-3.395-11.839zM26.811 11.403c-3.457-2.222-7.679-3.272-12.032-2.707-0.124-1.194-0.116-2.392 0.018-3.571-0.084 0.012 0.42-0.060 0.762-0.087 0.31-0.025 0.624-0.038 0.94-0.038 4.161 0 7.805 2.209 9.824 5.519 0.212 0.347 0.519 0.947 0.487 0.884v0zM27.505 13.153v0c-0.064-0.21 0.060 0.175 0.161 0.587 0.218 0.884 0.333 1.809 0.333 2.76 0 0.594-0.045 1.177-0.132 1.746-0.055 0.36-0.174 0.9-0.155 0.818-2.971-2.482-6.778-3.998-10.938-4.062-0.941-1.691-1.554-3.478-1.857-5.287 4.642-0.601 9.126 0.747 12.587 3.437zM11.325 26.772v0c0.202 0.102-0.18-0.084-0.558-0.301-1.15-0.663-2.174-1.518-3.029-2.523-0.151-0.178-0.354-0.436-0.311-0.381 3.778-1.295 7.132-3.881 9.336-7.565 1.934 0.030 3.788 0.393 5.506 1.034-2.049 4.89-6.162 8.352-10.944 9.736zM12.771 27.382c4.574-1.665 8.445-5.165 10.45-9.956 1.537 0.686 2.95 1.601 4.196 2.701 0.040-0.12-0.064 0.2-0.169 0.473-1.652 4.327-5.841 7.4-10.747 7.4-1.218 0-2.393-0.189-3.495-0.541-0.139-0.044-0.295-0.098-0.234-0.078v0zM29 16.5c0-6.904-5.596-12.5-12.5-12.5s-12.5 5.596-12.5 12.5c0 6.904 5.596 12.5 12.5 12.5s12.5-5.596 12.5-12.5v0z"></path>
</svg>
