<!-- Generated by IcoMoon.io -->
<svg version="1.1" xmlns="http://www.w3.org/2000/svg" width="20" height="20" viewBox="0 0 20 20">
<title>volume-up</title>
<path d="M5 7h-4v6h4l5 5v-16l-5 5zM16.36 16.36l-1.41-1.41c1.272-1.265 2.059-3.015 2.059-4.95s-0.787-3.685-2.059-4.95l-0-0 1.41-1.41c1.634 1.625 2.645 3.874 2.645 6.36s-1.011 4.735-2.644 6.36l-0 0zM13.54 13.54l-1.42-1.42c0.542-0.543 0.877-1.292 0.877-2.12s-0.335-1.577-0.877-2.12l0 0 1.42-1.42c0.912 0.903 1.477 2.156 1.477 3.54s-0.565 2.637-1.477 3.54l-0 0z"></path>
</svg>
