<!-- Generated by IcoMoon.io -->
<svg version="1.1" xmlns="http://www.w3.org/2000/svg" width="32" height="32" viewBox="0 0 32 32">
<title>whistle1</title>
<path d="M8.213 17.41c0.697-2.542 3.024-4.41 5.787-4.41h1v2h3v-2h10v3l-8.132 1.743c0.086 0.405 0.132 0.826 0.132 1.257 0 3.314-2.686 6-6 6-2.763 0-5.090-1.868-5.787-4.41-0.336 0.257-0.757 0.41-1.213 0.41-1.105 0-2-0.895-2-2s0.895-2 2-2c0.456 0 0.877 0.153 1.213 0.41v0 0zM7 18c-0.552 0-1 0.444-1 1 0 0.552 0.444 1 1 1 0.552 0 1-0.444 1-1 0-0.552-0.444-1-1-1v0zM16 7v4h1v-4h-1zM21.12 8.021l-2.12 3.392 0.848 0.53 2.12-3.392-0.848-0.53zM11.848 8.021l2.12 3.392-0.848 0.53-2.12-3.392 0.848-0.53z"></path>
</svg>
