<!-- Generated by IcoMoon.io -->
<svg version="1.1" xmlns="http://www.w3.org/2000/svg" width="32" height="32" viewBox="0 0 32 32">
<title>whistle</title>
<path d="M8.213 17.41v0 0c-0.336-0.257-0.757-0.41-1.213-0.41-1.105 0-2 0.895-2 2s0.895 2 2 2c0.456 0 0.877-0.153 1.213-0.41 0.697 2.542 3.024 4.41 5.787 4.41 3.314 0 6-2.686 6-6 0-0.431-0.046-0.852-0.132-1.257l8.132-1.743v-3h-10v2h-3v-2h-1c-2.763 0-5.090 1.868-5.787 4.41zM19 14h8v1.2l-8.411 1.812c0.264 0.609 0.411 1.282 0.411 1.988 0 2.761-2.239 5-5 5s-5-2.239-5-5c0-2.416 1.714-4.433 3.993-4.899 0.325-0.067 0.662-0.101 1.007-0.101v2h5v-2zM7 18v0c0.556 0 1 0.448 1 1 0 0.556-0.448 1-1 1-0.556 0-1-0.448-1-1 0-0.556 0.448-1 1-1zM16 7v4h1v-4h-1zM21.12 8.021l-2.12 3.392 0.848 0.53 2.12-3.392-0.848-0.53zM11.848 8.021l2.12 3.392-0.848 0.53-2.12-3.392 0.848-0.53z"></path>
</svg>
