<!-- Generated by IcoMoon.io -->
<svg version="1.1" xmlns="http://www.w3.org/2000/svg" width="32" height="32" viewBox="0 0 32 32">
<title>wind-turbine1</title>
<path d="M19.26 12.559c2.555 1.815 8.702 6.28 8.306 6.967-0.396 0.686-7.304-2.389-10.166-3.7v0l0.893 15.174c0 0-0.5 1-2 1s-2-1-2-1l0.893-15.174c-2.862 1.311-9.77 4.386-10.166 3.7-0.397-0.687 5.75-5.152 8.306-6.967-0.021 0.144-0.032 0.291-0.032 0.441 0 1.657 1.343 3 3 3s3-1.343 3-3c0-0.15-0.011-0.297-0.032-0.441v0 0zM18.171 10.662c-0.295-3.129-1.087-10.662-1.88-10.662s-1.585 7.532-1.88 10.662c0.514-0.414 1.168-0.662 1.88-0.662s1.365 0.248 1.88 0.662v0 0zM16.292 15c1.105 0 2-0.895 2-2s-0.895-2-2-2c-1.105 0-2 0.895-2 2s0.895 2 2 2v0z"></path>
</svg>
