<!-- Generated by IcoMoon.io -->
<svg version="1.1" xmlns="http://www.w3.org/2000/svg" width="32" height="32" viewBox="0 0 32 32">
<title>wind-turbine</title>
<path d="M18.385 15.149c4.049 1.81 6.232 2.649 6.232 2.649s-2.472-1.97-5.414-4.072c-0.137 0.55-0.425 1.040-0.818 1.423v0 0zM13.379 13.719c-3.638 2.632-5.478 4.122-5.478 4.122s2.985-1.172 6.305-2.686c-0.398-0.386-0.69-0.88-0.827-1.436v0 0zM19.26 12.559c2.555 1.815 8.702 6.28 8.306 6.967-0.396 0.686-7.304-2.389-10.166-3.7v0l0.893 15.174c0 0-0.5 1-2 1s-2-1-2-1l0.893-15.174c-2.862 1.311-9.77 4.386-10.166 3.7-0.397-0.687 5.75-5.152 8.306-6.967 0.113-0.764 0.513-1.435 1.088-1.897 0.295-3.129 1.087-10.662 1.88-10.662s1.585 7.532 1.88 10.662c0.575 0.463 0.976 1.133 1.088 1.897v0 0zM16.173 15.998l-0.871 14.679c0 0 0.194 0.323 0.989 0.323s1-0.323 1-0.323l-0.88-14.679c-0.040 0.002-0.080 0.002-0.12 0.002s-0.079-0.001-0.119-0.002v0 0zM17.121 10.116c-0.46-4.461-0.83-6.796-0.83-6.796s-0.477 3.167-0.826 6.795c0.262-0.075 0.539-0.115 0.826-0.115 0.288 0 0.566 0.041 0.83 0.116v0 0zM16.292 15c1.105 0 2-0.895 2-2s-0.895-2-2-2c-1.105 0-2 0.895-2 2s0.895 2 2 2v0z"></path>
</svg>
