<!-- Generated by IcoMoon.io -->
<svg version="1.1" xmlns="http://www.w3.org/2000/svg" width="32" height="32" viewBox="0 0 32 32">
<title>worried-face-teeth1</title>
<path d="M16.5 4c-6.903 0-12.5 5.597-12.5 12.5s5.597 12.5 12.5 12.5 12.5-5.597 12.5-12.5-5.597-12.5-12.5-12.5zM9.063 12.203l3.316-2.238 0.559 0.828-3.316 2.238-0.559-0.828zM13 23h-0.494c-0.659 0-1.216-0.419-1.422-1h1.916v1zM13 21h-1.916c0.206-0.584 0.766-1 1.422-1h0.494v1zM12 15c-0.553 0-1-0.447-1-1s0.447-1 1-1c0.553 0 1 0.447 1 1s-0.447 1-1 1zM16 23h-2v-1h2v1zM16 21h-2v-1h2v1zM20 20h0.494c0.659 0 1.216 0.419 1.422 1h-1.916v-1zM19 23h-2v-1h2v1zM19 21h-2v-1h2v1zM20.494 23h-0.494v-1h1.916c-0.206 0.584-0.766 1-1.422 1zM21 15c-0.553 0-1-0.447-1-1s0.447-1 1-1 1 0.447 1 1c0 0.553-0.447 1-1 1zM23.378 13.034l-3.316-2.238 0.559-0.828 3.316 2.234-0.559 0.831z"></path>
</svg>
