<!-- Generated by IcoMoon.io -->
<svg version="1.1" xmlns="http://www.w3.org/2000/svg" width="32" height="32" viewBox="0 0 32 32">
<title>zip</title>
<path d="M16 17.525v0.525c-1.141 0.23-2 1.232-2 2.45 0 1.381 1.11 2.5 2.5 2.5 1.381 0 2.5-1.11 2.5-2.5 0-1.21-0.853-2.22-2-2.451v-2.049h1v-1h-1v-1h1v-1h-1v-1h1v-1h-1v-1h1v-1h-1v-1h1v-1h-1v-1h1v-1h-1v-1h5c1.666 0 3 1.339 3 2.991v19.019c0 1.647-1.343 2.991-3 2.991h-11c-1.666 0-3-1.339-3-2.991v-19.018c0-1.647 1.343-2.991 3-2.991h4v1h1v1h-1v1h1v1h-1v1h1v1h-1v1h1v1h-1v1h1v1h-1v1h1v1h-1v1h1v0.525zM11.006 3c-2.213 0-4.006 1.792-4.006 3.998v19.003c0 2.208 1.787 3.998 4.006 3.998h10.988c2.213 0 4.006-1.792 4.006-3.998v-19.003c0-2.208-1.787-3.998-4.006-3.998h-10.988zM16.5 19v0c0.834 0 1.5 0.672 1.5 1.5 0 0.834-0.672 1.5-1.5 1.5-0.834 0-1.5-0.672-1.5-1.5 0-0.834 0.672-1.5 1.5-1.5z"></path>
</svg>
